<svg version="1.1" viewBox="0.0 0.0 751.3359580052494 428.0209973753281" fill="none" stroke="none" stroke-linecap="square" stroke-miterlimit="10" xmlns:xlink="http://www.w3.org/1999/xlink" xmlns="http://www.w3.org/2000/svg"><clipPath id="p.0"><path d="m0 0l751.33594 0l0 428.021l-751.33594 0l0 -428.021z" clip-rule="nonzero"/></clipPath><g clip-path="url(#p.0)"><path fill="#000000" fill-opacity="0.0" d="m0 0l751.33594 0l0 428.021l-751.33594 0z" fill-rule="evenodd"/><path fill="#353535" d="m187.82677 202.06299c4.3937073 0 6.490814 2.4960632 6.490814 7.3884583c0 4.994751 -2.296585 7.490814 -6.9921265 7.490814l-2.0944824 0l0 -14.879272zm-7.490814 -3.994751l0 22.86615l6.490814 0c3.994751 0 7.18898 -0.9973755 9.286087 -2.994751c2.0971222 -1.9973755 3.1968536 -4.892395 3.1968536 -8.587936c0 -3.4934387 -1.0 -6.2887115 -2.9973755 -8.286087c-2.0944824 -1.9973755 -4.9921265 -2.9973755 -8.685028 -2.9973755z" fill-rule="evenodd"/><path fill="#353535" d="m206.59842 198.06824l0 22.86615l13.081375 0l0 -3.9921265l-8.388458 0l0 -5.892395l7.790024 0l0 -3.994751l-7.790024 0l0 -4.9921265l8.388458 0l0 -3.994751z" fill-rule="evenodd"/><path fill="#353535" d="m224.07349 198.06824l7.687668 22.86615l5.291336 0l7.6902924 -22.86615l-4.7926483 0l-4.3937073 13.679794c-0.5984192 2.296585 -1.0 3.994751 -1.0997314 4.994751c-0.19947815 -0.4015808 -0.2992096 -1.1994781 -0.49868774 -2.296585c-0.2992096 -1.0 -0.49868774 -1.9973755 -0.79789734 -2.698166l-4.194229 -13.679794z" fill-rule="evenodd"/><path fill="#353535" d="m516.14435 201.86351c3.8950195 0 5.692932 2.59581 5.692932 7.687668c0 5.194229 -1.7979126 7.790024 -5.692932 7.790024c-1.9973755 0 -3.3936768 -0.79789734 -4.3936768 -1.9973755c-0.9973755 -1.2992096 -1.4986877 -3.2939606 -1.4986877 -5.7926483c0 -2.5957947 0.50131226 -4.4934387 1.4986877 -5.6902924c1.0 -1.398941 2.4960327 -1.9973755 4.3936768 -1.9973755zm-0.099731445 -3.994751c-3.5958252 0 -6.291321 1.0 -8.188965 2.9973755c-1.7952881 1.994751 -2.8950195 4.9921265 -2.8950195 8.685043c0 3.7952728 1.0997314 6.790024 2.8950195 8.787399c1.897644 1.9973755 4.5931396 2.9973755 8.188965 2.9973755c3.4960938 0 6.1915894 -1.0 8.089233 -2.9973755c1.8950195 -1.9973755 2.8950195 -4.9921265 2.8950195 -8.787399c0 -3.7926483 -1.0 -6.6902924 -2.8950195 -8.685043c-1.897644 -1.9973755 -4.5931396 -2.9973755 -8.089233 -2.9973755z" fill-rule="evenodd"/><path fill="#353535" d="m541.30707 201.96326c1.2992554 0 2.2966309 0.39894104 2.8950195 0.8976288c0.6010742 0.50131226 0.90026855 1.3989563 0.90026855 2.4986877c0 1.0971222 -0.39892578 1.994751 -1.0997314 2.59581c-0.7979126 0.5984192 -1.8950195 0.8976288 -3.3936768 0.8976288l-1.5984497 0l0 -6.8897552zm-7.188965 -3.8950195l0 22.86615l4.892395 0l0 -8.086624l2.097107 0c2.8950195 0 5.091858 -0.79789734 6.590576 -1.9973755c1.4986572 -1.2992096 2.2965698 -3.0944824 2.2965698 -5.5905457c0 -2.3989563 -0.7979126 -4.194229 -2.1968384 -5.3937073c-1.4987183 -1.1968384 -3.5958252 -1.7978973 -6.291321 -1.7978973z" fill-rule="evenodd"/><path fill="#353535" d="m563.17584 197.56955c-2.4960327 0 -4.3936768 0.6981659 -5.692932 1.7978973c-1.3963013 1.0971222 -1.9973755 2.6955414 -1.9973755 4.692917c0 1.1994781 0.20214844 2.1968536 0.6010742 2.8950195c0.39892578 0.9002533 0.9973755 1.4986877 1.5958252 2.097107c0.6010132 0.7007904 1.7978516 1.2992096 3.097107 1.897644c1.4960327 0.5984192 2.4960327 1.0997314 2.994751 1.4986877c0.49865723 0.39894104 0.90026855 0.5984192 1.1994629 0.9973755c0.19946289 0.39894104 0.29919434 0.79789734 0.29919434 1.2992096c0 0.79789734 -0.19946289 1.4960632 -0.8005371 1.7978973c-0.6981201 0.3989563 -1.3963013 0.6981659 -2.4960327 0.6981659c-0.89764404 0 -1.7952881 -0.19947815 -2.8950195 -0.3989563c-0.9973755 -0.40156555 -2.3963013 -0.80052185 -3.8950195 -1.4986877l0 4.4934387c1.897644 0.89764404 3.994751 1.3989563 6.4908447 1.3989563c2.795227 0 4.7926025 -0.50131226 6.291321 -1.7978973c1.4986572 -1.0997467 2.1968384 -2.6955414 2.1968384 -4.892395c0 -1.2992096 -0.5983887 -2.698166 -1.3989258 -3.7952728c-0.69818115 -1.1994781 -2.1968384 -2.1968536 -4.2940063 -3.1942291c-1.6954956 -0.7007904 -2.795227 -1.2992096 -3.1942139 -1.5984192c-0.49865723 -0.19947815 -0.6981201 -0.49868774 -0.9973755 -0.90026855c-0.099731445 -0.2992096 -0.2020874 -0.6981659 -0.2020874 -1.0971069c0 -0.59843445 0.2020874 -1.1994781 0.70080566 -1.5984344c0.49865723 -0.39894104 1.2965698 -0.5984192 2.1968384 -0.5984192c0.69818115 0 1.5958252 0 2.2965698 0.19947815c0.7979126 0.099731445 1.7979126 0.49868774 2.994751 1.0l1.6981812 -3.6955414c-1.1994629 -0.6981659 -2.2965698 -1.0 -3.3963013 -1.2992096c-0.9973755 -0.19947815 -2.097168 -0.3989563 -3.3937378 -0.3989563z" fill-rule="evenodd"/><path fill="#19838e" d="m225.97113 4.7532806l-17.375336 44.63517l17.375336 44.73491c59.112854 6.790024 105.04462 56.916008 105.04462 117.82415c0 -48.427826 16.574799 -93.062996 44.4357 -128.40945c-35.448822 -44.93438 -88.97113 -74.79002 -149.48032 -78.784775z" fill-rule="evenodd"/><path fill="#3737aa" d="m4.7952757 209.55118l0 2.3963318c0 110.63779 86.47244 201.00525 195.41208 207.19684l17.07611 -44.136475l-17.475067 -45.13385c-59.61154 -6.1889954 -106.04462 -56.61679 -106.04462 -117.92651l0 -1.994751l-43.934383 17.073486l-45.03412 -17.475067z" fill-rule="evenodd"/><path fill="#353535" d="m420.38583 220.73491z" fill-rule="evenodd"/><path fill="#353535" d="m419.88452 211.94751l0 4.393692l0.099731445 0c0 -1.4960632 -0.099731445 -2.8950043 -0.099731445 -4.393692z" fill-rule="evenodd"/><path fill="#8b9b29" d="m212.29134 4.3543305c-110.83989 0 -201.40681 86.87139 -207.29659 196.41208l44.834644 17.272964l44.43307 -17.173233c5.593178 -60.312332 56.31758 -107.643036 118.02887 -107.643036c1.4960632 0 2.8950195 0 4.391083 0.099739075l-17.073502 -43.934387l17.475067 -45.03412z" fill-rule="evenodd"/><path fill="#3fa9f5" d="m331.4147 225.42783l0 0l0 -0.099746704z" fill-rule="evenodd"/><path fill="#3fa9f5" d="m376.04987 208.2546l-42.438324 16.475067l-0.5984192 0.19947815l-1.5984192 0.5984192l0 0.102371216l-1.2966003 0.49868774c-6.989502 58.913376 -57.01837 104.645676 -117.82677 104.645676l-3.296585 0l17.175858 44.532806l-17.175858 44.43567l3.296585 0c66.2021 0 125.11549 -30.955353 163.16011 -79.083984l0 -0.099731445c25.362213 -32.351715 41.338593 -72.194214 44.03412 -115.53018l-43.4357 -16.774277z" fill-rule="evenodd"/><path fill="#3fa9f5" d="m331.4147 225.32808l0 0z" fill-rule="evenodd"/><path fill="#f15a24" d="m331.01575 216.74278z" fill-rule="evenodd"/><path fill="#f15a24" d="m331.01575 216.84251l0 0c0 -0.099731445 0 0 0 0z" fill-rule="evenodd"/><path fill="#f15a24" d="m538.6116 4.3543305c-66.20212 0 -125.11551 30.955381 -163.16013 79.18372c-27.8609 35.34646 -44.4357 79.8819 -44.4357 128.40945l0 4.795273l45.03412 -17.475067l43.834656 16.973755l0 -4.3937073c0 -65.50131 53.223083 -118.624664 118.62732 -118.624664c5.291321 0 10.585266 0.39894867 15.776855 1.0l26.362244 -39.04462l-6.989502 -47.829395c-11.485596 -1.9973755 -23.16803 -2.994751 -35.049866 -2.994751z" fill-rule="evenodd"/><path fill="#9263ab" d="m582.2467 9.047244l7.188965 48.228344l-26.160095 38.742783c53.7218 11.383202 93.8609 59.013123 93.8609 116.031494c0 5.291336 -0.29919434 10.482941 -0.9973755 15.674545l40.241455 27.16011l46.629944 -6.989502c1.9973755 -11.682419 3.1968384 -23.664047 3.1968384 -35.94751c0 -99.551186 -70.19684 -182.8294 -163.96063 -202.90027z" fill-rule="evenodd"/><path fill="#aa2e2e" d="m654.64044 236.51181c-11.283508 53.72177 -59.013123 94.16272 -116.02887 94.16272c-5.291382 0 -10.385864 -0.39892578 -15.477722 -1.0l-27.359558 40.839905l6.989502 46.03412c11.582642 1.9973755 23.566895 3.0944824 35.84778 3.0944824c99.35431 0 182.33331 -69.79788 202.8031 -162.96063l0 0l-46.931763 6.790039l-39.84247 -26.960632z" fill-rule="evenodd"/><path fill="#19838e" d="m419.48557 224.92914c-2.6955261 43.4357 -18.671906 83.2782 -44.03412 115.33072c29.257202 37.044617 70.89502 63.905487 118.624664 74.39105l-6.989502 -46.333313l27.060364 -40.23886c-49.527557 -10.385834 -87.671906 -51.624664 -93.461945 -102.65091l-1.1994629 -0.49868774z" fill-rule="evenodd"/><path fill="#ffffff" d="m408.01575 112.71916c0.28085327 0 0.5826721 0.13385773 0.887146 0.37532806c0.49868774 0.39894867 0.69815063 0.79789734 0.69815063 1.2992096c0 0.49868774 -0.19946289 1.0971146 -0.69815063 1.6955414l-0.50131226 0.80052185l-2.8950195 -2.0971146l0.49868774 -0.6010437c0.50131226 -0.6981659 1.0 -1.1968536 1.4986877 -1.2965927c0.1574707 -0.11811066 0.330719 -0.17584991 0.5118103 -0.17584991zm0.09448242 -2.6929169c-0.23358154 0 -0.46981812 0.026245117 -0.70602417 0.07349396c-1.0 0.2992096 -1.9973755 1.0971146 -2.994751 2.4960632l-2.196869 2.994751l10.183746 7.587921l1.5984192 -2.097107l-3.795288 -2.8950195l0.69818115 -1.0971069l5.792633 0.49868774l1.6981812 -2.3963242c-1.0997314 -0.099739075 -3.196869 -0.19947815 -6.6903076 -0.29921722c0.19949341 -0.9002609 0.19949341 -1.6981583 0 -2.296585c-0.29919434 -0.7007904 -0.69815063 -1.1994781 -1.2991943 -1.6981659c-0.76116943 -0.6115494 -1.5249329 -0.8713913 -2.2887268 -0.8713913z" fill-rule="evenodd"/><path fill="#ffffff" d="m415.4908 99.215225l-4.7926636 5.490814l9.587952 8.388451l4.8923645 -5.490814l-1.7978821 -1.3989487l-2.994751 3.4934387l-2.4960632 -2.09449l2.8950195 -3.1968536l-1.5984497 -1.4986877l-2.894989 3.1968536l-2.0971375 -1.8976364l2.994751 -3.4960632l-1.6981506 -1.4960632z" fill-rule="evenodd"/><path fill="#ffffff" d="m420.68503 93.92126l-1.8976135 1.797905l8.986877 9.186348l5.490814 -5.490814l-1.6955566 -1.6981583l-3.5957947 3.6955338l-7.288727 -7.490814z" fill-rule="evenodd"/><path fill="#ffffff" d="m433.2651 82.64042l-5.6903076 4.7926483l8.288727 9.685043l5.5905457 -4.692917l-1.1994629 -1.8976364l-3.4934387 2.994751l-2.196869 -2.4960632l3.2939758 -2.7952728l-1.4960632 -1.5984268l-3.2966003 2.7978973l-1.7978821 -2.196846l3.4960632 -2.9973755l-1.4986877 -1.5958023z" fill-rule="evenodd"/><path fill="#ffffff" d="m441.7533 78.64567l0 0c0.19946289 0.099739075 0.49868774 0.29921722 0.69815063 0.49868774c0.30184937 0.099739075 1.6981506 1.0971146 3.8950195 2.895012l-2.6955566 1.9973755c-1.0997314 -2.895012 -1.6981506 -4.59317 -1.8976135 -5.391075zm0.099731445 -2.5958023l-2.5957947 1.994751l3.894989 12.981628l2.2966003 -1.7978973l-1.0 -2.994751l3.7952576 -2.6955414l2.4960632 1.797905l2.196869 -1.5984268l-11.083984 -7.687668z" fill-rule="evenodd"/><path fill="#ffffff" d="m455.63254 68.25984c-0.7978821 0 -1.3963318 0.2992096 -1.9973755 0.39894867c-0.69815063 0.099739075 -1.1968384 0.40157318 -1.7952576 0.8005295c-1.1994934 0.69815826 -1.897644 1.4960632 -2.196869 2.4960632c-0.4015808 0.9973755 -0.30181885 1.7978973 0.29922485 2.7952728c0.3989563 0.49868774 0.7978821 0.8976364 1.1968384 1.1994781c0.29922485 0.19947052 0.8005371 0.2992096 1.2992249 0.49868774c0.24932861 0.049865723 0.54855347 0.07348633 0.8845215 0.07348633c0.338562 0 0.7138977 -0.023620605 1.112854 -0.07348633c0.89764404 -0.19947815 1.4960632 -0.19947815 1.897644 -0.19947815c0.39892578 0 0.5984192 0 0.8976135 0.19947815c0.19949341 0.099731445 0.3989563 0.19947052 0.49868774 0.49868774c0.19949341 0.2992096 0.19949341 0.69815826 0.09976196 1.0971069c-0.09976196 0.30184174 -0.49868774 0.7007904 -0.9973755 1.0c-0.3989563 0.19947815 -0.90026855 0.49868774 -1.4986877 0.5984268c-0.49868774 0.19947815 -1.3963318 0.39894867 -2.196869 0.49868774l1.1994934 2.0971146c1.0971069 -0.099739075 2.3963013 -0.49868774 3.4934387 -1.1968536c1.2991943 -0.80052185 1.9973755 -1.5984192 2.3963013 -2.5957947c0.3989563 -1.0 0.19949341 -1.9973755 -0.39892578 -2.9973755c-0.3989563 -0.79790497 -0.89764404 -1.2965927 -1.4986877 -1.4960632c-0.4409485 -0.19160461 -0.96588135 -0.25984192 -1.6456909 -0.25984192c-0.39105225 0 -0.83724976 0.023620605 -1.34906 0.06036377c-0.9973755 0.19947815 -1.4986877 0.19947815 -1.897644 0.19947815c-0.29922485 0 -0.49868774 0 -0.69818115 -0.19947815c-0.29919434 -0.099739075 -0.39892578 -0.19947815 -0.49868774 -0.50131226c-0.29919434 -0.2992096 -0.29919434 -0.5984268 -0.099731445 -0.9973755c0.099731445 -0.19947815 0.49868774 -0.5984268 0.7979126 -0.79789734c0.3989563 -0.20210266 0.89764404 -0.4015808 1.2991943 -0.50131226c0.49868774 -0.19947815 0.9973755 -0.29921722 1.6955566 -0.3989563l-0.29922485 -2.296585z" fill-rule="evenodd"/><path fill="#ffffff" d="m465.41995 61.968502l-6.490814 3.296589l5.8897705 11.383202l6.490814 -3.3963242l-1.0971375 -1.9973755l-4.0944824 2.1968536l-1.4986877 -2.8950195l3.795288 -1.9973755l-1.0 -1.9973755l-3.7926636 1.9973755l-1.2991943 -2.4960556l4.0944824 -2.0971184l-0.9973755 -1.9973755z" fill-rule="evenodd"/><path fill="#ffffff" d="m287.28085 65.26509l1.1968384 0.5984268c0.6010437 0.39894867 1.0997314 0.79789734 1.1994629 1.1994781c0.19949341 0.4986801 0 0.79789734 -0.19946289 1.4960556c-0.3989563 0.60105133 -0.8005371 0.8005295 -1.2992249 1.0c-0.11810303 0.023628235 -0.24145508 0.03412628 -0.37005615 0.03412628c-0.41732788 0 -0.892395 -0.1286087 -1.4278259 -0.43307495l-0.7979126 -0.40157318l1.6981812 -3.4934387zm-1.2992249 -2.994751l-5.8897705 11.283463l2.3963318 1.1968536l2.097107 -3.994751l0.9973755 0.49868774c1.0682373 0.6115494 2.0183716 0.8713913 2.9422607 0.8713913c0.2861023 0 0.56954956 -0.023620605 0.85302734 -0.070869446c1.0971069 -0.2992096 1.9973755 -1.0 2.5957947 -2.296585c0.49868774 -1.0997391 0.5984192 -2.1968536 0.19946289 -3.0971146c-0.29919434 -0.9973755 -1.1994629 -1.6955338 -2.5957947 -2.4960632l-3.5957947 -1.8950119z" fill-rule="evenodd"/><path fill="#ffffff" d="m297.5643 68.55905l-6.690277 10.8845215l6.690277 3.994751l1.0997314 -1.897644l-4.2939453 -2.7952728l5.490814 -8.787399l-2.2966003 -1.3989563z" fill-rule="evenodd"/><path fill="#ffffff" d="m310.4462 79.244095c-0.099731445 0.2992096 -0.29922485 0.49868774 -0.3989563 0.8976364c-0.099731445 0.40157318 -0.5984192 1.8976364 -1.5984192 4.593178l-2.5957947 -1.994751c2.4960632 -1.8976364 3.994751 -2.9973755 4.59317 -3.4960632zm-0.29922485 -2.4960632l-11.183716 7.587929l2.3963318 1.7978973l2.4960632 -1.8976364l3.6955261 2.7952728l-1.0 2.9973755l2.2966003 1.6981659l3.994751 -12.981628l-2.6955566 -1.9973755z" fill-rule="evenodd"/><path fill="#ffffff" d="m319.63254 84.13648l-8.48819 9.485565l1.7979126 1.5984268l3.994751 -4.4934387c0.3989563 -0.5984268 1.1968384 -1.4986877 2.1968384 -2.895012l0 0l-2.1968384 10.884514l2.4960632 2.296585l8.48819 -9.48819l-1.7979126 -1.6955338l-3.994751 4.4934387c-0.49868774 0.49868774 -1.1968384 1.4960632 -2.1968384 2.7952728l2.1968384 -10.784775l-2.4960632 -2.1968536z" fill-rule="evenodd"/><path fill="#ffffff" d="m70.997375 124.27821c-1.0971146 0.79790497 -1.9973755 1.6981659 -2.5958023 2.7952805c-0.5984268 0.9999924 -0.9002609 2.0971146 -0.9002609 3.09449c0.20210266 1.1994629 0.40157318 2.097107 1.0 2.9973755c0.6981659 0.8976288 1.4986877 1.7978973 2.6955414 2.3963165c1.3280792 0.77952576 2.5957947 1.1942291 3.8005219 1.1942291c0.3359604 0 0.6666641 -0.03149414 0.99212646 -0.09710693c1.4986877 -0.29922485 2.7952728 -1.1968536 3.6955338 -2.795288c0.6981659 -1.1968384 1.0971146 -2.296585 1.1968536 -3.393692l-1.9973755 -1.0997467c-0.19947815 1.1994781 -0.49868774 2.2966003 -0.9973755 3.0944977c-0.551178 1.0498657 -1.3175812 1.551178 -2.3149567 1.551178c-0.8057785 0 -1.7611618 -0.3254547 -2.8766403 -0.9501343c-1.2992172 -0.80052185 -1.9973755 -1.4986877 -2.3963318 -2.3963165c-0.39894867 -0.8005371 -0.2992096 -1.6981659 0.19947815 -2.59581c0.2992096 -0.40157318 0.6981659 -0.7007828 0.79789734 -0.9002609c0.3989563 -0.39894867 0.90026855 -0.69815826 1.1994781 -0.9973755l-1.4986877 -1.8976364z" fill-rule="evenodd"/><path fill="#ffffff" d="m78.81628 117.13386c0.3018341 0 0.63517 0.086616516 0.96849823 0.35433197c0.49868774 0.39894867 0.6981659 0.69815826 0.6981659 1.196846c0 0.50131226 -0.19947815 1.0 -0.6981659 1.797905l-0.49868774 0.69815826l-2.7978973 -1.994751l0.50131226 -0.6010437c0.49868774 -0.6981659 0.8976364 -1.0971146 1.3963242 -1.3963242c0.13385773 -0.03412628 0.2782135 -0.055122375 0.43045044 -0.055122375zm0.24408722 -2.7217865c-0.30445862 0 -0.5984192 0.057746887 -0.8740158 0.18110657c-0.99736786 0.39894867 -1.9973679 1.2965851 -2.9947433 2.5958023l-2.1968536 2.9947433l10.485565 7.288719l1.4960632 -2.2965927l-3.994751 -2.6955338l0.9002609 -0.9973755l5.6902924 0.19947052l1.7978973 -2.4960632c-1.0971146 0 -3.2939606 0 -6.790024 -0.099731445c0.19947052 -0.90026855 0.19947052 -1.5984268 -0.099739075 -2.1968536c-0.19947815 -0.7007828 -0.5984268 -1.2992096 -1.1968536 -1.6981583c-0.7637787 -0.4855652 -1.5275574 -0.7795334 -2.2230988 -0.7795334z" fill-rule="evenodd"/><path fill="#ffffff" d="m85.7769 103.20998l-4.6955338 5.6902847l9.887138 8.089241l4.6929092 -5.593178l-1.7978973 -1.4960632l-2.895012 3.5931778l-2.4960632 -2.0971146l2.7952728 -3.3936996l-1.7978973 -1.3989487l-2.6955414 3.3963242l-2.0971146 -1.7978973l2.7952805 -3.5958023l-1.6955414 -1.3963242z" fill-rule="evenodd"/><path fill="#ffffff" d="m93.46457 97.71654c0.19947052 0 0.39894867 0.2992096 0.79789734 0.39894867c0.39894867 0.2992096 1.6981659 1.0 4.3936996 2.196846l-2.296585 2.3963318c-1.4960632 -2.5958023 -2.4960632 -4.293968 -2.895012 -4.9921265zm-0.29921722 -2.4960632l-2.296585 2.3963242l5.989502 12.0813675l1.9973755 -2.09449l-1.4960632 -2.698166l3.2939606 -3.3936996l2.7952805 1.3963242l1.9973755 -1.994751l-12.280846 -5.6929092z" fill-rule="evenodd"/><path fill="#ffffff" d="m105.34646 84.03674l-7.18898 6.391075l1.4986877 1.5984268l2.5958023 -2.3963242l6.989502 7.8871384l1.9973755 -1.7978973l-6.989502 -7.787407l2.5958023 -2.296585l-1.4986877 -1.5984268z" fill-rule="evenodd"/><path fill="#ffffff" d="m114.333336 77.04724l-5.889763 4.4934387l7.7873993 10.083992l5.8923874 -4.4934387l-1.2992096 -1.7952728l-3.7952805 2.895012l-1.8950119 -2.5958023l3.2939606 -2.5958023l-1.2992096 -1.7978973l-3.3936996 2.5958023l-1.797905 -2.1968536l3.7952805 -2.895012l-1.3989487 -1.6981659z" fill-rule="evenodd"/><path fill="#ffffff" d="m81.3832 293.92914l-8.089241 10.782135l1.5984268 2.3963318l12.979004 -3.6929016l-1.4960632 -2.196869l-7.490814 2.3963318c-1.3963242 0.29922485 -2.1942215 0.69818115 -2.6955338 0.9973755c0.099731445 -0.19946289 0.50131226 -0.3989563 0.80052185 -0.89764404c0.39894867 -0.49868774 0.79789734 -0.8976135 0.9973755 -1.2991943l4.8923874 -6.1889954l-1.4960632 -2.2965698z" fill-rule="evenodd"/><path fill="#ffffff" d="m89.46982 305.41208l-9.984253 7.9868774l4.593178 5.792633l1.6981583 -1.4986877l-2.8976364 -3.5957947l2.5958023 -1.994751l2.7978973 3.2939758l1.6955414 -1.2992249l-2.6955414 -3.3937073l2.1968536 -1.7978821l2.895012 3.6955261l1.6981659 -1.3989563l-4.593178 -5.7900085z" fill-rule="evenodd"/><path fill="#ffffff" d="m96.75853 317.3937l0.50131226 0.5984192c0.49868774 0.70077515 0.8976364 1.1994629 0.9973755 1.6981506c0.099739075 0.49868774 0 0.9973755 -0.49868774 1.2992249c-0.29658508 0.37008667 -0.64829254 0.5747986 -1.0131226 0.5747986c-0.1286087 0 -0.2572174 -0.026245117 -0.3858261 -0.07611084c-0.49868774 -0.099731445 -0.9973755 -0.49868774 -1.5958023 -1.0997314l-0.7007828 -0.5984192l2.6955338 -2.3963318zm-0.39894867 -3.2966003l-9.385826 8.587921l1.8976364 1.9973755l3.5931778 -3.3936768l0.9002609 1.0971069l-1.4986877 5.4934387l1.9973755 2.2965698c0.19947815 -1.0 0.79789734 -3.1968384 1.4986877 -6.490814c0.50393677 0.21524048 1.0577393 0.3779602 1.5905533 0.3779602c0.20734406 0 0.40944672 -0.023620605 0.6062927 -0.07873535c0.79790497 0 1.3963318 -0.29922485 1.897644 -0.8005371c0.8976364 -0.8976135 1.3963242 -1.894989 1.2965851 -2.894989c0 -1.0971375 -0.79789734 -2.2966003 -1.8976364 -3.4934387l-2.4960632 -2.6981812z" fill-rule="evenodd"/><path fill="#ffffff" d="m105.24672 323.18372l-8.787399 9.188995l1.9973755 1.8950195l8.787399 -9.186371l-1.9973755 -1.897644z" fill-rule="evenodd"/><path fill="#ffffff" d="m110.438324 327.87927l-8.186356 9.7847595l1.9973755 1.6981812l3.4934387 -3.795288l3.1968536 2.6955566l1.3963242 -1.5984497l-3.1942291 -2.7952576l2.0971146 -2.4960632l3.4934387 2.994751l1.3989487 -1.6955566l-5.6929092 -4.792633z" fill-rule="evenodd"/><path fill="#ffffff" d="m117.62992 333.66928l-1.2992096 8.887146l-2.8950195 3.994751l2.1968536 1.5957947l2.7952728 -3.9921265l7.989502 -3.894989l-2.296585 -1.6981812l-5.2939606 2.6955566l1.0997314 -5.8897705l-2.296585 -1.6981812z" fill-rule="evenodd"/><path fill="#ffffff" d="m584.8425 358.93176l-3.4934692 1.0l-0.39892578 10.283447l-5.493469 -8.587921l-3.4934082 1.0l3.2939453 12.181122l2.3963623 -0.5984497l-1.4960938 -5.792633c-0.19946289 -0.5984192 -0.6010132 -1.994751 -1.2991943 -3.7926636l0.19946289 0l5.5932007 8.787415l1.994751 -0.8005371l0.6010132 -10.482941l0.19946289 0c0.29925537 1.4960632 0.39898682 2.4960632 0.5984497 2.795288c0.099731445 0.3989563 0.099731445 0.7978821 0.19946289 0.9973755l1.6981812 5.892395l2.2965698 -0.5984497l-3.3963013 -12.283447z" fill-rule="evenodd"/><path fill="#ffffff" d="m596.1522 357.50656c1.3963623 0 2.4882202 1.010498 3.2703247 3.123352c0.9973755 2.5957947 0.49871826 4.293976 -1.4986572 5.091858c-0.46984863 0.18899536 -0.92126465 0.2887268 -1.3464355 0.2887268c-0.47772217 0 -0.9265137 -0.12335205 -1.3491211 -0.38845825c-0.6981201 -0.49868774 -1.2991943 -1.3963318 -1.7979126 -2.7952576c-0.49865723 -1.2992249 -0.6981201 -2.4960632 -0.39892578 -3.1942444c0.19946289 -0.90026855 0.89764404 -1.4986877 1.897644 -1.897644c0.43041992 -0.15222168 0.8399048 -0.22833252 1.2230835 -0.22833252zm0.56170654 -2.5695496c-0.78741455 0 -1.6351929 0.2020874 -2.5827026 0.6010437c-1.897644 0.69815063 -2.9973755 1.7979126 -3.5957642 3.1942139c-0.5984497 1.4986877 -0.49871826 3.0971375 0.19946289 5.0918884c0.7979126 1.9973755 1.897644 3.3963013 3.2965698 3.994751c0.69818115 0.39892578 1.4225464 0.5984192 2.1942139 0.5984192c0.774292 0 1.5984497 -0.19949341 2.4987183 -0.5984192c1.8950195 -0.69818115 2.994751 -1.7979126 3.692871 -3.1942444c0.6010742 -1.4986877 0.49871826 -3.097107 -0.29919434 -5.091858c-0.89764404 -1.9973755 -1.897644 -3.2966003 -3.1942139 -3.994751c-0.70080566 -0.3989563 -1.4225464 -0.6010437 -2.209961 -0.6010437z" fill-rule="evenodd"/><path fill="#ffffff" d="m612.80316 346.8504l-2.097107 1.1968384l2.795288 5.293976c0.29919434 0.69815063 0.79785156 1.6981506 1.6981201 3.1942139l-9.18634 -5.989502l-2.994751 1.4960632l5.6903076 11.283478l2.1968384 -1.0971375l-2.795288 -5.3936768c-0.19946289 -0.5984497 -0.90026855 -1.5958252 -1.6981812 -3.094513l0.09979248 0l9.18634 6.0918884l3.1968384 -1.4986877l-6.091858 -11.482941z" fill-rule="evenodd"/><path fill="#ffffff" d="m619.0945 343.45407l-2.3963013 1.3989563l6.488159 10.984253l2.3963623 -1.2992249l-6.48822 -11.083984z" fill-rule="evenodd"/><path fill="#ffffff" d="m629.57745 336.66403l-7.9868774 5.3937073l1.2965698 1.7979126l2.7979126 -1.9973755l5.8897705 8.687653l2.2965698 -1.4986877l-5.8897705 -8.48819l2.8950195 -1.9973755l-1.2991943 -1.897644z" fill-rule="evenodd"/><path fill="#ffffff" d="m639.2021 332.2546c1.0498657 0 2.097107 0.6719055 3.2572021 2.0131226c1.897644 2.2965698 1.897644 3.994751 0.19952393 5.3936768c-0.51708984 0.5144348 -1.1417236 0.81365967 -1.7952881 0.81365967c-0.23095703 0 -0.46722412 -0.036743164 -0.70080566 -0.115478516c-0.7979126 -0.19949341 -1.6981812 -0.7979126 -2.5957642 -1.9973755c-0.90026855 -1.0971069 -1.3989868 -2.097107 -1.5984497 -2.994751c0 -0.7979126 0.39892578 -1.6981812 1.1994629 -2.2966003c0.69818115 -0.54330444 1.3674927 -0.81625366 2.0341187 -0.81625366zm0.71917725 -2.5223389c-1.2860718 0 -2.56958 0.5144348 -3.8530273 1.5407104c-1.4986572 1.2991943 -2.1968384 2.5957947 -2.3963013 4.0944824c-0.099731445 1.4986877 0.49865723 3.1942139 1.897644 4.792633c1.2965698 1.5984497 2.795227 2.4960632 4.194214 2.6955566c0.29919434 0.057739258 0.59051514 0.083984375 0.87927246 0.083984375c1.2493286 0 2.4146729 -0.5275574 3.7138672 -1.5826721c1.3963623 -1.1968689 2.1968994 -2.5957947 2.2966309 -4.091858c0.19946289 -1.4986877 -0.49871826 -3.0971375 -1.897644 -4.692932c-1.2992554 -1.7978821 -2.6955566 -2.6981506 -4.194214 -2.797882c-0.21264648 -0.026275635 -0.42785645 -0.042022705 -0.6404419 -0.042022705z" fill-rule="evenodd"/><path fill="#ffffff" d="m649.3779 323.12073c0.38586426 0 0.7585449 0.25198364 1.0682373 0.56430054c0.30187988 0.29922485 0.6010742 0.89764404 0.5013428 1.2966003c0 0.6010437 -0.39892578 1.0 -1.0 1.6981506l-0.5984497 0.5984497l-2.4960327 -2.3963318l0.5983887 -0.5984192c0.5984497 -0.5984497 1.0997925 -0.9973755 1.5984497 -1.099762c0.11022949 -0.041992188 0.21783447 -0.06298828 0.32806396 -0.06298828zm0.3701172 -2.6456604c-0.099731445 0 -0.19946289 0.0026245117 -0.29925537 0.013122559c-0.9973755 0.19946289 -2.097107 0.8005371 -3.3936768 1.9973755l-2.5984497 2.6955261l8.887146 9.086639l1.7979126 -1.8950195l-3.2939453 -3.4960632l1.0971069 -0.9973755l5.5932007 1.3963318l2.097107 -2.0971375c-1.0 -0.29919434 -3.1968994 -0.69815063 -6.590576 -1.3963013c0.29919434 -0.8005371 0.39892578 -1.4986877 0.29919434 -2.2966003c-0.19946289 -0.70077515 -0.49865723 -1.2992249 -1.0 -1.7979126c-0.8083496 -0.8083801 -1.6981201 -1.2125854 -2.5957642 -1.2125854z" fill-rule="evenodd"/><path fill="#ffffff" d="m290.27298 348.56955c0.1338501 0 0.2677002 0.023620605 0.4015503 0.07873535c0.49868774 0.099731445 0.90026855 0.49868774 1.1994934 0.9973755c0.19946289 0.49868774 0.29919434 1.0 0.099731445 1.4986877c-0.099731445 0.3989563 -0.5984192 0.89764404 -1.3989563 1.1968689l-0.69815063 0.4015503l-1.897644 -3.097107l1.0997314 -0.5984192c0.43832397 -0.2939453 0.8215332 -0.47769165 1.1942444 -0.47769165zm0.90548706 -2.690277c-0.8739929 0 -1.8083801 0.25982666 -2.8005066 0.8713989l-3.6929321 1.8976135l5.989502 11.183746l2.3963318 -1.1994934l-2.097107 -3.994751l1.0 -0.49868774c1.3963318 -0.7978821 2.3963318 -1.5984192 2.6955261 -2.5957947c0.3989563 -0.9973755 0.29922485 -2.1968384 -0.29919434 -3.3963318c-0.69818115 -1.2965698 -1.4986877 -1.894989 -2.3963318 -2.1942139c-0.25985718 -0.04724121 -0.52493286 -0.07348633 -0.7952881 -0.07348633z" fill-rule="evenodd"/><path fill="#ffffff" d="m300.1601 342.05774l0.70080566 0.5984192c0.19946289 0.19949341 1.3963318 1.1994934 3.6929016 3.094513l-2.6955261 1.6981506c-0.89764404 -2.795288 -1.3963318 -4.6929016 -1.6981812 -5.391083zm0.30184937 -2.4960632l-2.7979126 1.6955566l3.2966003 13.280823l2.4960632 -1.6955261l-0.90026855 -2.9973755l3.8950195 -2.4960632l2.3963318 1.9973755l2.2965698 -1.5984497l-10.682404 -8.18634z" fill-rule="evenodd"/><path fill="#ffffff" d="m313.74014 330.2756c-1.2965698 0.39892578 -2.4960632 0.8976135 -3.4934387 1.5957947c-1.0 0.8005066 -1.5984192 1.5984192 -1.9973755 2.5957947c-0.29919434 1.0 -0.49865723 1.9973755 -0.19946289 3.1968384c0.19946289 1.0971375 0.69815063 2.196869 1.5984192 3.1942444c1.2966003 1.5984192 2.5957947 2.5957947 4.091858 2.897644c0.34384155 0.0892334 0.6798096 0.1338501 1.0131531 0.1338501c1.1286011 0 2.225708 -0.5091858 3.3805542 -1.433075c1.0 -0.69815063 1.897644 -1.5984192 2.3963318 -2.5957947l-1.3963318 -1.6981812c-0.69815063 1.099762 -1.2991943 1.9973755 -2.097107 2.4960632c-0.5826721 0.47506714 -1.1915894 0.7086792 -1.8136597 0.7086792c-1.0813599 0 -2.2020874 -0.7113037 -3.2781982 -2.1049805c-0.8005371 -1.0 -1.2992249 -1.9973755 -1.2992249 -2.9973755c-0.099731445 -0.9973755 0.3989563 -1.6955566 1.1994934 -2.3963318c0.29919434 -0.3989563 0.69815063 -0.49868774 1.0971069 -0.9973755l1.4986877 -0.3989563l-0.70080566 -2.1968384z" fill-rule="evenodd"/><path fill="#ffffff" d="m323.52756 320.9895l-2.2966003 2.0944824l0.3989563 5.3937073l0.29922485 1.897644l0 0l-3.994751 -4.1942444l-1.9973755 1.897644l8.587921 9.286102l1.9973755 -1.7979126l-3.0944824 -3.3963318l0.19946289 -1.3963013l6.091858 1.5984192l2.2966003 -2.097107l-7.8897705 -2.0971375l-0.5984192 -7.188965z" fill-rule="evenodd"/><path fill="#ffffff" d="m329.6168 317.09448c0.10235596 0.099731445 0.4015808 0.19949341 0.8005371 0.29922485c0.19946289 0.19946289 1.6981506 0.7978821 4.2939453 1.9973755l-2.097107 2.4960632c-1.5984192 -2.5957947 -2.5957947 -4.1942444 -2.9973755 -4.7926636zm-0.49868774 -2.6955261l-2.1968384 2.4960632l6.490814 11.881897l1.9973755 -2.0971375l-1.6981812 -2.7952576l3.196869 -3.4960632l2.7952576 1.3989563l1.897644 -2.0971375l-12.482941 -5.291321z" fill-rule="evenodd"/><path fill="#ffffff" d="m340.10236 301.81628c-1.0971069 0.5984192 -2.097107 1.4986877 -2.8950195 2.4960632c-1.1994629 1.7978821 -1.6981506 3.3963013 -1.3989258 4.9921265c0.099731445 1.5984192 1.0997314 2.9973755 2.6955261 4.2939453c1.4829407 1.112854 3.0524902 1.7086792 4.4671936 1.7086792c0.11022949 0 0.22045898 -0.0026245117 0.32809448 -0.010498047c1.3963013 -0.09976196 2.7952576 -0.9973755 3.8923645 -2.4960632c0.49868774 -0.5984497 0.90026855 -1.1994934 1.2992249 -1.897644c0.3989563 -0.69818115 0.7979126 -1.2966003 0.9973755 -2.196869l-5.1915894 -3.994751l-2.994751 3.994751l1.5957947 1.3989563l1.4986877 -1.897644l2.097107 1.5984497c-0.29922485 0.49868774 -0.49868774 0.9973755 -0.89764404 1.4960632c-0.6010437 0.90023804 -1.4986877 1.3989258 -2.3989563 1.3989258c-0.7978821 0 -1.7952576 -0.39892578 -2.994751 -1.2991943c-0.9973755 -0.69818115 -1.5984192 -1.6955566 -1.7978821 -2.6955566c-0.29922485 -1.0971069 0 -2.097107 0.70077515 -2.994751c0.49868774 -0.8005066 1.3963318 -1.3989258 2.2966003 -1.8976135l-1.2992249 -1.9973755z" fill-rule="evenodd"/><path fill="#ffffff" d="m345.89502 291.83203l-3.8950195 6.2886963l10.685028 6.6903076l3.892395 -6.1889954l-1.8950195 -1.2991943l-2.4986877 3.894989l-2.6955261 -1.7978821l2.1968384 -3.5957947l-1.7978821 -1.0971375l-2.2966003 3.5958252l-2.3963318 -1.4986877l2.4960632 -3.8950195l-1.7952576 -1.0971069z" fill-rule="evenodd"/><path fill="#ffffff" d="m643.13385 83.874016c-0.6929321 0 -1.333313 0.17847443 -1.9737549 0.561676c-0.9973755 0.3989563 -1.7952881 1.1994781 -2.6955566 2.1968536c-1.3963013 1.5984268 -1.9973755 3.0971146 -1.9973755 4.593178c0 1.4986877 0.70080566 2.7978973 2.097168 3.994751c1.0 0.8976364 1.9973755 1.3989487 3.097107 1.7978973l1.4960327 -1.7978973c-1.1968384 -0.49868774 -2.1968384 -0.9973755 -2.795288 -1.5984268c-1.6981201 -1.3963242 -1.4986572 -3.1942291 0.29925537 -5.391075c0.90026855 -0.9973755 1.897644 -1.5984268 2.795227 -1.797905c0.24151611 -0.07873535 0.47509766 -0.11810303 0.7034302 -0.11810303c0.6246948 0 1.2099609 0.2782135 1.7952881 0.71652985c0.39892578 0.20210266 0.5984497 0.60105133 0.69818115 1.3989487c0.29919434 0.29921722 0.49865723 0.79790497 0.79785156 1.2992172l2.097168 -1.0997391c-0.49871826 -1.1968536 -1.2966309 -2.3963242 -2.2966309 -3.09449c-0.89764404 -0.9002609 -1.9973755 -1.3989487 -2.8950195 -1.4986877c-0.43041992 -0.10761261 -0.8345947 -0.16272736 -1.2230835 -0.16272736z" fill-rule="evenodd"/><path fill="#ffffff" d="m653.4173 95.10499c0.80578613 0 1.5958252 0.3858261 2.2231445 1.0131226c1.5983887 1.5984268 1.2965698 3.3963242 -0.70080566 5.3936996c-1.1810913 1.1259842 -2.2703247 1.6824188 -3.2624512 1.6824188c-0.76641846 0 -1.4750977 -0.33071136 -2.128601 -0.9842529c-0.69818115 -0.6981659 -0.9973755 -1.5984268 -0.89764404 -2.4960632c0.19946289 -0.8976364 0.79785156 -1.8976364 1.795227 -2.7952805c1.0 -1.0 1.9973755 -1.5984192 2.6981812 -1.7978973c0.09185791 -0.010498047 0.18371582 -0.01574707 0.27294922 -0.01574707zm-0.4724121 -2.4803162c-1.6981812 0 -3.1968384 0.79789734 -4.692932 2.296585c-1.3989258 1.3989563 -2.1968384 2.8950195 -2.2965698 4.4934387c0 1.4986877 0.5984497 2.994751 1.994751 4.293968c1.3989258 1.3963242 2.7979126 1.9973755 4.2939453 1.9973755c1.6981812 0 3.1968384 -0.7007904 4.692932 -2.1968536c1.4986572 -1.4986877 2.3963013 -2.9973755 2.3963013 -4.4934387c0 -1.4986877 -0.6981201 -2.9973755 -2.0944824 -4.3936996c-1.2991943 -1.3989487 -2.7979126 -1.9973755 -4.2939453 -1.9973755z" fill-rule="evenodd"/><path fill="#ffffff" d="m664.9265 102.908134l-9.986877 7.7900314l1.4986572 1.8976364l4.692932 -3.6955414c0.5984497 -0.39894867 1.4987183 -1.2965851 2.795288 -2.3963242l0 0l-4.1915894 10.385826l2.1968384 2.6955414l9.984253 -7.989502l-1.4987183 -1.8976364l-4.7926025 3.7952728c-0.49871826 0.39894867 -1.3963623 1.0997391 -2.5958252 2.1968536l3.994751 -10.183731l-2.097107 -2.5984268z" fill-rule="evenodd"/><path fill="#ffffff" d="m674.91077 115.88976l-10.482971 7.089241l1.4960938 2.196846l3.994751 -2.7952728l2.2965698 3.5958023l1.897644 -1.2992172l-2.3963013 -3.5957947l2.795288 -1.8950195l2.5957642 3.892395l1.897644 -1.1968536l-4.0944824 -5.9921265z" fill-rule="evenodd"/><path fill="#ffffff" d="m681.40155 125.67454l-10.984253 6.490822l1.3989868 2.3963165l10.8845215 -6.4881897l-1.2992554 -2.3989487z" fill-rule="evenodd"/><path fill="#ffffff" d="m682.9055 133.92389c-1.123352 0 -2.2886963 0.33332825 -3.5013428 0.939621c-1.897583 0.7979126 -3.1942139 2.0944977 -3.692871 3.4934387c-0.5013428 1.4986877 -0.29925537 2.994751 0.49865723 4.692917l1.1968384 1.897644c0.30187988 0.5984192 0.8005371 1.1968536 1.4987183 1.8976288l5.7926636 -2.9973755l-2.1968384 -4.490814l-2.097168 1.0971222l1.097168 2.097107l-2.3963623 1.2965851c-0.19946289 -0.49868774 -0.5983887 -0.9973755 -0.89764404 -1.4960632c-0.49865723 -1.0 -0.49865723 -1.8976288 -0.099731445 -2.7952728c0.49871826 -0.9002533 1.2965698 -1.5984192 2.4960938 -2.1968536c0.7191162 -0.4593048 1.4802856 -0.65878296 2.2020874 -0.65878296c0.3805542 0 0.7480469 0.055114746 1.0918579 0.1574707c1.0997314 0.19947815 1.7979126 1.0 2.2965698 1.9973755c0.40161133 0.8005371 0.70080566 1.7979126 0.70080566 2.7979126l2.2965698 -0.102371216c-0.099731445 -1.3963165 -0.29919434 -2.5957947 -1.0 -3.6929169c-0.9973755 -1.8976288 -2.1968384 -3.1968384 -3.6929321 -3.6955261c-0.52227783 -0.16273499 -1.0524902 -0.23884583 -1.5931396 -0.23884583z" fill-rule="evenodd"/><path fill="#ffffff" d="m692.0866 146.14436l-7.5879517 2.9973755c-1.3989258 0.49868774 -2.2965698 1.3963165 -2.7978516 2.4960632c-0.29925537 1.1968384 -0.29925537 2.4960632 0.29919434 3.994751c0.4015503 0.9973755 0.90026855 1.7952728 1.4986572 2.3963165c0.5984497 0.59843445 1.3989868 0.9973755 2.097168 1.0971222c0.2230835 0.055114746 0.446167 0.08135986 0.671875 0.08135986c0.5800781 0 1.1758423 -0.1653595 1.8241577 -0.38058472l7.6903076 -2.994751l-0.70080566 -2.3963165l-7.188965 2.7952728c-0.5984497 0.26509094 -1.1102295 0.3989563 -1.5905762 0.3989563c-0.23883057 0 -0.4724121 -0.03413391 -0.70599365 -0.099746704c-0.5984497 -0.099731445 -0.9973755 -0.5984192 -1.2992554 -1.4986877c-0.39892578 -0.8976288 -0.39892578 -1.5957947 -0.19946289 -2.097107c0.30181885 -0.6981659 0.90026855 -0.9973755 1.7979126 -1.3963318l7.188965 -2.8950043l-0.9973755 -2.4986877z" fill-rule="evenodd"/><path fill="#ffffff" d="m696.08136 164.1181l0.29919434 0.8005371c0.19952393 0.79789734 0.19952393 1.4960632 0.099731445 1.9973755c-0.099731445 0.49868774 -0.39892578 0.8976288 -1.0 0.9973755c-0.14959717 0.026245117 -0.2913208 0.036743164 -0.43041992 0.036743164c-0.41204834 0 -0.76641846 -0.11024475 -1.0656128 -0.33596802c-0.49871826 -0.39894104 -0.70080566 -0.8976288 -1.0 -1.6981506l-0.19946289 -0.89764404l3.2965698 -0.90026855zm1.2965698 -3.2939606l-12.280823 3.59581l0.7979126 2.5957947l4.692932 -1.3989563l0.39892578 1.4986877l-3.892395 4.293976l0.89764404 2.7952728c0.5984497 -0.6981659 1.9973755 -2.4960632 4.194214 -5.091873c0.49871826 0.59843445 1.1994629 0.9973755 1.7979126 1.2966003c0.34906006 0.099731445 0.69818115 0.14959717 1.0472412 0.14959717c0.34906006 0 0.70080566 -0.049865723 1.0498657 -0.14959717c1.2965698 -0.3989563 1.9973755 -0.9973755 2.3963013 -1.9973755c0.39898682 -0.9973755 0.39898682 -2.3963318 -0.099731445 -3.9921265l-1.0 -3.59581z" fill-rule="evenodd"/><path fill="#ffffff" d="m701.0735 174.30446l-12.48291 2.59581l1.4986572 7.0892334l2.2965698 -0.3989563l-0.9973755 -4.4934387l3.194275 -0.5984192l0.897583 4.2939606l2.097168 -0.50131226l-0.7979126 -4.291336l2.6954956 -0.6010437l1.0 4.4934387l2.097168 -0.49868774l-1.4987183 -7.0892487z" fill-rule="evenodd"/></g></svg>