<svg version="1.1" viewBox="0.0 0.0 714.7900262467192 383.01574803149606" fill="none" stroke="none" stroke-linecap="square" stroke-miterlimit="10" xmlns:xlink="http://www.w3.org/1999/xlink" xmlns="http://www.w3.org/2000/svg"><clipPath id="p.0"><path d="m0 0l714.79004 0l0 383.01575l-714.79004 0l0 -383.01575z" clip-rule="nonzero"/></clipPath><g clip-path="url(#p.0)"><path fill="#000000" fill-opacity="0.0" d="m0 0l714.79004 0l0 383.01575l-714.79004 0z" fill-rule="evenodd"/><path fill="#0090ff" fill-opacity="0.4549" d="m4.612299 190.43433l0 0c0 -103.61211 83.9942 -187.60631 187.6063 -187.60631l0 0c49.756287 0 97.47467 19.765608 132.65768 54.948612c35.183014 35.183006 54.94861 82.901405 54.94861 132.65768l0 0c0 103.61209 -83.9942 187.6063 -187.6063 187.6063l0 0c-103.6121 0 -187.6063 -83.9942 -187.6063 -187.6063z" fill-rule="evenodd"/><path fill="#ff5500" fill-opacity="0.4549" d="m334.64905 190.43433l0 0c0 -103.61211 83.9942 -187.60631 187.60632 -187.60631l0 0c49.756287 0 97.47467 19.765608 132.65765 54.948612c35.182983 35.183006 54.94861 82.901405 54.94861 132.65768l0 0c0 103.61209 -83.9942 187.6063 -187.60626 187.6063l0 0c-103.61212 0 -187.60632 -83.9942 -187.60632 -187.6063z" fill-rule="evenodd"/><path fill="#000000" fill-opacity="0.0" d="m17.71466 101.55243l317.00787 0l0 177.7638l-317.00787 0z" fill-rule="evenodd"/><path fill="#000000" d="m112.269005 173.27243l0 -46.765625l16.109383 0q5.453125 0 8.3125 0.671875q4.03125 0.921875 6.859375 3.34375q3.703125 3.125 5.53125 8.0q1.84375 4.859375 1.84375 11.109375q0 5.328125 -1.25 9.453125q-1.234375 4.109375 -3.1875 6.8125q-1.9375 2.6875 -4.25 4.234375q-2.3125 1.546875 -5.59375 2.34375q-3.265625 0.796875 -7.5 0.796875l-16.875008 0zm6.1875 -5.515625l9.984383 0q4.625 0 7.25 -0.859375q2.625 -0.859375 4.203125 -2.421875q2.1875 -2.203125 3.421875 -5.921875q1.234375 -3.71875 1.234375 -9.015625q0 -7.328125 -2.421875 -11.265625q-2.40625 -3.953125 -5.84375 -5.28125q-2.484375 -0.96875 -8.015625 -0.96875l-9.812508 0l0 35.734375zm62.34977 1.34375q-3.1875 2.703125 -6.140625 3.828125q-2.9375 1.109375 -6.328125 1.109375q-5.578125 0 -8.578125 -2.71875q-3.0 -2.734375 -3.0 -6.984375q0 -2.484375 1.125 -4.53125q1.140625 -2.0625 2.96875 -3.296875q1.84375 -1.25 4.140625 -1.890625q1.6875 -0.453125 5.09375 -0.859375q6.953125 -0.828125 10.25 -1.984375q0.03125 -1.1875 0.03125 -1.5q0 -3.5 -1.625 -4.9375q-2.203125 -1.953125 -6.546875 -1.953125q-4.046875 0 -5.984375 1.421875q-1.921875 1.421875 -2.84375 5.015625l-5.625 -0.765625q0.765625 -3.59375 2.515625 -5.8125q1.765625 -2.21875 5.078125 -3.40625q3.328125 -1.203125 7.6875 -1.203125q4.34375 0 7.046875 1.03125q2.71875 1.015625 3.984375 2.5625q1.28125 1.546875 1.796875 3.90625q0.28125 1.46875 0.28125 5.296875l0 7.65625q0 8.0 0.359375 10.125q0.375 2.109375 1.46875 4.0625l-6.0 0q-0.890625 -1.78125 -1.15625 -4.171875zm-0.46875 -12.828125q-3.125 1.28125 -9.375 2.171875q-3.546875 0.5 -5.015625 1.140625q-1.46875 0.640625 -2.265625 1.875q-0.796875 1.21875 -0.796875 2.71875q0 2.296875 1.734375 3.828125q1.75 1.53125 5.09375 1.53125q3.3125 0 5.890625 -1.453125q2.59375 -1.453125 3.8125 -3.96875q0.921875 -1.9375 0.921875 -5.734375l0 -2.109375zm27.238647 11.859375l0.828125 5.078125q-2.421875 0.515625 -4.34375 0.515625q-3.125 0 -4.84375 -0.984375q-1.71875 -1.0 -2.421875 -2.609375q-0.703125 -1.609375 -0.703125 -6.78125l0 -19.484375l-4.21875 0l0 -4.46875l4.21875 0l0 -8.390625l5.703125 -3.4375l0 11.828125l5.78125 0l0 4.46875l-5.78125 0l0 19.8125q0 2.453125 0.296875 3.15625q0.3125 0.703125 1.0 1.125q0.6875 0.40625 1.96875 0.40625q0.953125 0 2.515625 -0.234375zm27.712738 0.96875q-3.1875 2.703125 -6.140625 3.828125q-2.9375 1.109375 -6.328125 1.109375q-5.578125 0 -8.578125 -2.71875q-3.0 -2.734375 -3.0 -6.984375q0 -2.484375 1.125 -4.53125q1.140625 -2.0625 2.96875 -3.296875q1.84375 -1.25 4.140625 -1.890625q1.6875 -0.453125 5.09375 -0.859375q6.953125 -0.828125 10.25 -1.984375q0.03125 -1.1875 0.03125 -1.5q0 -3.5 -1.625 -4.9375q-2.203125 -1.953125 -6.546875 -1.953125q-4.046875 0 -5.984375 1.421875q-1.921875 1.421875 -2.84375 5.015625l-5.625 -0.765625q0.765625 -3.59375 2.515625 -5.8125q1.765625 -2.21875 5.078125 -3.40625q3.328125 -1.203125 7.6875 -1.203125q4.34375 0 7.046875 1.03125q2.71875 1.015625 3.984375 2.5625q1.28125 1.546875 1.796875 3.90625q0.28125 1.46875 0.28125 5.296875l0 7.65625q0 8.0 0.359375 10.125q0.375 2.109375 1.46875 4.0625l-6.0 0q-0.890625 -1.78125 -1.15625 -4.171875zm-0.46875 -12.828125q-3.125 1.28125 -9.375 2.171875q-3.546875 0.5 -5.015625 1.140625q-1.46875 0.640625 -2.265625 1.875q-0.796875 1.21875 -0.796875 2.71875q0 2.296875 1.734375 3.828125q1.75 1.53125 5.09375 1.53125q3.3125 0 5.890625 -1.453125q2.59375 -1.453125 3.8125 -3.96875q0.921875 -1.9375 0.921875 -5.734375l0 -2.109375z" fill-rule="nonzero"/><path fill="#000000" d="m43.909622 241.56305l5.671875 -0.890625q0.484375 3.40625 2.65625 5.234375q2.1875 1.8125 6.109375 1.8125q3.96875 0 5.875 -1.609375q1.921875 -1.609375 1.921875 -3.78125q0 -1.953125 -1.703125 -3.0625q-1.171875 -0.765625 -5.859375 -1.953125q-6.328125 -1.59375 -8.765625 -2.75q-2.4375 -1.171875 -3.703125 -3.21875q-1.25 -2.0625 -1.25 -4.546875q0 -2.265625 1.03125 -4.1875q1.046875 -1.9375 2.828125 -3.21875q1.34375 -0.984375 3.65625 -1.671875q2.3125 -0.6875 4.953125 -0.6875q3.984375 0 7.0 1.15625q3.015625 1.140625 4.453125 3.109375q1.4375 1.953125 1.984375 5.234375l-5.625 0.765625q-0.375 -2.609375 -2.21875 -4.078125q-1.828125 -1.46875 -5.171875 -1.46875q-3.96875 0 -5.65625 1.3125q-1.6875 1.296875 -1.6875 3.0625q0 1.109375 0.703125 2.0q0.703125 0.9375 2.203125 1.53125q0.859375 0.328125 5.0625 1.46875q6.09375 1.625 8.5 2.671875q2.421875 1.03125 3.78125 3.015625q1.375 1.96875 1.375 4.90625q0 2.875 -1.671875 5.40625q-1.671875 2.53125 -4.828125 3.921875q-3.15625 1.390625 -7.15625 1.390625q-6.59375 0 -10.0625 -2.734375q-3.453125 -2.75 -4.40625 -8.140625zm57.054688 -2.296875l5.65625 0.734375q-0.921875 5.828125 -4.734375 9.140625q-3.8125 3.296875 -9.375 3.296875q-6.953125 0 -11.1875 -4.546875q-4.21875 -4.546875 -4.21875 -13.03125q0 -5.484375 1.8125 -9.59375q1.828125 -4.125 5.546875 -6.171875q3.71875 -2.0625 8.078125 -2.0625q5.53125 0 9.03125 2.796875q3.515625 2.78125 4.5 7.921875l-5.578125 0.859375q-0.796875 -3.40625 -2.828125 -5.125q-2.03125 -1.734375 -4.890625 -1.734375q-4.34375 0 -7.0625 3.109375q-2.703125 3.109375 -2.703125 9.84375q0 6.828125 2.609375 9.921875q2.625 3.09375 6.828125 3.09375q3.390625 0 5.65625 -2.078125q2.265625 -2.078125 2.859375 -6.375zm10.6015625 -27.75l0 -6.609375l5.734375 0l0 6.609375l-5.734375 0zm0 40.15625l0 -33.875l5.734375 0l0 33.875l-5.734375 0zm37.670074 -10.90625l5.921875 0.734375q-1.390625 5.203125 -5.1875 8.078125q-3.796875 2.859375 -9.703125 2.859375q-7.4375 0 -11.796875 -4.578125q-4.34375 -4.578125 -4.34375 -12.84375q0 -8.546875 4.40625 -13.265625q4.40625 -4.71875 11.421875 -4.71875q6.796875 0 11.09375 4.625q4.3125 4.625 4.3125 13.015625q0 0.515625 -0.03125 1.53125l-25.265625 0q0.3125 5.578125 3.15625 8.546875q2.84375 2.96875 7.078125 2.96875q3.15625 0 5.390625 -1.65625q2.234375 -1.65625 3.546875 -5.296875zm-18.859375 -9.28125l18.921875 0q-0.390625 -4.28125 -2.171875 -6.421875q-2.75 -3.3125 -7.109375 -3.3125q-3.953125 0 -6.65625 2.65625q-2.6875 2.640625 -2.984375 7.078125zm32.004272 20.1875l0 -33.875l5.15625 0l0 4.8125q3.734375 -5.578125 10.78125 -5.578125q3.0625 0 5.625 1.109375q2.578125 1.09375 3.84375 2.875q1.28125 1.78125 1.796875 4.25q0.3125 1.59375 0.3125 5.578125l0 20.828125l-5.734375 0l0 -20.609375q0 -3.5 -0.671875 -5.234375q-0.671875 -1.75 -2.375 -2.78125q-1.703125 -1.046875 -4.0 -1.046875q-3.671875 0 -6.34375 2.328125q-2.65625 2.328125 -2.65625 8.84375l0 18.5l-5.734375 0zm48.863647 -5.140625l0.828125 5.078125q-2.421875 0.515625 -4.34375 0.515625q-3.125 0 -4.84375 -0.984375q-1.71875 -1.0 -2.421875 -2.609375q-0.703125 -1.609375 -0.703125 -6.78125l0 -19.484375l-4.21875 0l0 -4.46875l4.21875 0l0 -8.390625l5.703125 -3.4375l0 11.828125l5.78125 0l0 4.46875l-5.78125 0l0 19.8125q0 2.453125 0.296875 3.15625q0.3125 0.703125 1.0 1.125q0.6875 0.40625 1.96875 0.40625q0.953125 0 2.515625 -0.234375zm5.6502533 -35.015625l0 -6.609375l5.734375 0l0 6.609375l-5.734375 0zm0 40.15625l0 -33.875l5.734375 0l0 33.875l-5.734375 0zm12.185699 -10.109375l5.671875 -0.890625q0.484375 3.40625 2.65625 5.234375q2.1875 1.8125 6.109375 1.8125q3.96875 0 5.875 -1.609375q1.921875 -1.609375 1.921875 -3.78125q0 -1.953125 -1.703125 -3.0625q-1.171875 -0.765625 -5.859375 -1.953125q-6.328125 -1.59375 -8.765625 -2.75q-2.4375 -1.171875 -3.703125 -3.21875q-1.25 -2.0625 -1.25 -4.546875q0 -2.265625 1.03125 -4.1875q1.046875 -1.9375 2.828125 -3.21875q1.34375 -0.984375 3.65625 -1.671875q2.3125 -0.6875 4.953125 -0.6875q3.984375 0 7.0 1.15625q3.015625 1.140625 4.453125 3.109375q1.4375 1.953125 1.984375 5.234375l-5.625 0.765625q-0.375 -2.609375 -2.21875 -4.078125q-1.828125 -1.46875 -5.171875 -1.46875q-3.96875 0 -5.65625 1.3125q-1.6875 1.296875 -1.6875 3.0625q0 1.109375 0.703125 2.0q0.703125 0.9375 2.203125 1.53125q0.859375 0.328125 5.0625 1.46875q6.09375 1.625 8.5 2.671875q2.421875 1.03125 3.78125 3.015625q1.375 1.96875 1.375 4.90625q0 2.875 -1.671875 5.40625q-1.671875 2.53125 -4.828125 3.921875q-3.15625 1.390625 -7.15625 1.390625q-6.59375 0 -10.0625 -2.734375q-3.453125 -2.75 -4.40625 -8.140625zm47.492188 4.96875l0.828125 5.078125q-2.421875 0.515625 -4.34375 0.515625q-3.125 0 -4.84375 -0.984375q-1.71875 -1.0 -2.421875 -2.609375q-0.703125 -1.609375 -0.703125 -6.78125l0 -19.484375l-4.21875 0l0 -4.46875l4.21875 0l0 -8.390625l5.703125 -3.4375l0 11.828125l5.78125 0l0 4.46875l-5.78125 0l0 19.8125q0 2.453125 0.296875 3.15625q0.3125 0.703125 1.0 1.125q0.6875 0.40625 1.96875 0.40625q0.953125 0 2.515625 -0.234375zm3.3221436 -4.96875l5.671875 -0.890625q0.484375 3.40625 2.65625 5.234375q2.1875 1.8125 6.109375 1.8125q3.96875 0 5.875 -1.609375q1.921875 -1.609375 1.921875 -3.78125q0 -1.953125 -1.703125 -3.0625q-1.171875 -0.765625 -5.859375 -1.953125q-6.328125 -1.59375 -8.765625 -2.75q-2.4375 -1.171875 -3.703125 -3.21875q-1.25 -2.0625 -1.25 -4.546875q0 -2.265625 1.03125 -4.1875q1.046875 -1.9375 2.828125 -3.21875q1.34375 -0.984375 3.65625 -1.671875q2.3125 -0.6875 4.953125 -0.6875q3.984375 0 7.0 1.15625q3.015625 1.140625 4.453125 3.109375q1.4375 1.953125 1.984375 5.234375l-5.625 0.765625q-0.375 -2.609375 -2.21875 -4.078125q-1.828125 -1.46875 -5.171875 -1.46875q-3.96875 0 -5.65625 1.3125q-1.6875 1.296875 -1.6875 3.0625q0 1.109375 0.703125 2.0q0.703125 0.9375 2.203125 1.53125q0.859375 0.328125 5.0625 1.46875q6.09375 1.625 8.5 2.671875q2.421875 1.03125 3.78125 3.015625q1.375 1.96875 1.375 4.90625q0 2.875 -1.671875 5.40625q-1.671875 2.53125 -4.828125 3.921875q-3.15625 1.390625 -7.15625 1.390625q-6.59375 0 -10.0625 -2.734375q-3.453125 -2.75 -4.40625 -8.140625z" fill-rule="nonzero"/><path fill="#000000" fill-opacity="0.0" d="m374.28683 101.55243l327.93704 0l0 177.7638l-327.93704 0z" fill-rule="evenodd"/><path fill="#000000" d="m412.291 158.24118l5.828125 -0.5q0.421875 3.5 1.9375 5.75q1.515625 2.25 4.703125 3.640625q3.1875 1.390625 7.171875 1.390625q3.546875 0 6.25 -1.046875q2.71875 -1.0625 4.03125 -2.890625q1.328125 -1.84375 1.328125 -4.015625q0 -2.1875 -1.28125 -3.828125q-1.265625 -1.65625 -4.203125 -2.765625q-1.875 -0.734375 -8.328125 -2.28125q-6.4375 -1.546875 -9.015625 -2.921875q-3.359375 -1.75 -5.0 -4.34375q-1.640625 -2.609375 -1.640625 -5.828125q0 -3.546875 2.0 -6.625q2.015625 -3.078125 5.875 -4.671875q3.859375 -1.59375 8.59375 -1.59375q5.1875 0 9.15625 1.671875q3.984375 1.671875 6.109375 4.9375q2.140625 3.25 2.296875 7.359375l-5.921875 0.453125q-0.484375 -4.4375 -3.25 -6.703125q-2.75 -2.265625 -8.140625 -2.265625q-5.609375 0 -8.1875 2.0625q-2.5625 2.0625 -2.5625 4.953125q0 2.53125 1.8125 4.15625q1.796875 1.625 9.328125 3.328125q7.546875 1.703125 10.359375 2.984375q4.078125 1.875 6.015625 4.765625q1.953125 2.890625 1.953125 6.65625q0 3.734375 -2.140625 7.03125q-2.125 3.296875 -6.140625 5.140625q-4.0 1.828125 -9.0 1.828125q-6.359375 0 -10.65625 -1.84375q-4.28125 -1.859375 -6.71875 -5.5625q-2.4375 -3.71875 -2.5625 -8.421875zm42.80774 -1.90625q0 -9.40625 5.234375 -13.9375q4.359375 -3.765625 10.640625 -3.765625q7.0 0 11.421875 4.578125q4.4375 4.578125 4.4375 12.640625q0 6.546875 -1.96875 10.296875q-1.953125 3.75 -5.703125 5.828125q-3.75 2.0625 -8.1875 2.0625q-7.109375 0 -11.5 -4.5625q-4.375 -4.5625 -4.375 -13.140625zm5.90625 0q0 6.5 2.828125 9.75q2.84375 3.234375 7.140625 3.234375q4.28125 0 7.109375 -3.25q2.84375 -3.265625 2.84375 -9.921875q0 -6.28125 -2.859375 -9.515625q-2.84375 -3.25 -7.09375 -3.25q-4.296875 0 -7.140625 3.21875q-2.828125 3.21875 -2.828125 9.734375zm33.926147 16.9375l0 -29.40625l-5.0625 0l0 -4.46875l5.0625 0l0 -3.609375q0 -3.40625 0.609375 -5.0625q0.828125 -2.234375 2.921875 -3.625q2.09375 -1.390625 5.859375 -1.390625q2.421875 0 5.359375 0.578125l-0.875 5.0q-1.78125 -0.3125 -3.375 -0.3125q-2.609375 0 -3.703125 1.125q-1.078125 1.109375 -1.078125 4.171875l0 3.125l6.59375 0l0 4.46875l-6.59375 0l0 29.40625l-5.71875 0zm29.322113 -5.140625l0.828125 5.078125q-2.421875 0.515625 -4.34375 0.515625q-3.125 0 -4.84375 -0.984375q-1.71875 -1.0 -2.421875 -2.609375q-0.703125 -1.609375 -0.703125 -6.78125l0 -19.484375l-4.21875 0l0 -4.46875l4.21875 0l0 -8.390625l5.703125 -3.4375l0 11.828125l5.78125 0l0 4.46875l-5.78125 0l0 19.8125q0 2.453125 0.296875 3.15625q0.3125 0.703125 1.0 1.125q0.6875 0.40625 1.96875 0.40625q0.953125 0 2.515625 -0.234375zm11.869019 5.140625l-10.375 -33.875l5.9375 0l5.390625 19.546875l2.015625 7.28125q0.125 -0.546875 1.75 -6.984375l5.390625 -19.84375l5.90625 0l5.0625 19.640625l1.6875 6.484375l1.953125 -6.546875l5.796875 -19.578125l5.59375 0l-10.59375 33.875l-5.96875 0l-5.390625 -20.28125l-1.3125 -5.78125l-6.84375 26.0625l-6.0 0zm63.021606 -4.171875q-3.1875 2.703125 -6.140625 3.828125q-2.9375 1.109375 -6.328125 1.109375q-5.578125 0 -8.578125 -2.71875q-3.0 -2.734375 -3.0 -6.984375q0 -2.484375 1.125 -4.53125q1.140625 -2.0625 2.96875 -3.296875q1.84375 -1.25 4.140625 -1.890625q1.6875 -0.453125 5.09375 -0.859375q6.953125 -0.828125 10.25 -1.984375q0.03125 -1.1875 0.03125 -1.5q0 -3.5 -1.625 -4.9375q-2.203125 -1.953125 -6.546875 -1.953125q-4.046875 0 -5.984375 1.421875q-1.921875 1.421875 -2.84375 5.015625l-5.625 -0.765625q0.765625 -3.59375 2.515625 -5.8125q1.765625 -2.21875 5.078125 -3.40625q3.328125 -1.203125 7.6875 -1.203125q4.34375 0 7.046875 1.03125q2.71875 1.015625 3.984375 2.5625q1.28125 1.546875 1.796875 3.90625q0.28125 1.46875 0.28125 5.296875l0 7.65625q0 8.0 0.359375 10.125q0.375 2.109375 1.46875 4.0625l-6.0 0q-0.890625 -1.78125 -1.15625 -4.171875zm-0.46875 -12.828125q-3.125 1.28125 -9.375 2.171875q-3.546875 0.5 -5.015625 1.140625q-1.46875 0.640625 -2.265625 1.875q-0.796875 1.21875 -0.796875 2.71875q0 2.296875 1.734375 3.828125q1.75 1.53125 5.09375 1.53125q3.3125 0 5.890625 -1.453125q2.59375 -1.453125 3.8125 -3.96875q0.921875 -1.9375 0.921875 -5.734375l0 -2.109375zm14.644897 17.0l0 -33.875l5.15625 0l0 5.140625q1.984375 -3.609375 3.65625 -4.75q1.671875 -1.15625 3.6875 -1.15625q2.90625 0 5.890686 1.84375l-1.968811 5.328125q-2.109375 -1.234375 -4.21875 -1.234375q-1.875 0 -3.375 1.140625q-1.5 1.125 -2.140625 3.125q-0.953125 3.0625 -0.953125 6.703125l0 17.734375l-5.734375 0zm45.00482 -10.90625l5.921875 0.734375q-1.390625 5.203125 -5.1875 8.078125q-3.796875 2.859375 -9.703125 2.859375q-7.4375 0 -11.796875 -4.578125q-4.34375 -4.578125 -4.34375 -12.84375q0 -8.546875 4.40625 -13.265625q4.40625 -4.71875 11.421875 -4.71875q6.796875 0 11.09375 4.625q4.3125 4.625 4.3125 13.015625q0 0.515625 -0.03125 1.53125l-25.265625 0q0.3125 5.578125 3.15625 8.546875q2.84375 2.96875 7.078125 2.96875q3.15625 0 5.390625 -1.65625q2.234375 -1.65625 3.546875 -5.296875zm-18.859375 -9.28125l18.921875 0q-0.390625 -4.28125 -2.171875 -6.421875q-2.75 -3.3125 -7.109375 -3.3125q-3.953125 0 -6.65625 2.65625q-2.6875 2.640625 -2.984375 7.078125z" fill-rule="nonzero"/><path fill="#000000" d="m422.2918 240.76617l5.921875 0.734375q-1.390625 5.203125 -5.1875 8.078125q-3.796875 2.859375 -9.703125 2.859375q-7.4375 0 -11.796875 -4.578125q-4.34375 -4.578125 -4.34375 -12.84375q0 -8.546875 4.40625 -13.265625q4.40625 -4.71875 11.421875 -4.71875q6.796875 0 11.09375 4.625q4.3125 4.625 4.3125 13.015625q0 0.515625 -0.03125 1.53125l-25.265625 0q0.3125 5.578125 3.15625 8.546875q2.84375 2.96875 7.078125 2.96875q3.15625 0 5.390625 -1.65625q2.234375 -1.65625 3.546875 -5.296875zm-18.859375 -9.28125l18.921875 0q-0.390625 -4.28125 -2.171875 -6.421875q-2.75 -3.3125 -7.109375 -3.3125q-3.953125 0 -6.65625 2.65625q-2.6875 2.640625 -2.984375 7.078125zm32.004272 20.1875l0 -33.875l5.15625 0l0 4.8125q3.734375 -5.578125 10.78125 -5.578125q3.0625 0 5.625 1.109375q2.578125 1.09375 3.84375 2.875q1.28125 1.78125 1.796875 4.25q0.3125 1.59375 0.3125 5.578125l0 20.828125l-5.734375 0l0 -20.609375q0 -3.5 -0.671875 -5.234375q-0.671875 -1.75 -2.375 -2.78125q-1.703125 -1.046875 -4.0 -1.046875q-3.671875 0 -6.34375 2.328125q-2.65625 2.328125 -2.65625 8.84375l0 18.5l-5.734375 0zm35.269897 2.8125l5.578125 0.828125q0.359375 2.578125 1.953125 3.765625q2.140625 1.59375 5.84375 1.59375q3.984375 0 6.140625 -1.59375q2.171875 -1.59375 2.9375 -4.46875q0.453125 -1.75 0.421875 -7.375q-3.765625 4.4375 -9.375 4.4375q-6.984375 0 -10.8125 -5.03125q-3.828125 -5.046875 -3.828125 -12.09375q0 -4.859375 1.75 -8.953125q1.75 -4.09375 5.078125 -6.328125q3.34375 -2.234375 7.84375 -2.234375q6.0 0 9.890625 4.84375l0 -4.078125l5.296875 0l0 29.28125q0 7.90625 -1.625 11.203125q-1.609375 3.3125 -5.109375 5.21875q-3.484375 1.921875 -8.578125 1.921875q-6.0625 0 -9.796875 -2.734375q-3.734375 -2.71875 -3.609375 -8.203125zm4.75 -20.359375q0 6.671875 2.640625 9.734375q2.65625 3.0625 6.640625 3.0625q3.96875 0 6.640625 -3.046875q2.6875 -3.046875 2.6875 -9.5625q0 -6.21875 -2.765625 -9.375q-2.765625 -3.15625 -6.65625 -3.15625q-3.828125 0 -6.515625 3.109375q-2.671875 3.109375 -2.671875 9.234375zm32.676147 -22.609375l0 -6.609375l5.734375 0l0 6.609375l-5.734375 0zm0 40.15625l0 -33.875l5.734375 0l0 33.875l-5.734375 0zm14.482605 0l0 -33.875l5.15625 0l0 4.8125q3.734375 -5.578125 10.78125 -5.578125q3.0625 0 5.625 1.109375q2.578125 1.09375 3.84375 2.875q1.28125 1.78125 1.796875 4.25q0.3125 1.59375 0.3125 5.578125l0 20.828125l-5.734375 0l0 -20.609375q0 -3.5 -0.671875 -5.234375q-0.671875 -1.75 -2.375 -2.78125q-1.703125 -1.046875 -4.0 -1.046875q-3.671875 0 -6.34375 2.328125q-2.65625 2.328125 -2.65625 8.84375l0 18.5l-5.734375 0zm59.519897 -10.90625l5.921875 0.734375q-1.390625 5.203125 -5.1875 8.078125q-3.796875 2.859375 -9.703125 2.859375q-7.4375 0 -11.796875 -4.578125q-4.34375 -4.578125 -4.34375 -12.84375q0 -8.546875 4.40625 -13.265625q4.40625 -4.71875 11.421875 -4.71875q6.796875 0 11.09375 4.625q4.3125 4.625 4.3125 13.015625q0 0.515625 -0.03125 1.53125l-25.265625 0q0.3125 5.578125 3.15625 8.546875q2.84375 2.96875 7.078125 2.96875q3.15625 0 5.390625 -1.65625q2.234375 -1.65625 3.546875 -5.296875zm-18.859375 -9.28125l18.921875 0q-0.390625 -4.28125 -2.171875 -6.421875q-2.75 -3.3125 -7.109375 -3.3125q-3.953125 0 -6.65625 2.65625q-2.6875 2.640625 -2.984375 7.078125zm55.191772 9.28125l5.921875 0.734375q-1.390625 5.203125 -5.1875 8.078125q-3.796875 2.859375 -9.703125 2.859375q-7.4375 0 -11.796875 -4.578125q-4.34375 -4.578125 -4.34375 -12.84375q0 -8.546875 4.40625 -13.265625q4.40625 -4.71875 11.421875 -4.71875q6.796875 0 11.09375 4.625q4.3125 4.625 4.3125 13.015625q0 0.515625 -0.03125 1.53125l-25.265625 0q0.3125 5.578125 3.15625 8.546875q2.84375 2.96875 7.078125 2.96875q3.15625 0 5.390625 -1.65625q2.234375 -1.65625 3.546875 -5.296875zm-18.859375 -9.28125l18.921875 0q-0.390625 -4.28125 -2.171875 -6.421875q-2.75 -3.3125 -7.109375 -3.3125q-3.953125 0 -6.65625 2.65625q-2.6875 2.640625 -2.984375 7.078125zm31.941772 20.1875l0 -33.875l5.15625 0l0 5.140625q1.984375 -3.609375 3.65625 -4.75q1.671875 -1.15625 3.6875 -1.15625q2.90625 0 5.890625 1.84375l-1.96875 5.328125q-2.109375 -1.234375 -4.21875 -1.234375q-1.875 0 -3.375 1.140625q-1.5 1.125 -2.140625 3.125q-0.953125 3.0625 -0.953125 6.703125l0 17.734375l-5.734375 0zm19.520386 -10.109375l5.671875 -0.890625q0.484375 3.40625 2.65625 5.234375q2.1875 1.8125 6.109375 1.8125q3.96875 0 5.875 -1.609375q1.921875 -1.609375 1.921875 -3.78125q0 -1.953125 -1.703125 -3.0625q-1.171875 -0.765625 -5.859375 -1.953125q-6.328125 -1.59375 -8.765625 -2.75q-2.4375 -1.171875 -3.703125 -3.21875q-1.25 -2.0625 -1.25 -4.546875q0 -2.265625 1.03125 -4.1875q1.046875 -1.9375 2.828125 -3.21875q1.34375 -0.984375 3.65625 -1.671875q2.3125 -0.6875 4.953125 -0.6875q3.984375 0 7.0 1.15625q3.015625 1.140625 4.453125 3.109375q1.4375 1.953125 1.984375 5.234375l-5.625 0.765625q-0.375 -2.609375 -2.21875 -4.078125q-1.828125 -1.46875 -5.171875 -1.46875q-3.96875 0 -5.65625 1.3125q-1.6875 1.296875 -1.6875 3.0625q0 1.109375 0.703125 2.0q0.703125 0.9375 2.203125 1.53125q0.859375 0.328125 5.0625 1.46875q6.09375 1.625 8.5 2.671875q2.421875 1.03125 3.78125 3.015625q1.375 1.96875 1.375 4.90625q0 2.875 -1.671875 5.40625q-1.671875 2.53125 -4.828125 3.921875q-3.15625 1.390625 -7.15625 1.390625q-6.59375 0 -10.0625 -2.734375q-3.453125 -2.75 -4.40625 -8.140625z" fill-rule="nonzero"/></g></svg>