<svg version="1.1" viewBox="0.0 0.0 515.6430446194225 216.16272965879264" fill="none" stroke="none" stroke-linecap="square" stroke-miterlimit="10" xmlns:xlink="http://www.w3.org/1999/xlink" xmlns="http://www.w3.org/2000/svg"><clipPath id="p.0"><path d="m0 0l515.64307 0l0 216.16273l-515.64307 0l0 -216.16273z" clip-rule="nonzero"/></clipPath><g clip-path="url(#p.0)"><path fill="#000000" fill-opacity="0.0" d="m0 0l515.64307 0l0 216.16273l-515.64307 0z" fill-rule="evenodd"/><path fill="#000000" d="m220.57086 127.34918l128.37796 0l0 66.39371l-128.37796 0z" fill-rule="evenodd"/><path stroke="#000000" stroke-width="3.0" stroke-linejoin="round" stroke-linecap="butt" d="m220.57086 127.34918l128.37796 0l0 66.39371l-128.37796 0z" fill-rule="evenodd"/><path fill="#ffffff" d="m235.36307 156.46603l0 -13.359375l9.15625 0l0 2.265625l-6.453125 0l0 3.15625l5.5625 0l0 2.265625l-5.5625 0l0 5.671875l-2.703125 0zm10.770981 -4.96875q0 -1.28125 0.625 -2.46875q0.625 -1.203125 1.78125 -1.828125q1.15625 -0.625 2.578125 -0.625q2.1875 0 3.59375 1.421875q1.4062347 1.421875 1.4062347 3.609375q0 2.1875 -1.4218597 3.640625q-1.421875 1.4375 -3.5625 1.4375q-1.328125 0 -2.546875 -0.59375q-1.203125 -0.609375 -1.828125 -1.765625q-0.625 -1.171875 -0.625 -2.828125zm2.625 0.125q0 1.453125 0.671875 2.21875q0.6875 0.75 1.6875 0.75q1.0 0 1.671875 -0.75q0.6875 -0.765625 0.6875 -2.234375q0 -1.421875 -0.6875 -2.1875q-0.671875 -0.765625 -1.671875 -0.765625q-1.0 0 -1.6875 0.765625q-0.671875 0.765625 -0.671875 2.203125zm15.724106 4.84375l0 -1.453125q-0.53125 0.78125 -1.390625 1.234375q-0.859375 0.4375 -1.8125 0.4375q-0.96875 0 -1.75 -0.421875q-0.765625 -0.4375 -1.125 -1.203125q-0.34375 -0.78125 -0.34375 -2.140625l0 -6.125l2.5625 0l0 4.4375q0 2.046875 0.140625 2.515625q0.140625 0.453125 0.515625 0.71875q0.375 0.265625 0.953125 0.265625q0.65625 0 1.171875 -0.359375q0.515625 -0.359375 0.703125 -0.890625q0.203125 -0.53125 0.203125 -2.609375l0 -4.078125l2.546875 0l0 9.671875l-2.375 0zm13.833466 0l-2.5625 0l0 -4.9375q0 -1.5625 -0.171875 -2.015625q-0.15625 -0.46875 -0.53125 -0.71875q-0.359375 -0.265625 -0.875 -0.265625q-0.671875 0 -1.203125 0.375q-0.53125 0.359375 -0.734375 0.96875q-0.1875 0.59375 -0.1875 2.21875l0 4.375l-2.546875 0l0 -9.671875l2.375 0l0 1.421875q1.265625 -1.640625 3.1875 -1.640625q0.84375 0 1.546875 0.3125q0.703125 0.296875 1.0625 0.78125q0.359375 0.46875 0.5 1.078125q0.140625 0.59375 0.140625 1.703125l0 6.015625zm11.474121 0l-2.390625 0l0 -1.421875q-0.59375 0.828125 -1.40625 1.234375q-0.796875 0.40625 -1.609375 0.40625q-1.671875 0 -2.859375 -1.34375q-1.1875 -1.34375 -1.1875 -3.75q0 -2.453125 1.15625 -3.734375q1.15625 -1.28125 2.921875 -1.28125q1.625 0 2.8125 1.34375l0 -4.8125l2.5625 0l0 13.359375zm-6.84375 -5.046875q0 1.546875 0.4375 2.234375q0.609375 1.015625 1.71875 1.015625q0.890625 0 1.5 -0.75q0.625 -0.765625 0.625 -2.25q0 -1.671875 -0.609375 -2.40625q-0.59375 -0.734375 -1.53125 -0.734375q-0.90625 0 -1.53125 0.734375q-0.609375 0.71875 -0.609375 2.15625zm11.270966 -1.671875l-2.328125 -0.421875q0.40625 -1.40625 1.359375 -2.078125q0.953125 -0.671875 2.84375 -0.671875q1.703125 0 2.546875 0.40625q0.84375 0.40625 1.171875 1.03125q0.34375 0.625 0.34375 2.28125l-0.015625 3.0q0 1.265625 0.109375 1.875q0.125 0.609375 0.46875 1.296875l-2.53125 0q-0.109375 -0.25 -0.25 -0.75q-0.0625 -0.234375 -0.09375 -0.3125q-0.65625 0.640625 -1.40625 0.96875q-0.734375 0.3125 -1.59375 0.3125q-1.484375 0 -2.34375 -0.8125q-0.859375 -0.8125 -0.859375 -2.046875q0 -0.828125 0.390625 -1.46875q0.390625 -0.640625 1.09375 -0.96875q0.703125 -0.34375 2.03125 -0.609375q1.796875 -0.328125 2.484375 -0.625l0 -0.25q0 -0.75 -0.359375 -1.0625q-0.359375 -0.3125 -1.375 -0.3125q-0.6875 0 -1.078125 0.28125q-0.375 0.265625 -0.609375 0.9375zm3.421875 2.078125q-0.484375 0.15625 -1.5625 0.390625q-1.0625 0.21875 -1.390625 0.4375q-0.5 0.359375 -0.5 0.90625q0 0.53125 0.40625 0.9375q0.40625 0.390625 1.015625 0.390625q0.703125 0 1.328125 -0.46875q0.46875 -0.34375 0.609375 -0.84375q0.09375 -0.328125 0.09375 -1.25l0 -0.5zm9.485107 -5.03125l0 2.03125l-1.75 0l0 3.90625q0 1.1875 0.046875 1.390625q0.046875 0.1875 0.21875 0.3125q0.1875 0.125 0.4375 0.125q0.359375 0 1.03125 -0.25l0.21875 2.0q-0.890625 0.375 -2.015625 0.375q-0.703125 0 -1.265625 -0.234375q-0.546875 -0.234375 -0.8125 -0.59375q-0.25 -0.375 -0.34375 -1.0q-0.09375 -0.453125 -0.09375 -1.8125l0 -4.21875l-1.171875 0l0 -2.03125l1.171875 0l0 -1.921875l2.578125 -1.5l0 3.421875l1.75 0zm1.775177 -1.3125l0 -2.375l2.5625 0l0 2.375l-2.5625 0zm0 10.984375l0 -9.671875l2.5625 0l0 9.671875l-2.5625 0zm4.5895386 -4.96875q0 -1.28125 0.625 -2.46875q0.625 -1.203125 1.78125 -1.828125q1.15625 -0.625 2.578125 -0.625q2.1875 0 3.59375 1.421875q1.40625 1.421875 1.40625 3.609375q0 2.1875 -1.421875 3.640625q-1.421875 1.4375 -3.5625 1.4375q-1.328125 0 -2.546875 -0.59375q-1.203125 -0.609375 -1.828125 -1.765625q-0.625 -1.171875 -0.625 -2.828125zm2.625 0.125q0 1.453125 0.671875 2.21875q0.6875 0.75 1.6875 0.75q1.0 0 1.671875 -0.75q0.6875 -0.765625 0.6875 -2.234375q0 -1.421875 -0.6875 -2.1875q-0.671875 -0.765625 -1.671875 -0.765625q-1.0 0 -1.6875 0.765625q-0.671875 0.765625 -0.671875 2.203125zm18.161621 4.84375l-2.5625 0l0 -4.9375q0 -1.5625 -0.171875 -2.015625q-0.15625 -0.46875 -0.53125 -0.71875q-0.359375 -0.265625 -0.875 -0.265625q-0.671875 0 -1.203125 0.375q-0.53125 0.359375 -0.734375 0.96875q-0.1875 0.59375 -0.1875 2.21875l0 4.375l-2.546875 0l0 -9.671875l2.375 0l0 1.421875q1.265625 -1.640625 3.1875 -1.640625q0.84375 0 1.546875 0.3125q0.703125 0.296875 1.0625 0.78125q0.359375 0.46875 0.5 1.078125q0.140625 0.59375 0.140625 1.703125l0 6.015625z" fill-rule="nonzero"/><path fill="#ffffff" d="m258.4308 168.79416l2.359375 0l0 1.3125q1.265625 -1.53125 3.015625 -1.53125q0.9375 0 1.609375 0.390625q0.6875 0.375 1.125 1.140625q0.640625 -0.765625 1.375 -1.140625q0.75 -0.390625 1.578125 -0.390625q1.0625 0 1.796875 0.4375q0.75 0.421875 1.109375 1.265625q0.265625 0.625 0.265625 2.0l0 6.1875l-2.5625 0l0 -5.53125q0 -1.4375 -0.265625 -1.859375q-0.34375 -0.546875 -1.09375 -0.546875q-0.53125 0 -1.015625 0.328125q-0.46875 0.328125 -0.671875 0.96875q-0.203125 0.625 -0.203125 2.0l0 4.640625l-2.5625 0l0 -5.296875q0 -1.421875 -0.140625 -1.828125q-0.140625 -0.40625 -0.421875 -0.609375q-0.28125 -0.203125 -0.78125 -0.203125q-0.59375 0 -1.0625 0.328125q-0.46875 0.3125 -0.6875 0.921875q-0.203125 0.59375 -0.203125 1.984375l0 4.703125l-2.5625 0l0 -9.671875zm16.197754 4.703125q0 -1.28125 0.625 -2.46875q0.625 -1.203125 1.78125 -1.828125q1.15625 -0.625 2.578125 -0.625q2.1875 0 3.59375 1.421875q1.40625 1.421875 1.40625 3.609375q0 2.1875 -1.421875 3.640625q-1.421875 1.4375 -3.5625 1.4375q-1.328125 0 -2.546875 -0.59375q-1.203125 -0.609375 -1.828125 -1.765625q-0.625 -1.171875 -0.625 -2.828125zm2.625 0.125q0 1.453125 0.671875 2.21875q0.6875 0.75 1.6875 0.75q1.0 0 1.671875 -0.75q0.6875 -0.765625 0.6875 -2.234375q0 -1.421875 -0.6875 -2.1875q-0.671875 -0.765625 -1.671875 -0.765625q-1.0 0 -1.6875 0.765625q-0.671875 0.765625 -0.671875 2.203125zm18.239746 4.84375l-2.390625 0l0 -1.421875q-0.59375 0.828125 -1.40625 1.234375q-0.796875 0.40625 -1.609375 0.40625q-1.671875 0 -2.859375 -1.34375q-1.1875 -1.34375 -1.1875 -3.75q0 -2.453125 1.15625 -3.734375q1.15625 -1.28125 2.921875 -1.28125q1.625 0 2.8125 1.34375l0 -4.8125l2.5625 0l0 13.359375zm-6.84375 -5.046875q0 1.546875 0.4375 2.234375q0.609375 1.015625 1.71875 1.015625q0.890625 0 1.5 -0.75q0.625 -0.765625 0.625 -2.25q0 -1.671875 -0.609375 -2.40625q-0.59375 -0.734375 -1.53125 -0.734375q-0.90625 0 -1.53125 0.734375q-0.609375 0.71875 -0.609375 2.15625zm14.958466 1.96875l2.546875 0.421875q-0.484375 1.40625 -1.546875 2.140625q-1.0625 0.734375 -2.65625 0.734375q-2.515625 0 -3.734375 -1.65625q-0.953125 -1.3125 -0.953125 -3.328125q0 -2.40625 1.25 -3.765625q1.265625 -1.359375 3.1875 -1.359375q2.15625 0 3.40625 1.421875q1.25 1.421875 1.1875 4.375l-6.40625 0q0.03125 1.140625 0.609375 1.78125q0.59375 0.625 1.484375 0.625q0.59375 0 1.0 -0.328125q0.421875 -0.328125 0.625 -1.0625zm0.15625 -2.59375q-0.03125 -1.109375 -0.578125 -1.6875q-0.546875 -0.578125 -1.328125 -0.578125q-0.84375 0 -1.390625 0.609375q-0.546875 0.609375 -0.53125 1.65625l3.828125 0zm4.6257324 5.671875l0 -13.359375l2.5625 0l0 13.359375l-2.5625 0z" fill-rule="nonzero"/><path fill="#000000" d="m220.57086 11.251968l128.37796 0l0 66.3937l-128.37796 0z" fill-rule="evenodd"/><path stroke="#000000" stroke-width="3.0" stroke-linejoin="round" stroke-linecap="butt" d="m220.57086 11.251968l128.37796 0l0 66.3937l-128.37796 0z" fill-rule="evenodd"/><path fill="#ffffff" d="m248.76636 29.368816l0 -13.359375l4.03125 0l2.421875 9.109375l2.390625 -9.109375l4.046875 0l0 13.359375l-2.5 0l0 -10.515625l-2.65625 10.515625l-2.59375 0l-2.640625 -10.515625l0 10.515625l-2.5 0zm17.462677 -6.71875l-2.328125 -0.421875q0.40625 -1.40625 1.359375 -2.078125q0.953125 -0.671875 2.84375 -0.671875q1.703125 0 2.546875 0.40625q0.84375 0.40625 1.171875 1.03125q0.34375 0.625 0.34375 2.28125l-0.015625 3.0q0 1.265625 0.109375 1.875q0.125 0.609375 0.46875 1.296875l-2.53125 0q-0.109375 -0.25 -0.25 -0.75q-0.0625 -0.234375 -0.09375 -0.3125q-0.65625 0.640625 -1.40625 0.96875q-0.734375 0.3125 -1.59375 0.3125q-1.484375 0 -2.34375 -0.8125q-0.859375 -0.8125 -0.859375 -2.046875q0 -0.828125 0.390625 -1.46875q0.390625 -0.640625 1.09375 -0.96875q0.703125 -0.34375 2.03125 -0.609375q1.796875 -0.328125 2.484375 -0.625l0 -0.25q0 -0.75 -0.359375 -1.0625q-0.359375 -0.3125 -1.375 -0.3125q-0.6875 0 -1.078125 0.28125q-0.375 0.265625 -0.609375 0.9375zm3.421875 2.078125q-0.484375 0.15625 -1.5625 0.390625q-1.0625 0.21875 -1.390625 0.4375q-0.5 0.359375 -0.5 0.90625q0 0.53125 0.40625 0.9375q0.40625 0.390625 1.015625 0.390625q0.703125 0 1.328125 -0.46875q0.46875 -0.34375 0.609375 -0.84375q0.09375 -0.328125 0.09375 -1.25l0 -0.5zm13.485107 -2.171875l-2.53125 0.453125q-0.125 -0.75 -0.578125 -1.125q-0.453125 -0.390625 -1.171875 -0.390625q-0.953125 0 -1.53125 0.65625q-0.5625 0.65625 -0.5625 2.203125q0 1.734375 0.578125 2.4375q0.578125 0.703125 1.546875 0.703125q0.734375 0 1.203125 -0.40625q0.46875 -0.421875 0.65625 -1.421875l2.515625 0.421875q-0.390625 1.734375 -1.515625 2.625q-1.109375 0.875 -2.96875 0.875q-2.125 0 -3.390625 -1.328125q-1.25 -1.34375 -1.25 -3.71875q0 -2.390625 1.265625 -3.71875q1.265625 -1.34375 3.421875 -1.34375q1.765625 0 2.796875 0.765625q1.046875 0.75 1.515625 2.3125zm4.485077 -6.546875l0 4.921875q1.234375 -1.453125 2.953125 -1.453125q0.890625 0 1.59375 0.328125q0.71875 0.328125 1.078125 0.84375q0.359375 0.5 0.484375 1.125q0.140625 0.609375 0.140625 1.921875l0 5.671875l-2.5625 0l0 -5.109375q0 -1.515625 -0.15625 -1.921875q-0.140625 -0.421875 -0.515625 -0.65625q-0.359375 -0.25 -0.90625 -0.25q-0.640625 0 -1.140625 0.3125q-0.5 0.3125 -0.734375 0.9375q-0.234375 0.625 -0.234375 1.84375l0 4.84375l-2.5625 0l0 -13.359375l2.5625 0zm8.849121 2.375l0 -2.375l2.5625 0l0 2.375l-2.5625 0zm0 10.984375l0 -9.671875l2.5625 0l0 9.671875l-2.5625 0zm13.980164 0l-2.5625 0l0 -4.9375q0 -1.5625 -0.171875 -2.015625q-0.15625 -0.46875 -0.53125 -0.71875q-0.359375 -0.265625 -0.875 -0.265625q-0.671875 0 -1.203125 0.375q-0.53125 0.359375 -0.734375 0.96875q-0.1875 0.59375 -0.1875 2.21875l0 4.375l-2.546875 0l0 -9.671875l2.375 0l0 1.421875q1.265625 -1.640625 3.1875 -1.640625q0.84375 0 1.546875 0.3125q0.703125 0.296875 1.0625 0.78125q0.359375 0.46875 0.5 1.078125q0.140625 0.59375 0.140625 1.703125l0 6.015625zm8.192871 -3.078125l2.546875 0.421875q-0.484375 1.40625 -1.546875 2.140625q-1.0625 0.734375 -2.65625 0.734375q-2.515625 0 -3.734375 -1.65625q-0.953125 -1.3125 -0.953125 -3.328125q0 -2.40625 1.25 -3.765625q1.265625 -1.359375 3.1875 -1.359375q2.15625 0 3.40625 1.421875q1.25 1.421875 1.1875 4.375l-6.40625 0q0.03125 1.140625 0.609375 1.78125q0.59375 0.625 1.484375 0.625q0.59375 0 1.0 -0.328125q0.421875 -0.328125 0.625 -1.0625zm0.15625 -2.59375q-0.03125 -1.109375 -0.578125 -1.6875q-0.546875 -0.578125 -1.328125 -0.578125q-0.84375 0 -1.390625 0.609375q-0.546875 0.609375 -0.53125 1.65625l3.828125 0z" fill-rule="nonzero"/><path fill="#ffffff" d="m249.82047 51.368816l0 -13.359375l2.5625 0l0 13.359375l-2.5625 0zm10.777069 -3.078125l2.546875 0.421875q-0.484375 1.40625 -1.546875 2.140625q-1.0625 0.734375 -2.65625 0.734375q-2.515625 0 -3.7343903 -1.65625q-0.953125 -1.3125 -0.953125 -3.328125q0 -2.40625 1.25 -3.765625q1.2656403 -1.359375 3.1875153 -1.359375q2.15625 0 3.40625 1.421875q1.25 1.421875 1.1875 4.375l-6.40625 0q0.03125 1.140625 0.609375 1.78125q0.59375 0.625 1.484375 0.625q0.59375 0 1.0 -0.328125q0.421875 -0.328125 0.625 -1.0625zm0.15625 -2.59375q-0.03125 -1.109375 -0.578125 -1.6875q-0.546875 -0.578125 -1.328125 -0.578125q-0.84375 0 -1.390625 0.609375q-0.546875 0.609375 -0.53125 1.65625l3.828125 0zm6.531952 -1.046875l-2.328125 -0.421875q0.40625 -1.40625 1.359375 -2.078125q0.953125 -0.671875 2.84375 -0.671875q1.703125 0 2.546875 0.40625q0.84375 0.40625 1.171875 1.03125q0.34375 0.625 0.34375 2.28125l-0.015625 3.0q0 1.265625 0.109375 1.875q0.125 0.609375 0.46875 1.296875l-2.53125 0q-0.109375 -0.25 -0.25 -0.75q-0.0625 -0.234375 -0.09375 -0.3125q-0.65625 0.640625 -1.40625 0.96875q-0.734375 0.3125 -1.59375 0.3125q-1.484375 0 -2.34375 -0.8125q-0.859375 -0.8125 -0.859375 -2.046875q0 -0.828125 0.390625 -1.46875q0.390625 -0.640625 1.09375 -0.96875q0.703125 -0.34375 2.03125 -0.609375q1.796875 -0.328125 2.484375 -0.625l0 -0.25q0 -0.75 -0.359375 -1.0625q-0.359375 -0.3125 -1.375 -0.3125q-0.6875 0 -1.078125 0.28125q-0.375 0.265625 -0.609375 0.9375zm3.421875 2.078125q-0.484375 0.15625 -1.5625 0.390625q-1.0625 0.21875 -1.390625 0.4375q-0.5 0.359375 -0.5 0.90625q0 0.53125 0.40625 0.9375q0.40625 0.390625 1.015625 0.390625q0.703125 0 1.328125 -0.46875q0.46875 -0.34375 0.609375 -0.84375q0.09375 -0.328125 0.09375 -1.25l0 -0.5zm7.5007324 4.640625l-2.5625 0l0 -9.671875l2.375 0l0 1.375q0.609375 -0.984375 1.09375 -1.28125q0.484375 -0.3125 1.109375 -0.3125q0.875 0 1.6875 0.484375l-0.796875 2.234375q-0.640625 -0.421875 -1.203125 -0.421875q-0.53125 0 -0.90625 0.296875q-0.375 0.296875 -0.59375 1.078125q-0.203125 0.765625 -0.203125 3.234375l0 2.984375zm13.604004 0l-2.5625 0l0 -4.9375q0 -1.5625 -0.171875 -2.015625q-0.15625 -0.46875 -0.53125 -0.71875q-0.359375 -0.265625 -0.875 -0.265625q-0.671875 0 -1.203125 0.375q-0.53125 0.359375 -0.734375 0.96875q-0.1875 0.59375 -0.1875 2.21875l0 4.375l-2.546875 0l0 -9.671875l2.375 0l0 1.421875q1.265625 -1.640625 3.1875 -1.640625q0.84375 0 1.546875 0.3125q0.703125 0.296875 1.0625 0.78125q0.359375 0.46875 0.5 1.078125q0.140625 0.59375 0.140625 1.703125l0 6.015625zm2.599121 -10.984375l0 -2.375l2.5625 0l0 2.375l-2.5625 0zm0 10.984375l0 -9.671875l2.5625 0l0 9.671875l-2.5625 0zm13.980164 0l-2.5625 0l0 -4.9375q0 -1.5625 -0.171875 -2.015625q-0.15625 -0.46875 -0.53125 -0.71875q-0.359375 -0.265625 -0.875 -0.265625q-0.671875 0 -1.203125 0.375q-0.53125 0.359375 -0.734375 0.96875q-0.1875 0.59375 -0.1875 2.21875l0 4.375l-2.546875 0l0 -9.671875l2.375 0l0 1.421875q1.265625 -1.640625 3.1875 -1.640625q0.84375 0 1.546875 0.3125q0.703125 0.296875 1.0625 0.78125q0.359375 0.46875 0.5 1.078125q0.140625 0.59375 0.140625 1.703125l0 6.015625zm2.364746 0.640625l2.921875 0.359375q0.0625 0.5 0.328125 0.6875q0.375 0.28125 1.15625 0.28125q1.0 0 1.5 -0.296875q0.328125 -0.203125 0.515625 -0.65625q0.109375 -0.3125 0.109375 -1.171875l0 -1.40625q-1.140625 1.5625 -2.890625 1.5625q-1.953125 0 -3.09375 -1.65625q-0.890625 -1.296875 -0.890625 -3.234375q0 -2.4375 1.171875 -3.71875q1.171875 -1.28125 2.90625 -1.28125q1.796875 0 2.96875 1.578125l0 -1.359375l2.390625 0l0 8.671875q0 1.71875 -0.28125 2.5625q-0.28125 0.84375 -0.796875 1.328125q-0.5 0.484375 -1.359375 0.75q-0.84375 0.28125 -2.15625 0.28125q-2.453125 0 -3.484375 -0.84375q-1.03125 -0.84375 -1.03125 -2.125q0 -0.140625 0.015625 -0.3125zm2.28125 -5.671875q0 1.53125 0.59375 2.25q0.59375 0.71875 1.46875 0.71875q0.9375 0 1.578125 -0.734375q0.65625 -0.734375 0.65625 -2.171875q0 -1.515625 -0.625 -2.234375q-0.609375 -0.734375 -1.5625 -0.734375q-0.921875 0 -1.515625 0.71875q-0.59375 0.71875 -0.59375 2.1875z" fill-rule="nonzero"/><path fill="#ffffff" d="m245.51404 66.65007l-2.328125 -0.421875q0.40625 -1.40625 1.359375 -2.078125q0.953125 -0.6718788 2.84375 -0.6718788q1.703125 0 2.546875 0.40625q0.84375 0.4062538 1.171875 1.0312538q0.34375 0.625 0.34375 2.28125l-0.015625 3.0q0 1.265625 0.109375 1.875q0.125 0.609375 0.46875 1.296875l-2.53125 0q-0.109375 -0.25 -0.25 -0.75q-0.0625 -0.234375 -0.09375 -0.3125q-0.65625 0.640625 -1.40625 0.96875q-0.734375 0.3125 -1.59375 0.3125q-1.484375 0 -2.34375 -0.8125q-0.859375 -0.8125 -0.859375 -2.046875q0 -0.828125 0.390625 -1.46875q0.390625 -0.640625 1.09375 -0.96875q0.703125 -0.34375 2.03125 -0.609375q1.796875 -0.328125 2.484375 -0.625l0 -0.25q0 -0.75 -0.359375 -1.0625q-0.359375 -0.3125 -1.375 -0.3125q-0.6875 0 -1.078125 0.28125q-0.375 0.265625 -0.609375 0.9375zm3.421875 2.078125q-0.484375 0.15625 -1.5625 0.390625q-1.0625 0.21875 -1.390625 0.4375q-0.5 0.359375 -0.5 0.90625q0 0.53125 0.40625 0.9375q0.40625 0.390625 1.015625 0.390625q0.703125 0 1.328125 -0.46875q0.46875 -0.34375 0.609375 -0.84375q0.09375 -0.328125 0.09375 -1.25l0 -0.5zm5.047592 4.640625l0 -13.359379l2.5625153 0l0 13.359379l-2.5625153 0zm4.948929 0.640625l2.921875 0.359375q0.0625 0.5 0.328125 0.6875q0.375 0.28125 1.15625 0.28125q1.0 0 1.5 -0.296875q0.328125 -0.203125 0.515625 -0.65625q0.109375 -0.3125 0.109375 -1.171875l0 -1.40625q-1.140625 1.5625 -2.890625 1.5625q-1.953125 0 -3.09375 -1.65625q-0.890625 -1.296875 -0.890625 -3.234375q0 -2.4375 1.171875 -3.71875q1.171875 -1.2812538 2.90625 -1.2812538q1.796875 0 2.96875 1.5781288l0 -1.3593788l2.390625 0l0 8.671879q0 1.71875 -0.28125 2.5625q-0.28125 0.84375 -0.796875 1.328125q-0.5 0.484375 -1.359375 0.75q-0.84375 0.28125 -2.15625 0.28125q-2.453125 0 -3.484375 -0.84375q-1.03125 -0.84375 -1.03125 -2.125q0 -0.140625 0.015625 -0.3125zm2.28125 -5.671875q0 1.53125 0.59375 2.25q0.59375 0.71875 1.46875 0.71875q0.9375 0 1.578125 -0.734375q0.65625 -0.734375 0.65625 -2.171875q0 -1.515625 -0.625 -2.234375q-0.609375 -0.734375 -1.5625 -0.734375q-0.921875 0 -1.515625 0.71875q-0.59375 0.71875 -0.59375 2.1875zm8.755371 0.0625q0 -1.28125 0.625 -2.46875q0.625 -1.203125 1.78125 -1.828125q1.15625 -0.6250038 2.578125 -0.6250038q2.1875 0 3.59375 1.4218788q1.40625 1.421875 1.40625 3.609375q0 2.1875 -1.421875 3.640625q-1.421875 1.4375 -3.5625 1.4375q-1.328125 0 -2.546875 -0.59375q-1.203125 -0.609375 -1.828125 -1.765625q-0.625 -1.171875 -0.625 -2.828125zm2.625 0.125q0 1.453125 0.671875 2.21875q0.6875 0.75 1.6875 0.75q1.0 0 1.671875 -0.75q0.6875 -0.765625 0.6875 -2.234375q0 -1.421875 -0.6875 -2.1875q-0.671875 -0.765625 -1.671875 -0.765625q-1.0 0 -1.6875 0.765625q-0.671875 0.765625 -0.671875 2.203125zm11.817841 4.84375l-2.5625 0l0 -9.671879l2.375 0l0 1.3750038q0.609375 -0.984375 1.09375 -1.2812538q0.484375 -0.3125 1.109375 -0.3125q0.875 0 1.6875 0.484375l-0.796875 2.2343788q-0.640625 -0.421875 -1.203125 -0.421875q-0.53125 0 -0.90625 0.296875q-0.375 0.296875 -0.59375 1.078125q-0.203125 0.765625 -0.203125 3.234375l0 2.984375zm4.8071594 -10.984379l0 -2.375l2.5625 0l0 2.375l-2.5625 0zm0 10.984379l0 -9.671879l2.5625 0l0 9.671879l-2.5625 0zm9.620789 -9.671879l0 2.0312538l-1.75 0l0 3.90625q0 1.1875 0.046875 1.390625q0.046875 0.1875 0.21875 0.3125q0.1875 0.125 0.4375 0.125q0.359375 0 1.03125 -0.25l0.21875 2.0q-0.890625 0.375 -2.015625 0.375q-0.703125 0 -1.265625 -0.234375q-0.546875 -0.234375 -0.8125 -0.59375q-0.25 -0.375 -0.34375 -1.0q-0.09375 -0.453125 -0.09375 -1.8125l0 -4.21875l-1.171875 0l0 -2.0312538l1.171875 0l0 -1.921875l2.578125 -1.5l0 3.421875l1.75 0zm4.322052 -3.6875l0 4.921879q1.234375 -1.4531288 2.953125 -1.4531288q0.890625 0 1.59375 0.328125q0.71875 0.3281288 1.078125 0.8437538q0.359375 0.5 0.484375 1.125q0.140625 0.609375 0.140625 1.921875l0 5.671875l-2.5625 0l0 -5.109375q0 -1.515625 -0.15625 -1.921875q-0.140625 -0.421875 -0.515625 -0.65625q-0.359375 -0.25 -0.90625 -0.25q-0.640625 0 -1.140625 0.3125q-0.5 0.3125 -0.734375 0.9375q-0.234375 0.625 -0.234375 1.84375l0 4.84375l-2.5625 0l0 -13.359379l2.5625 0zm8.645996 3.6875l2.359375 0l0 1.3125038q1.265625 -1.5312538 3.015625 -1.5312538q0.9375 0 1.609375 0.390625q0.6875 0.3750038 1.125 1.1406288q0.640625 -0.765625 1.375 -1.1406288q0.75 -0.390625 1.578125 -0.390625q1.0625 0 1.796875 0.4375q0.75 0.4218788 1.109375 1.2656288q0.265625 0.625 0.265625 2.0l0 6.1875l-2.5625 0l0 -5.53125q0 -1.4375 -0.265625 -1.859375q-0.34375 -0.546875 -1.09375 -0.546875q-0.53125 0 -1.015625 0.328125q-0.46875 0.328125 -0.671875 0.96875q-0.203125 0.625 -0.203125 2.0l0 4.640625l-2.5625 0l0 -5.296875q0 -1.421875 -0.140625 -1.828125q-0.140625 -0.40625 -0.421875 -0.609375q-0.28125 -0.203125 -0.78125 -0.203125q-0.59375 0 -1.0625 0.328125q-0.46875 0.3125 -0.6875 0.921875q-0.203125 0.59375 -0.203125 1.984375l0 4.703125l-2.5625 0l0 -9.671879z" fill-rule="nonzero"/><path fill="#000000" fill-opacity="0.0" d="m-3.8661418 16.343832l165.10236 0l0 56.566925l-165.10236 0z" fill-rule="evenodd"/><path fill="#000000" d="m63.75553 31.435705l-4.265625 0l0 11.828127l-1.734375 0l0 -11.828127l-4.25 0l0 -1.4375l10.25 0l0 1.4375zm5.7919617 3.484377q-0.390625 -0.0625 -0.84375 -0.0625q-1.65625 0 -2.25 1.40625l0 7.0l-1.671875 0l0 -9.859375l1.640625 0l0.015625 1.140625q0.828125 -1.3125 2.359375 -1.3125q0.484375 0 0.75 0.125l0 1.5625zm7.260803 8.34375q-0.140625 -0.296875 -0.234375 -1.03125q-1.171875 1.21875 -2.8125 1.21875q-1.453125 0 -2.390625 -0.828125q-0.921875 -0.828125 -0.921875 -2.09375q0 -1.53125 1.15625 -2.375q1.171875 -0.859375 3.296875 -0.859375l1.640625 0l0 -0.78125q0 -0.890625 -0.53125 -1.40625q-0.515625 -0.53125 -1.546875 -0.53125q-0.90625 0 -1.515625 0.46875q-0.609375 0.453125 -0.609375 1.09375l-1.703125 0q0 -0.734375 0.515625 -1.421875q0.53125 -0.6875 1.421875 -1.078125q0.90625 -0.40625 1.984375 -0.40625q1.703125 0 2.671875 0.859375q0.96875 0.84375 1.0 2.328125l0 4.53125q0 1.359375 0.34375 2.171875l0 0.140625l-1.765625 0zm-2.796875 -1.28125q0.796875 0 1.5 -0.40625q0.71875 -0.421875 1.03125 -1.078125l0 -2.015625l-1.3125 0q-3.109375 0 -3.109375 1.8125q0 0.796875 0.53125 1.25q0.53125 0.4375 1.359375 0.4375zm8.694855 1.28125l-1.6875 0l0 -9.859375l1.6875 0l0 9.859375zm-1.828125 -12.468752q0 -0.40625 0.25 -0.6875q0.25 -0.296875 0.734375 -0.296875q0.5 0 0.75 0.296875q0.265625 0.28125 0.265625 0.6875q0 0.40625 -0.265625 0.6875q-0.25 0.265625 -0.75 0.265625q-0.484375 0 -0.734375 -0.265625q-0.25 -0.28125 -0.25 -0.6875zm6.12117 2.609377l0.046875 1.234375q1.125 -1.40625 2.953125 -1.40625q3.125 0 3.15625 3.515625l0 6.515625l-1.6875 0l0 -6.515625q-0.015625 -1.078125 -0.5 -1.578125q-0.46875 -0.515625 -1.484375 -0.515625q-0.8125 0 -1.4375 0.4375q-0.609375 0.4375 -0.96875 1.15625l0 7.015625l-1.671875 0l0 -9.859375l1.59375 0zm10.528107 9.859375l-1.6875 0l0 -9.859375l1.6875 0l0 9.859375zm-1.828125 -12.468752q0 -0.40625 0.25 -0.6875q0.25 -0.296875 0.734375 -0.296875q0.5 0 0.75 0.296875q0.265625 0.28125 0.265625 0.6875q0 0.40625 -0.265625 0.6875q-0.25 0.265625 -0.75 0.265625q-0.484375 0 -0.734375 -0.265625q-0.25 -0.28125 -0.25 -0.6875zm6.12117 2.609377l0.046875 1.234375q1.125 -1.40625 2.953125 -1.40625q3.125 0 3.15625 3.515625l0 6.515625l-1.6875 0l0 -6.515625q-0.015625 -1.078125 -0.5 -1.578125q-0.46875 -0.515625 -1.484375 -0.515625q-0.8125 0 -1.4375 0.4375q-0.609375 0.4375 -0.96875 1.15625l0 7.015625l-1.671875 0l0 -9.859375l1.59375 0zm8.293732 4.84375q0 -2.296875 1.0625 -3.65625q1.0625 -1.359375 2.828125 -1.359375q1.796875 0 2.8125 1.265625l0.078125 -1.09375l1.546875 0l0 9.625q0 1.90625 -1.140625 3.0q-1.125 1.109375 -3.046875 1.109375q-1.0625 0 -2.09375 -0.453125q-1.015625 -0.453125 -1.546875 -1.25l0.875 -1.0q1.078125 1.328125 2.65625 1.328125q1.21875 0 1.90625 -0.6875q0.6875 -0.6875 0.6875 -1.953125l0 -0.84375q-1.0 1.171875 -2.75 1.171875q-1.734375 0 -2.8125 -1.390625q-1.0625 -1.40625 -1.0625 -3.8125zm1.6875 0.203125q0 1.65625 0.6875 2.609375q0.6875 0.953125 1.921875 0.953125q1.59375 0 2.328125 -1.453125l0 -4.5q-0.765625 -1.40625 -2.3125 -1.40625q-1.234375 0 -1.9375 0.953125q-0.6875 0.953125 -0.6875 2.84375zm13.382202 -0.203125q0 -2.265625 1.078125 -3.640625q1.078125 -1.375 2.8125076 -1.375q1.734375 0 2.75 1.171875l0 -5.140627l1.6875 0l0 14.000002l-1.546875 0l-0.09375 -1.0625q-1.0 1.25 -2.8125 1.25q-1.7031326 0 -2.7968826 -1.40625q-1.078125 -1.40625 -1.078125 -3.65625l0 -0.140625zm1.6875 0.203125q0 1.671875 0.6875 2.625q0.7031326 0.9375 1.9218826 0.9375q1.609375 0 2.34375 -1.4375l0 -4.53125q-0.765625 -1.390625 -2.328125 -1.390625q-1.234375 0 -1.9375076 0.953125q-0.6875 0.953125 -0.6875 2.84375zm15.333977 4.8125q-0.140625 -0.296875 -0.234375 -1.03125q-1.171875 1.21875 -2.8125 1.21875q-1.453125 0 -2.390625 -0.828125q-0.921875 -0.828125 -0.921875 -2.09375q0 -1.53125 1.15625 -2.375q1.171875 -0.859375 3.296875 -0.859375l1.640625 0l0 -0.78125q0 -0.890625 -0.53125 -1.40625q-0.515625 -0.53125 -1.546875 -0.53125q-0.90625 0 -1.515625 0.46875q-0.609375 0.453125 -0.609375 1.09375l-1.703125 0q0 -0.734375 0.515625 -1.421875q0.53125 -0.6875 1.421875 -1.078125q0.90625 -0.40625 1.984375 -0.40625q1.703125 0 2.671875 0.859375q0.96875 0.84375 1.0 2.328125l0 4.53125q0 1.359375 0.34375 2.171875l0 0.140625l-1.765625 0zm-2.796875 -1.28125q0.796875 0 1.5 -0.40625q0.71875 -0.421875 1.03125 -1.078125l0 -2.015625l-1.3125 0q-3.109375 0 -3.109375 1.8125q0 0.796875 0.53125 1.25q0.53125 0.4375 1.359375 0.4375zm9.14798 -10.968752l0 2.390627l1.84375 0l0 1.3125l-1.84375 0l0 6.109375q0 0.59375 0.234375 0.890625q0.25 0.296875 0.84375 0.296875q0.296875 0 0.8125 -0.109375l0 1.359375q-0.671875 0.1875 -1.296875 0.1875q-1.125 0 -1.703125 -0.6875q-0.578125 -0.6875 -0.578125 -1.9375l0 -6.109375l-1.796875 0l0 -1.3125l1.796875 0l0 -2.390627l1.6875 0zm9.891129 12.250002q-0.140625 -0.296875 -0.234375 -1.03125q-1.171875 1.21875 -2.8125 1.21875q-1.453125 0 -2.390625 -0.828125q-0.921875 -0.828125 -0.921875 -2.09375q0 -1.53125 1.15625 -2.375q1.171875 -0.859375 3.296875 -0.859375l1.640625 0l0 -0.78125q0 -0.890625 -0.53125 -1.40625q-0.515625 -0.53125 -1.546875 -0.53125q-0.90625 0 -1.515625 0.46875q-0.609375 0.453125 -0.609375 1.09375l-1.703125 0q0 -0.734375 0.515625 -1.421875q0.53125 -0.6875 1.421875 -1.078125q0.90625 -0.40625 1.984375 -0.40625q1.703125 0 2.671875 0.859375q0.96875 0.84375 1.0 2.328125l0 4.53125q0 1.359375 0.34375 2.171875l0 0.140625l-1.765625 0zm-2.796875 -1.28125q0.796875 0 1.5 -0.40625q0.71875 -0.421875 1.03125 -1.078125l0 -2.015625l-1.3125 0q-3.109375 0 -3.109375 1.8125q0 0.796875 0.53125 1.25q0.53125 0.4375 1.359375 0.4375z" fill-rule="nonzero"/><path fill="#000000" d="m11.197152 55.795082q0 -1.3125 0.34375 -2.53125q0.359375 -1.21875 1.0625 -2.21875q0.703125 -1.0 1.46875 -1.40625l0.21875 0.71875q-0.859375 0.65625 -1.40625 2.0q-0.546875 1.34375 -0.59375 3.015625l-0.015625 0.5q0 2.265625 0.828125 3.921875q0.5 1.0 1.1875 1.5625l-0.21875 0.65625q-0.78125 -0.421875 -1.5 -1.453125q-1.375 -1.984375 -1.375 -4.765625zm6.2265615 2.0l1.578125 -4.875l1.109375 0l-2.28125 6.34375l-0.828125 0l-2.296874 -6.34375l1.109375 0l1.609374 4.875zm6.283203 1.59375q-1.296875 0 -2.109375 -0.84375q-0.796875 -0.859375 -0.796875 -2.28125l0 -0.1875q0 -0.953125 0.359375 -1.6875q0.359375 -0.75 1.0 -1.15625q0.65625 -0.421875 1.40625 -0.421875q1.234375 0 1.921875 0.8125q0.6875 0.8125 0.6875 2.328125l0 0.453125l-4.296875 0q0.03125 0.9375 0.546875 1.515625q0.53125 0.578125 1.34375 0.578125q0.5625 0 0.953125 -0.234375q0.40625 -0.234375 0.71875 -0.625l0.65625 0.515625q-0.796875 1.234375 -2.390625 1.234375zm-0.140625 -5.6875q-0.65625 0 -1.109375 0.484375q-0.4375 0.46875 -0.53125 1.328125l3.171875 0l0 -0.078125q-0.046875 -0.828125 -0.453125 -1.28125q-0.390625 -0.453125 -1.078125 -0.453125zm6.935547 0.1875q-0.25 -0.03125 -0.53125 -0.03125q-1.078125 0 -1.453125 0.90625l0 4.5l-1.078125 0l0 -6.34375l1.046875 0l0.015625 0.734375q0.53125 -0.84375 1.515625 -0.84375q0.3125 0 0.484375 0.078125l0 1.0zm3.1660156 3.78125l1.484375 -4.75l1.15625 0l-2.546875 7.328125q-0.59375 1.578125 -1.875 1.578125l-0.21875 -0.015625l-0.390625 -0.078125l0 -0.875l0.28125 0.015625q0.5625 0 0.859375 -0.21875q0.3125 -0.21875 0.515625 -0.8125l0.234375 -0.65625l-2.265625 -6.265625l1.1875 0l1.578125 4.75zm7.7578125 1.59375l-1.078125 0l0 -9.0l1.078125 0l0 9.0zm5.6464844 0q-0.09375 -0.1875 -0.15625 -0.671875q-0.75 0.796875 -1.796875 0.796875q-0.9375 0 -1.546875 -0.53125q-0.59375 -0.53125 -0.59375 -1.359375q0 -0.984375 0.75 -1.53125q0.75 -0.546875 2.125 -0.546875l1.046875 0l0 -0.5q0 -0.5625 -0.34375 -0.890625q-0.328125 -0.34375 -1.0 -0.34375q-0.578125 0 -0.96875 0.296875q-0.390625 0.28125 -0.390625 0.703125l-1.09375 0q0 -0.484375 0.328125 -0.921875q0.34375 -0.4375 0.921875 -0.6875q0.578125 -0.265625 1.265625 -0.265625q1.109375 0 1.71875 0.546875q0.625 0.546875 0.65625 1.5l0 2.921875q0 0.875 0.21875 1.390625l0 0.09375l-1.140625 0zm-1.796875 -0.828125q0.515625 0 0.96875 -0.265625q0.453125 -0.265625 0.65625 -0.6875l0 -1.296875l-0.84375 0q-2.0 0 -2.0 1.171875q0 0.5 0.34375 0.796875q0.34375 0.28125 0.875 0.28125zm7.4804688 -4.546875q-0.25 -0.03125 -0.53125 -0.03125q-1.078125 0 -1.453125 0.90625l0 4.5l-1.078125 0l0 -6.34375l1.046875 0l0.015625 0.734375q0.53125 -0.84375 1.515625 -0.84375q0.3125 0 0.484375 0.078125l0 1.0zm0.62109375 2.15625q0 -1.484375 0.6875 -2.359375q0.6875 -0.875 1.8125 -0.875q1.15625 0 1.8125 0.8125l0.046875 -0.703125l1.0 0l0 6.1875q0 1.234375 -0.734375 1.9375q-0.734375 0.71875 -1.953125 0.71875q-0.6875 0 -1.34375 -0.296875q-0.65625 -0.296875 -1.0 -0.796875l0.5625 -0.65625q0.6875 0.859375 1.703125 0.859375q0.78125 0 1.21875 -0.453125q0.453125 -0.4375 0.453125 -1.25l0 -0.546875q-0.65625 0.765625 -1.78125 0.765625q-1.109375 0 -1.796875 -0.890625q-0.6875 -0.90625 -0.6875 -2.453125zm1.09375 0.125q0 1.0625 0.4375 1.6875q0.4375 0.609375 1.234375 0.609375q1.015625 0 1.5 -0.9375l0 -2.890625q-0.5 -0.90625 -1.5 -0.90625q-0.78125 0 -1.234375 0.609375q-0.4375 0.609375 -0.4375 1.828125zm8.529297 3.21875q-1.296875 0 -2.109375 -0.84375q-0.796875 -0.859375 -0.796875 -2.28125l0 -0.1875q0 -0.953125 0.359375 -1.6875q0.359375 -0.75 1.0 -1.15625q0.65625 -0.421875 1.40625 -0.421875q1.234375 0 1.921875 0.8125q0.6875 0.8125 0.6875 2.328125l0 0.453125l-4.296875 0q0.03125 0.9375 0.546875 1.515625q0.53125 0.578125 1.34375 0.578125q0.5625 0 0.953125 -0.234375q0.40625 -0.234375 0.71875 -0.625l0.65625 0.515625q-0.796875 1.234375 -2.390625 1.234375zm-0.140625 -5.6875q-0.65625 0 -1.109375 0.484375q-0.4375 0.46875 -0.53125 1.328125l3.171875 0l0 -0.078125q-0.046875 -0.828125 -0.453125 -1.28125q-0.390625 -0.453125 -1.078125 -0.453125zm3.8261719 7.265625l-0.609375 -0.421875q0.546875 -0.765625 0.578125 -1.59375l0 -0.96875l1.0625 0l0 0.84375q0 0.59375 -0.296875 1.1875q-0.296875 0.59375 -0.734375 0.953125zm5.107422 -4.921875q0 -1.484375 0.6875 -2.359375q0.6875 -0.875 1.8125 -0.875q1.15625 0 1.8125 0.8125l0.046875 -0.703125l1.0 0l0 6.1875q0 1.234375 -0.734375 1.9375q-0.734375 0.71875 -1.953125 0.71875q-0.6875 0 -1.34375 -0.296875q-0.65625 -0.296875 -1.0 -0.796875l0.5625 -0.65625q0.6875 0.859375 1.703125 0.859375q0.78125 0 1.21875 -0.453125q0.453125 -0.4375 0.453125 -1.25l0 -0.546875q-0.65625 0.765625 -1.78125 0.765625q-1.109375 0 -1.796875 -0.890625q-0.6875 -0.90625 -0.6875 -2.453125zm1.09375 0.125q0 1.0625 0.4375 1.6875q0.4375 0.609375 1.234375 0.609375q1.015625 0 1.5 -0.9375l0 -2.890625q-0.5 -0.90625 -1.5 -0.90625q-0.78125 0 -1.234375 0.609375q-0.4375 0.609375 -0.4375 1.828125zm8.529297 3.21875q-1.296875 0 -2.109375 -0.84375q-0.796875 -0.859375 -0.796875 -2.28125l0 -0.1875q0 -0.953125 0.359375 -1.6875q0.359375 -0.75 1.0 -1.15625q0.65625 -0.421875 1.40625 -0.421875q1.234375 0 1.921875 0.8125q0.6875 0.8125 0.6875 2.328125l0 0.453125l-4.296875 0q0.03125 0.9375 0.546875 1.515625q0.53125 0.578125 1.34375 0.578125q0.5625 0 0.953125 -0.234375q0.40625 -0.234375 0.71875 -0.625l0.65625 0.515625q-0.796875 1.234375 -2.390625 1.234375zm-0.140625 -5.6875q-0.65625 0 -1.109375 0.484375q-0.4375 0.46875 -0.53125 1.328125l3.171875 0l0 -0.078125q-0.046875 -0.828125 -0.453125 -1.28125q-0.390625 -0.453125 -1.078125 -0.453125zm4.888672 -0.78125l0.03125 0.796875q0.734375 -0.90625 1.90625 -0.90625q2.015625 0 2.03125 2.265625l0 4.1875l-1.09375 0l0 -4.203125q0 -0.671875 -0.3125 -1.0q-0.296875 -0.328125 -0.953125 -0.328125q-0.53125 0 -0.9375 0.28125q-0.390625 0.28125 -0.609375 0.734375l0 4.515625l-1.078125 0l0 -6.34375l1.015625 0zm8.230469 6.46875q-1.296875 0 -2.109375 -0.84375q-0.796875 -0.859375 -0.796875 -2.28125l0 -0.1875q0 -0.953125 0.359375 -1.6875q0.359375 -0.75 1.0 -1.15625q0.65625 -0.421875 1.40625 -0.421875q1.234375 0 1.921875 0.8125q0.6875 0.8125 0.6875 2.328125l0 0.453125l-4.296875 0q0.03125 0.9375 0.546875 1.515625q0.53125 0.578125 1.34375 0.578125q0.5625 0 0.953125 -0.234375q0.40625 -0.234375 0.71875 -0.625l0.65625 0.515625q-0.796875 1.234375 -2.390625 1.234375zm-0.140625 -5.6875q-0.65625 0 -1.109375 0.484375q-0.4375 0.46875 -0.53125 1.328125l3.171875 0l0 -0.078125q-0.046875 -0.828125 -0.453125 -1.28125q-0.390625 -0.453125 -1.078125 -0.453125zm6.935547 0.1875q-0.25 -0.03125 -0.53125 -0.03125q-1.078125 0 -1.453125 0.90625l0 4.5l-1.078125 0l0 -6.34375l1.046875 0l0.015625 0.734375q0.53125 -0.84375 1.515625 -0.84375q0.3125 0 0.484375 0.078125l0 1.0zm4.669922 5.375q-0.09375 -0.1875 -0.15625 -0.671875q-0.75 0.796875 -1.796875 0.796875q-0.9375 0 -1.546875 -0.53125q-0.59375 -0.53125 -0.59375 -1.359375q0 -0.984375 0.75 -1.53125q0.75 -0.546875 2.125 -0.546875l1.046875 0l0 -0.5q0 -0.5625 -0.34375 -0.890625q-0.328125 -0.34375 -1.0 -0.34375q-0.578125 0 -0.96875 0.296875q-0.390625 0.28125 -0.390625 0.703125l-1.09375 0q0 -0.484375 0.328125 -0.921875q0.34375 -0.4375 0.921875 -0.6875q0.578125 -0.265625 1.265625 -0.265625q1.109375 0 1.71875 0.546875q0.625 0.546875 0.65625 1.5l0 2.921875q0 0.875 0.21875 1.390625l0 0.09375l-1.140625 0zm-1.796875 -0.828125q0.515625 0 0.96875 -0.265625q0.453125 -0.265625 0.65625 -0.6875l0 -1.296875l-0.84375 0q-2.0 0 -2.0 1.171875q0 0.5 0.34375 0.796875q0.34375 0.28125 0.875 0.28125zm5.5898438 0.828125l-1.078125 0l0 -9.0l1.078125 0l0 9.0zm10.0546875 -3.09375q0 1.4375 -0.65625 2.328125q-0.65625 0.890625 -1.796875 0.890625q-1.15625 0 -1.8125 -0.734375l0 3.046875l-1.078125 0l0 -8.78125l0.984375 0l0.046875 0.703125q0.671875 -0.8125 1.84375 -0.8125q1.140625 0 1.796875 0.859375q0.671875 0.859375 0.671875 2.390625l0 0.109375zm-1.078125 -0.125q0 -1.078125 -0.46875 -1.6875q-0.453125 -0.625 -1.25 -0.625q-0.984375 0 -1.46875 0.859375l0 3.03125q0.484375 0.875 1.484375 0.875q0.78125 0 1.234375 -0.609375q0.46875 -0.625 0.46875 -1.84375zm6.373047 2.59375q-0.625 0.75 -1.859375 0.75q-1.015625 0 -1.546875 -0.59375q-0.53125 -0.59375 -0.53125 -1.75l0 -4.125l1.078125 0l0 4.09375q0 1.453125 1.171875 1.453125q1.25 0 1.65625 -0.9375l0 -4.609375l1.09375 0l0 6.34375l-1.03125 0l-0.03125 -0.625zm5.771492 -4.75q-0.25 -0.03125 -0.53125 -0.03125q-1.078125 0 -1.453125 0.90625l0 4.5l-1.0781326 0l0 -6.34375l1.0468826 0l0.015625 0.734375q0.53125 -0.84375 1.515625 -0.84375q0.3125 0 0.484375 0.078125l0 1.0zm6.341797 2.28125q0 1.4375 -0.65625 2.328125q-0.65625 0.890625 -1.796875 0.890625q-1.15625 0 -1.8125 -0.734375l0 3.046875l-1.078125 0l0 -8.78125l0.984375 0l0.046875 0.703125q0.671875 -0.8125 1.84375 -0.8125q1.140625 0 1.796875 0.859375q0.671875 0.859375 0.671875 2.390625l0 0.109375zm-1.078125 -0.125q0 -1.078125 -0.46875 -1.6875q-0.453125 -0.625 -1.25 -0.625q-0.984375 0 -1.46875 0.859375l0 3.03125q0.484375 0.875 1.484375 0.875q0.78125 0 1.234375 -0.609375q0.46875 -0.625 0.46875 -1.84375zm2.1699219 -0.015625q0 -0.921875 0.359375 -1.671875q0.375 -0.75 1.03125 -1.140625q0.65625 -0.40625 1.484375 -0.40625q1.296875 0 2.09375 0.890625q0.8125 0.890625 0.8125 2.390625l0 0.078125q0 0.921875 -0.359375 1.65625q-0.359375 0.734375 -1.015625 1.15625q-0.65625 0.40625 -1.515625 0.40625q-1.28125 0 -2.09375 -0.890625q-0.796875 -0.90625 -0.796875 -2.390625l0 -0.078125zm1.09375 0.140625q0 1.046875 0.484375 1.6875q0.5 0.640625 1.3125 0.640625q0.828125 0 1.3125 -0.640625q0.484375 -0.65625 0.484375 -1.828125q0 -1.03125 -0.5 -1.671875q-0.484375 -0.65625 -1.3125 -0.65625q-0.796875 0 -1.296875 0.640625q-0.484375 0.625 -0.484375 1.828125zm9.734375 1.40625q0 -0.4375 -0.34375 -0.671875q-0.328125 -0.25 -1.15625 -0.421875q-0.8125 -0.171875 -1.296875 -0.421875q-0.484375 -0.25 -0.71875 -0.578125q-0.21875 -0.34375 -0.21875 -0.8125q0 -0.78125 0.65625 -1.3125q0.65625 -0.546875 1.6875 -0.546875q1.078125 0 1.734375 0.5625q0.671875 0.546875 0.671875 1.40625l-1.078125 0q0 -0.4375 -0.390625 -0.75q-0.375 -0.328125 -0.9375 -0.328125q-0.59375 0 -0.9375 0.265625q-0.328125 0.25 -0.328125 0.65625q0 0.390625 0.3125 0.59375q0.3125 0.203125 1.125 0.390625q0.8125 0.171875 1.3125 0.421875q0.5 0.25 0.734375 0.609375q0.25 0.359375 0.25 0.859375q0 0.859375 -0.6875 1.375q-0.671875 0.515625 -1.75 0.515625q-0.765625 0 -1.359375 -0.265625q-0.578125 -0.28125 -0.90625 -0.765625q-0.328125 -0.484375 -0.328125 -1.046875l1.078125 0q0.03125 0.546875 0.4375 0.875q0.40625 0.3125 1.078125 0.3125q0.609375 0 0.984375 -0.25q0.375 -0.25 0.375 -0.671875zm5.125 1.8125q-1.296875 0 -2.109375 -0.84375q-0.796875 -0.859375 -0.796875 -2.28125l0 -0.1875q0 -0.953125 0.359375 -1.6875q0.359375 -0.75 1.0 -1.15625q0.65625 -0.421875 1.40625 -0.421875q1.234375 0 1.921875 0.8125q0.6875 0.8125 0.6875 2.328125l0 0.453125l-4.296875 0q0.03125 0.9375 0.546875 1.515625q0.53125 0.578125 1.34375 0.578125q0.5625 0 0.953125 -0.234375q0.40625 -0.234375 0.71875 -0.625l0.65625 0.515625q-0.796875 1.234375 -2.390625 1.234375zm-0.140625 -5.6875q-0.65625 0 -1.109375 0.484375q-0.4375 0.46875 -0.53125 1.328125l3.171875 0l0 -0.078125q-0.046875 -0.828125 -0.453125 -1.28125q-0.390625 -0.453125 -1.078125 -0.453125zm6.373047 2.15625q0 1.3125 -0.34375 2.515625q-0.34375 1.1875 -1.0625 2.203125q-0.703125 1.015625 -1.46875 1.4375l-0.234375 -0.65625q0.90625 -0.6875 1.453125 -2.140625q0.546875 -1.46875 0.5625 -3.234375l0 -0.1875q0 -1.234375 -0.265625 -2.296875q-0.25 -1.0625 -0.71875 -1.890625q-0.453125 -0.84375 -1.03125 -1.3125l0.234375 -0.65625q0.765625 0.421875 1.46875 1.421875q0.703125 1.0 1.046875 2.21875q0.359375 1.203125 0.359375 2.578125z" fill-rule="nonzero"/><path fill="#000000" fill-opacity="0.0" d="m170.43767 44.65701l40.944885 -0.40944672" fill-rule="evenodd"/><path stroke="#000000" stroke-width="4.0" stroke-linejoin="round" stroke-linecap="butt" d="m170.43767 44.65701l16.94609 -0.1694603" fill-rule="evenodd"/><path fill="#000000" stroke="#000000" stroke-width="4.0" stroke-linecap="butt" d="m187.44981 51.094147l18.085419 -6.7881126l-18.217545 -6.425087z" fill-rule="evenodd"/><path fill="#000000" fill-opacity="0.0" d="m284.75986 85.4639l0 37.32283" fill-rule="evenodd"/><path stroke="#000000" stroke-width="4.0" stroke-linejoin="round" stroke-linecap="butt" d="m284.75986 85.4639l0 13.32283" fill-rule="evenodd"/><path fill="#000000" stroke="#000000" stroke-width="4.0" stroke-linecap="butt" d="m278.15292 98.78673l6.6069336 18.15239l6.606903 -18.15239z" fill-rule="evenodd"/><path fill="#000000" fill-opacity="0.0" d="m408.27036 132.9704l124.53543 0l0 56.566925l-124.53543 0z" fill-rule="evenodd"/><path fill="#000000" d="m420.00473 153.68727q0 1.953125 -0.65625 3.40625q-0.640625 1.453125 -1.84375 2.21875q-1.203125 0.765625 -2.8125 0.765625q-1.5625 0 -2.78125 -0.765625q-1.203125 -0.78125 -1.875 -2.203125q-0.671875 -1.421875 -0.6875 -3.296875l0 -0.96875q0 -1.90625 0.65625 -3.375q0.671875 -1.46875 1.890625 -2.25q1.21875 -0.78125 2.78125 -0.78125q1.59375 0 2.8125 0.78125q1.21875 0.765625 1.859375 2.234375q0.65625 1.453125 0.65625 3.390625l0 0.84375zm-1.734375 -0.859375q0 -2.359375 -0.953125 -3.609375q-0.9375 -1.265625 -2.640625 -1.265625q-1.65625 0 -2.609375 1.265625q-0.953125 1.25 -0.984375 3.5l0 0.96875q0 2.28125 0.953125 3.59375q0.96875 1.3125 2.65625 1.3125q1.6875 0 2.609375 -1.234375q0.9375 -1.234375 0.96875 -3.546875l0 -0.984375zm10.185547 6.09375q-0.984375 1.15625 -2.890625 1.15625q-1.578125 0 -2.40625 -0.921875q-0.8125 -0.921875 -0.828125 -2.703125l0 -6.421875l1.6875 0l0 6.375q0 2.234375 1.828125 2.234375q1.921875 0 2.5625 -1.4375l0 -7.171875l1.6875 0l0 9.859375l-1.609375 0l-0.03125 -0.96875zm6.487732 -11.28125l0 2.390625l1.84375 0l0 1.3125l-1.84375 0l0 6.109375q0 0.59375 0.234375 0.890625q0.25 0.296875 0.84375 0.296875q0.296875 0 0.8125 -0.109375l0 1.359375q-0.671875 0.1875 -1.296875 0.1875q-1.125 0 -1.703125 -0.6875q-0.578125 -0.6875 -0.578125 -1.9375l0 -6.109375l-1.796875 0l0 -1.3125l1.796875 0l0 -2.390625l1.6875 0zm12.125519 7.4375q0 2.25 -1.03125 3.625q-1.015625 1.375 -2.78125 1.375q-1.796875 0 -2.828125 -1.140625l0 4.75l-1.671875 0l0 -13.65625l1.53125 0l0.078125 1.09375q1.03125 -1.265625 2.859375 -1.265625q1.78125 0 2.8125 1.34375q1.03125 1.328125 1.03125 3.71875l0 0.15625zm-1.671875 -0.203125q0 -1.65625 -0.71875 -2.625q-0.703125 -0.96875 -1.953125 -0.96875q-1.53125 0 -2.296875 1.359375l0 4.703125q0.765625 1.359375 2.328125 1.359375q1.203125 0 1.921875 -0.953125q0.71875 -0.96875 0.71875 -2.875zm9.904297 4.046875q-0.984375 1.15625 -2.890625 1.15625q-1.578125 0 -2.40625 -0.921875q-0.8125 -0.921875 -0.828125 -2.703125l0 -6.421875l1.6875 0l0 6.375q0 2.234375 1.828125 2.234375q1.921875 0 2.5625 -1.4375l0 -7.171875l1.6875 0l0 9.859375l-1.609375 0l-0.03125 -0.96875zm6.4877625 -11.28125l0 2.390625l1.84375 0l0 1.3125l-1.84375 0l0 6.109375q0 0.59375 0.234375 0.890625q0.25 0.296875 0.84375 0.296875q0.296875 0 0.8125 -0.109375l0 1.359375q-0.671875 0.1875 -1.296875 0.1875q-1.125 0 -1.703125 -0.6875q-0.578125 -0.6875 -0.578125 -1.9375l0 -6.109375l-1.796875 0l0 -1.3125l1.796875 0l0 -2.390625l1.6875 0z" fill-rule="nonzero"/><path fill="#000000" d="m409.0516 172.42165q0 -1.3125 0.34375 -2.53125q0.359375 -1.21875 1.0625 -2.21875q0.703125 -1.0 1.46875 -1.40625l0.21875 0.71875q-0.859375 0.65625 -1.40625 2.0q-0.546875 1.34375 -0.59375 3.015625l-0.015625 0.5q0 2.265625 0.828125 3.921875q0.5 1.0 1.1875 1.5625l-0.21875 0.65625q-0.78125 -0.421875 -1.5 -1.453125q-1.375 -1.984375 -1.375 -4.765625zm9.4921875 0.375q0 1.4375 -0.65625 2.328125q-0.65625 0.890625 -1.796875 0.890625q-1.15625 0 -1.8125 -0.734375l0 3.046875l-1.078125 0l0 -8.78125l0.984375 0l0.046875 0.703125q0.671875 -0.8125 1.84375 -0.8125q1.140625 0 1.796875 0.859375q0.671875 0.859375 0.671875 2.390625l0 0.109375zm-1.078125 -0.125q0 -1.078125 -0.46875 -1.6875q-0.453125 -0.625 -1.25 -0.625q-0.984375 0 -1.46875 0.859375l0 3.03125q0.484375 0.875 1.484375 0.875q0.78125 0 1.234375 -0.609375q0.46875 -0.625 0.46875 -1.84375zm5.529297 -2.15625q-0.25 -0.03125 -0.53125 -0.03125q-1.078125 0 -1.453125 0.90625l0 4.5l-1.078125 0l0 -6.34375l1.046875 0l0.015625 0.734375q0.53125 -0.84375 1.515625 -0.84375q0.3125 0 0.484375 0.078125l0 1.0zm3.5117188 5.5q-1.296875 0 -2.109375 -0.84375q-0.796875 -0.859375 -0.796875 -2.28125l0 -0.1875q0 -0.953125 0.359375 -1.6875q0.359375 -0.75 1.0 -1.15625q0.65625 -0.421875 1.40625 -0.421875q1.234375 0 1.921875 0.8125q0.6875 0.8125 0.6875 2.328125l0 0.453125l-4.296875 0q0.03125 0.9375 0.546875 1.515625q0.53125 0.578125 1.34375 0.578125q0.5625 0 0.953125 -0.234375q0.40625 -0.234375 0.71875 -0.625l0.65625 0.515625q-0.796875 1.234375 -2.390625 1.234375zm-0.140625 -5.6875q-0.65625 0 -1.109375 0.484375q-0.4375 0.46875 -0.53125 1.328125l3.171875 0l0 -0.078125q-0.046875 -0.828125 -0.453125 -1.28125q-0.390625 -0.453125 -1.078125 -0.453125zm3.6074219 2.34375q0 -1.46875 0.6875 -2.34375q0.6875 -0.890625 1.8125 -0.890625q1.109375 0 1.765625 0.75l0 -3.296875l1.078125 0l0 9.0l-1.0 0l-0.046875 -0.6875q-0.65625 0.8125 -1.8125 0.8125q-1.09375 0 -1.796875 -0.90625q-0.6875 -0.90625 -0.6875 -2.359375l0 -0.078125zm1.078125 0.125q0 1.078125 0.4375 1.6875q0.453125 0.609375 1.234375 0.609375q1.03125 0 1.515625 -0.9375l0 -2.90625q-0.484375 -0.890625 -1.5 -0.890625q-0.796875 0 -1.25 0.609375q-0.4375 0.609375 -0.4375 1.828125zm7.126953 3.09375l-1.078125 0l0 -6.34375l1.078125 0l0 6.34375zm-1.171875 -8.015625q0 -0.265625 0.15625 -0.453125q0.171875 -0.1875 0.484375 -0.1875q0.3125 0 0.46875 0.1875q0.171875 0.1875 0.171875 0.453125q0 0.25 -0.171875 0.4375q-0.15625 0.171875 -0.46875 0.171875q-0.3125 0 -0.484375 -0.171875q-0.15625 -0.1875 -0.15625 -0.4375zm5.4433594 7.25q0.578125 0 1.015625 -0.34375q0.4375 -0.359375 0.484375 -0.890625l1.03125 0q-0.03125 0.546875 -0.390625 1.046875q-0.34375 0.484375 -0.921875 0.78125q-0.5625 0.296875 -1.21875 0.296875q-1.296875 0 -2.0625 -0.859375q-0.75 -0.875 -0.75 -2.375l0 -0.1875q0 -0.921875 0.328125 -1.640625q0.34375 -0.71875 0.96875 -1.109375q0.640625 -0.40625 1.515625 -0.40625q1.0625 0 1.765625 0.640625q0.71875 0.625 0.765625 1.65625l-1.03125 0q-0.046875 -0.625 -0.46875 -1.015625q-0.421875 -0.390625 -1.03125 -0.390625q-0.828125 0 -1.28125 0.59375q-0.453125 0.59375 -0.453125 1.71875l0 0.203125q0 1.09375 0.453125 1.6875q0.453125 0.59375 1.28125 0.59375zm5.21875 -7.109375l0 1.53125l1.171875 0l0 0.84375l-1.171875 0l0 3.921875q0 0.390625 0.15625 0.578125q0.15625 0.1875 0.53125 0.1875q0.1875 0 0.515625 -0.0625l0 0.875q-0.421875 0.125 -0.828125 0.125q-0.71875 0 -1.09375 -0.4375q-0.375 -0.453125 -0.375 -1.265625l0 -3.921875l-1.15625 0l0 -0.84375l1.15625 0l0 -1.53125l1.09375 0zm3.6230469 7.875l-1.078125 0l0 -6.34375l1.078125 0l0 6.34375zm-1.171875 -8.015625q0 -0.265625 0.15625 -0.453125q0.171875 -0.1875 0.484375 -0.1875q0.3125 0 0.46875 0.1875q0.171875 0.1875 0.171875 0.453125q0 0.25 -0.171875 0.4375q-0.15625 0.171875 -0.46875 0.171875q-0.3125 0 -0.484375 -0.171875q-0.15625 -0.1875 -0.15625 -0.4375zm2.6152344 4.78125q0 -0.921875 0.359375 -1.671875q0.375 -0.75 1.03125 -1.140625q0.65625 -0.40625 1.484375 -0.40625q1.296875 0 2.09375 0.890625q0.8125 0.890625 0.8125 2.390625l0 0.078125q0 0.921875 -0.359375 1.65625q-0.359375 0.734375 -1.015625 1.15625q-0.65625 0.40625 -1.515625 0.40625q-1.28125 0 -2.09375 -0.890625q-0.796875 -0.90625 -0.796875 -2.390625l0 -0.078125zm1.09375 0.140625q0 1.046875 0.484375 1.6875q0.5 0.640625 1.3125 0.640625q0.828125 0 1.3125 -0.640625q0.484375 -0.65625 0.484375 -1.828125q0 -1.03125 -0.5 -1.671875q-0.484375 -0.65625 -1.3125 -0.65625q-0.796875 0 -1.296875 0.640625q-0.484375 0.625 -0.484375 1.828125zm7.0625 -3.25l0.03125 0.796875q0.734375 -0.90625 1.90625 -0.90625q2.015625 0 2.03125 2.265625l0 4.1875l-1.09375 0l0 -4.203125q0 -0.671875 -0.3125 -1.0q-0.296875 -0.328125 -0.953125 -0.328125q-0.53125 0 -0.9375 0.28125q-0.390625 0.28125 -0.609375 0.734375l0 4.515625l-1.078125 0l0 -6.34375l1.015625 0zm8.105469 2.9375q0 1.3125 -0.34375 2.515625q-0.34375 1.1875 -1.0625 2.203125q-0.703125 1.015625 -1.46875 1.4375l-0.234375 -0.65625q0.90625 -0.6875 1.453125 -2.140625q0.546875 -1.46875 0.5625 -3.234375l0 -0.1875q0 -1.234375 -0.265625 -2.296875q-0.25 -1.0625 -0.71875 -1.890625q-0.453125 -0.84375 -1.03125 -1.3125l0.234375 -0.65625q0.765625 0.421875 1.46875 1.421875q0.703125 1.0 1.046875 2.21875q0.359375 1.203125 0.359375 2.578125z" fill-rule="nonzero"/><path fill="#000000" fill-opacity="0.0" d="m358.13715 161.32327l40.944885 -0.40945435" fill-rule="evenodd"/><path stroke="#000000" stroke-width="4.0" stroke-linejoin="round" stroke-linecap="butt" d="m358.13715 161.32327l16.946075 -0.16947937" fill-rule="evenodd"/><path fill="#000000" stroke="#000000" stroke-width="4.0" stroke-linecap="butt" d="m375.1493 167.7604l18.085419 -6.7881165l-18.21756 -6.4250793z" fill-rule="evenodd"/><path fill="#000000" fill-opacity="0.0" d="m51.92651 112.11067l109.32283 0l0 42.015747l-109.32283 0z" fill-rule="evenodd"/><path fill="#000000" d="m122.45781 139.03067l-1.75 0l0 -13.265625l1.75 0l0 13.265625zm4.527115 -9.859375l0.046875 1.234375q1.125 -1.40625 2.953125 -1.40625q3.125 0 3.15625 3.515625l0 6.515625l-1.6875 0l0 -6.515625q-0.015625 -1.078125 -0.5 -1.578125q-0.46875 -0.515625 -1.484375 -0.515625q-0.8125 0 -1.4375 0.4375q-0.609375 0.4375 -0.96875 1.15625l0 7.015625l-1.671875 0l0 -9.859375l1.59375 0zm17.012482 5.046875q0 2.25 -1.03125 3.625q-1.015625 1.375 -2.78125 1.375q-1.796875 0 -2.828125 -1.140625l0 4.75l-1.671875 0l0 -13.65625l1.53125 0l0.078125 1.09375q1.03125 -1.265625 2.859375 -1.265625q1.78125 0 2.8125 1.34375q1.03125 1.328125 1.03125 3.71875l0 0.15625zm-1.671875 -0.203125q0 -1.65625 -0.71875 -2.625q-0.703125 -0.96875 -1.953125 -0.96875q-1.53125 0 -2.296875 1.359375l0 4.703125q0.765625 1.359375 2.328125 1.359375q1.203125 0 1.921875 -0.953125q0.71875 -0.96875 0.71875 -2.875zm9.904312 4.046875q-0.984375 1.15625 -2.890625 1.15625q-1.578125 0 -2.40625 -0.921875q-0.8125 -0.921875 -0.828125 -2.703125l0 -6.421875l1.6875 0l0 6.375q0 2.234375 1.828125 2.234375q1.921875 0 2.5625 -1.4375l0 -7.171875l1.6875 0l0 9.859375l-1.609375 0l-0.03125 -0.96875zm6.487747 -11.28125l0 2.390625l1.84375 0l0 1.3125l-1.84375 0l0 6.109375q0 0.59375 0.234375 0.890625q0.25 0.296875 0.84375 0.296875q0.296875 0 0.8125 -0.109375l0 1.359375q-0.671875 0.1875 -1.296875 0.1875q-1.125 0 -1.703125 -0.6875q-0.578125 -0.6875 -0.578125 -1.9375l0 -6.109375l-1.796875 0l0 -1.3125l1.796875 0l0 -2.390625l1.6875 0z" fill-rule="nonzero"/><path fill="#000000" fill-opacity="0.0" d="m51.92651 168.11067l109.32283 0l0 42.015747l-109.32283 0z" fill-rule="evenodd"/><path fill="#000000" d="m103.07803 189.84317l0 5.1875l-1.734375 0l0 -13.265625l4.890625 0q2.171875 0 3.40625 1.109375q1.234375 1.109375 1.234375 2.953125q0 1.921875 -1.21875 2.96875q-1.203125 1.046875 -3.453125 1.046875l-3.125 0zm0 -1.4375l3.15625 0q1.390625 0 2.140625 -0.65625q0.75 -0.65625 0.75 -1.90625q0 -1.1875 -0.75 -1.890625q-0.75 -0.71875 -2.046875 -0.75l-3.25 0l0 5.203125zm14.535095 -1.71875q-0.390625 -0.0625 -0.84375 -0.0625q-1.65625 0 -2.25 1.40625l0 7.0l-1.671875 0l0 -9.859375l1.640625 0l0.015625 1.140625q0.828125 -1.3125 2.359375 -1.3125q0.484375 0 0.75 0.125l0 1.5625zm0.9118347 3.328125q0 -1.453125 0.5625 -2.609375q0.578125 -1.15625 1.59375 -1.78125q1.015625 -0.625 2.3125 -0.625q2.015625 0 3.25 1.390625q1.25 1.390625 1.25 3.703125l0 0.125q0 1.4375 -0.546875 2.578125q-0.546875 1.140625 -1.578125 1.78125q-1.015625 0.640625 -2.359375 0.640625q-2.0 0 -3.25 -1.390625q-1.234375 -1.40625 -1.234375 -3.703125l0 -0.109375zm1.6875 0.203125q0 1.640625 0.765625 2.640625q0.765625 0.984375 2.03125 0.984375q1.296875 0 2.046875 -1.0q0.75 -1.015625 0.75 -2.828125q0 -1.625 -0.765625 -2.625q-0.765625 -1.015625 -2.046875 -1.015625q-1.25 0 -2.015625 1.0q-0.765625 0.984375 -0.765625 2.84375zm10.983643 -5.046875l0.046875 1.09375q1.078125 -1.265625 2.921875 -1.265625q2.0625 0 2.8125 1.578125q0.5 -0.71875 1.28125 -1.140625q0.796875 -0.4375 1.859375 -0.4375q3.25 0 3.296875 3.421875l0 6.609375l-1.671875 0l0 -6.5q0 -1.0625 -0.484375 -1.578125q-0.484375 -0.53125 -1.625 -0.53125q-0.9375 0 -1.5625 0.5625q-0.609375 0.5625 -0.71875 1.5l0 6.546875l-1.6875 0l0 -6.453125q0 -2.15625 -2.109375 -2.15625q-1.65625 0 -2.265625 1.40625l0 7.203125l-1.6875 0l0 -9.859375l1.59375 0zm23.085922 5.046875q0 2.25 -1.03125 3.625q-1.015625 1.375 -2.78125 1.375q-1.796875 0 -2.828125 -1.140625l0 4.75l-1.671875 0l0 -13.65625l1.53125 0l0.078125 1.09375q1.03125 -1.265625 2.859375 -1.265625q1.78125 0 2.8125 1.34375q1.03125 1.328125 1.03125 3.71875l0 0.15625zm-1.671875 -0.203125q0 -1.65625 -0.71875 -2.625q-0.703125 -0.96875 -1.953125 -0.96875q-1.53125 0 -2.296875 1.359375l0 4.703125q0.765625 1.359375 2.328125 1.359375q1.203125 0 1.921875 -0.953125q0.71875 -0.96875 0.71875 -2.875zm6.107437 -7.234375l0 2.390625l1.84375 0l0 1.3125l-1.84375 0l0 6.109375q0 0.59375 0.234375 0.890625q0.25 0.296875 0.84375 0.296875q0.296875 0 0.8125 -0.109375l0 1.359375q-0.671875 0.1875 -1.296875 0.1875q-1.125 0 -1.703125 -0.6875q-0.578125 -0.6875 -0.578125 -1.9375l0 -6.109375l-1.796875 0l0 -1.3125l1.796875 0l0 -2.390625l1.6875 0z" fill-rule="nonzero"/><path fill="#000000" fill-opacity="0.0" d="m170.36482 186.48131l41.133865 -21.984253" fill-rule="evenodd"/><path stroke="#000000" stroke-width="4.0" stroke-linejoin="round" stroke-linecap="butt" d="m170.36482 186.4813l19.967285 -10.671616" fill-rule="evenodd"/><path fill="#000000" stroke="#000000" stroke-width="4.0" stroke-linecap="butt" d="m193.44633 181.6366l12.895111 -14.3832245l-19.12358 2.72937z" fill-rule="evenodd"/><path fill="#000000" fill-opacity="0.0" d="m170.36482 136.29034l41.133865 21.984253" fill-rule="evenodd"/><path stroke="#000000" stroke-width="4.0" stroke-linejoin="round" stroke-linecap="butt" d="m170.36482 136.29036l19.967285 10.671631" fill-rule="evenodd"/><path fill="#000000" stroke="#000000" stroke-width="4.0" stroke-linecap="butt" d="m187.21786 152.78891l19.12358 2.72937l-12.895111 -14.3832245z" fill-rule="evenodd"/></g></svg>