<svg version="1.1" viewBox="0.0 0.0 447.3517060367454 449.501312335958" fill="none" stroke="none" stroke-linecap="square" stroke-miterlimit="10" xmlns:xlink="http://www.w3.org/1999/xlink" xmlns="http://www.w3.org/2000/svg"><clipPath id="p.0"><path d="m0 0l447.3517 0l0 449.5013l-447.3517 0l0 -449.5013z" clip-rule="nonzero"/></clipPath><g clip-path="url(#p.0)"><path fill="#000000" fill-opacity="0.0" d="m0 0l447.3517 0l0 449.5013l-447.3517 0z" fill-rule="evenodd"/><path fill="#ffffff" d="m54.07137 56.272545l390.86612 0l0 389.92126l-390.86612 0z" fill-rule="evenodd"/><path fill="#000000" fill-opacity="0.0" d="m136.93752 -8.529207l223.9055 0l0 42.015747l-223.9055 0z" fill-rule="evenodd"/><path fill="#000000" d="m208.25487 18.39079l0 -13.359375l4.328125 0q2.453125 0 3.203125 0.203125q1.140625 0.296875 1.921875 1.3125q0.78125 1.0 0.78125 2.59375q0 1.234375 -0.453125 2.078125q-0.453125 0.828125 -1.140625 1.3125q-0.6875 0.46875 -1.390625 0.625q-0.96875 0.203125 -2.796875 0.203125l-1.765625 0l0 5.03125l-2.6875 0zm2.6875 -11.09375l0 3.78125l1.484375 0q1.59375 0 2.125 -0.203125q0.546875 -0.203125 0.84375 -0.65625q0.3125 -0.453125 0.3125 -1.03125q0 -0.734375 -0.4375 -1.203125q-0.421875 -0.484375 -1.078125 -0.59375q-0.484375 -0.09375 -1.9375 -0.09375l-1.3125 0zm12.193573 11.09375l-2.5625 0l0 -9.671875l2.375 0l0 1.375q0.609375 -0.984375 1.09375 -1.28125q0.484375 -0.3125 1.109375 -0.3125q0.875 0 1.6875 0.484375l-0.796875 2.234375q-0.640625 -0.421875 -1.203125 -0.421875q-0.53125 0 -0.90625 0.296875q-0.375 0.296875 -0.59375 1.078125q-0.203125 0.765625 -0.203125 3.234375l0 2.984375zm10.400894 -3.078125l2.546875 0.421875q-0.484375 1.40625 -1.546875 2.140625q-1.0625 0.734375 -2.65625 0.734375q-2.515625 0 -3.734375 -1.65625q-0.953125 -1.3125 -0.953125 -3.328125q0 -2.40625 1.25 -3.765625q1.265625 -1.359375 3.1875 -1.359375q2.15625 0 3.40625 1.421875q1.25 1.421875 1.1875 4.375l-6.40625 0q0.03125 1.140625 0.609375 1.78125q0.59375 0.625 1.484375 0.625q0.59375 0 1.0 -0.328125q0.421875 -0.328125 0.625 -1.0625zm0.15625 -2.59375q-0.03125 -1.109375 -0.578125 -1.6875q-0.546875 -0.578125 -1.328125 -0.578125q-0.84375 0 -1.390625 0.609375q-0.546875 0.609375 -0.53125 1.65625l3.828125 0zm13.063217 -1.140625l-2.53125 0.453125q-0.125 -0.75 -0.578125 -1.125q-0.453125 -0.390625 -1.171875 -0.390625q-0.953125 0 -1.53125 0.65625q-0.5625 0.65625 -0.5625 2.203125q0 1.734375 0.578125 2.4375q0.578125 0.703125 1.546875 0.703125q0.734375 0 1.203125 -0.40625q0.46875 -0.421875 0.65625 -1.421875l2.515625 0.421875q-0.390625 1.734375 -1.515625 2.625q-1.109375 0.875 -2.96875 0.875q-2.125 0 -3.390625 -1.328125q-1.25 -1.34375 -1.25 -3.71875q0 -2.390625 1.265625 -3.71875q1.265625 -1.34375 3.421875 -1.34375q1.765625 0 2.796875 0.765625q1.046875 0.75 1.515625 2.3125zm1.9382172 -4.171875l0 -2.375l2.5625 0l0 2.375l-2.5625 0zm0 10.984375l0 -9.671875l2.5625 0l0 9.671875l-2.5625 0zm4.277054 -2.765625l2.5625 -0.390625q0.171875 0.75 0.67185974 1.140625q0.5 0.390625 1.40625 0.390625q0.984375 0 1.484375 -0.375q0.34375 -0.25 0.34375 -0.671875q0 -0.296875 -0.1875 -0.484375q-0.1875 -0.1875 -0.859375 -0.34375q-3.0937347 -0.6875 -3.9218597 -1.25q-1.140625 -0.78125 -1.140625 -2.171875q0 -1.265625 0.984375 -2.109375q1.0 -0.859375 3.0781097 -0.859375q1.984375 0 2.953125 0.65625q0.96875 0.640625 1.328125 1.90625l-2.40625 0.4375q-0.15625 -0.5625 -0.59375 -0.859375q-0.421875 -0.296875 -1.234375 -0.296875q-1.0 0 -1.4375 0.28125q-0.29685974 0.203125 -0.29685974 0.515625q0 0.265625 0.25 0.46875q0.34373474 0.25 2.3906097 0.71875q2.046875 0.453125 2.859375 1.140625q0.796875 0.671875 0.796875 1.890625q0 1.34375 -1.109375 2.296875q-1.109375 0.953125 -3.28125 0.953125q-1.9843597 0 -3.1406097 -0.796875q-1.140625 -0.8125 -1.5 -2.1875zm11.281967 -8.21875l0 -2.375l2.5625 0l0 2.375l-2.5625 0zm0 10.984375l0 -9.671875l2.5625 0l0 9.671875l-2.5625 0zm4.5895386 -4.96875q0 -1.28125 0.625 -2.46875q0.625 -1.203125 1.78125 -1.828125q1.15625 -0.625 2.578125 -0.625q2.1875 0 3.59375 1.421875q1.40625 1.421875 1.40625 3.609375q0 2.1875 -1.421875 3.640625q-1.421875 1.4375 -3.5625 1.4375q-1.328125 0 -2.546875 -0.59375q-1.203125 -0.609375 -1.828125 -1.765625q-0.625 -1.171875 -0.625 -2.828125zm2.625 0.125q0 1.453125 0.671875 2.21875q0.6875 0.75 1.6875 0.75q1.0 0 1.671875 -0.75q0.6875 -0.765625 0.6875 -2.234375q0 -1.421875 -0.6875 -2.1875q-0.671875 -0.765625 -1.671875 -0.765625q-1.0 0 -1.6875 0.765625q-0.671875 0.765625 -0.671875 2.203125zm18.161621 4.84375l-2.5625 0l0 -4.9375q0 -1.5625 -0.171875 -2.015625q-0.15625 -0.46875 -0.53125 -0.71875q-0.359375 -0.265625 -0.875 -0.265625q-0.671875 0 -1.203125 0.375q-0.53125 0.359375 -0.734375 0.96875q-0.1875 0.59375 -0.1875 2.21875l0 4.375l-2.546875 0l0 -9.671875l2.375 0l0 1.421875q1.265625 -1.640625 3.1875 -1.640625q0.84375 0 1.546875 0.3125q0.703125 0.296875 1.0625 0.78125q0.359375 0.46875 0.5 1.078125q0.140625 0.59375 0.140625 1.703125l0 6.015625z" fill-rule="nonzero"/><path fill="#000000" fill-opacity="0.0" d="m-10.185981 398.86957l-0.062992096 -294.74014l42.015747 0l0.062992096 294.74014z" fill-rule="evenodd"/><path fill="#000000" d="m16.708633 280.09714l6.275177E-4 2.9375l-3.0309982 1.171875l0.0011386871 5.328125l3.0314865 1.109375l6.122589E-4 2.859375l-13.360488 -5.203125l-6.0772896E-4 -2.84375l13.358229 -5.359375zm-5.2801876 4.96875l-4.952731 1.84375l4.9535093 1.796875l-7.7819824E-4 -3.640625zm-1.5344162 -14.816711l0.45366573 2.53125q-0.7499733 0.125 -1.124877 0.578125q-0.39052773 0.453125 -0.39037418 1.171875q2.040863E-4 0.953125 0.6565771 1.53125q0.65637016 0.5625 2.2032452 0.5625q1.734375 0 2.437377 -0.578125q0.703001 -0.578125 0.7027941 -1.546875q-1.5640259E-4 -0.734375 -0.4065075 -1.203125q-0.42197514 -0.46875 -1.4220152 -0.65625l0.42133808 -2.515625q1.734458 0.390625 2.6253242 1.515625q0.8752365 1.109375 0.87563324 2.96875q4.5394897E-4 2.125 -1.3274002 3.390625q-1.343482 1.25 -3.718482 1.25q-2.390626 0 -3.7190208 -1.265625q-1.3440208 -1.265625 -1.3444815 -3.421875q-3.7765503E-4 -1.765625 0.76502705 -2.796875q0.74977684 -1.046875 2.3121767 -1.515625zm-0.0022182465 -10.375702l0.4536667 2.53125q-0.7499733 0.125 -1.124877 0.578125q-0.39052773 0.453125 -0.39037418 1.171875q2.0313263E-4 0.953125 0.6565771 1.53125q0.65637016 0.5625 2.2032452 0.5625q1.734375 0 2.437377 -0.578125q0.703001 -0.578125 0.7027941 -1.546875q-1.5735626E-4 -0.734375 -0.4065075 -1.203125q-0.42197514 -0.46875 -1.4220152 -0.65625l0.42133713 -2.515625q1.7344589 0.390625 2.6253242 1.515625q0.8752365 1.109375 0.87563515 2.96875q4.5394897E-4 2.125 -1.3274012 3.390625q-1.343483 1.25 -3.718483 1.25q-2.390625 0 -3.71902 -1.265625q-1.3440208 -1.265625 -1.344482 -3.421875q-3.771782E-4 -1.765625 0.7650275 -2.796875q0.7497759 -1.046875 2.3121758 -1.515625zm6.810726 -8.297607l-1.453124 0q0.7813635 0.53125 1.2346716 1.390625q0.437685 0.859375 0.4378872 1.8125q2.07901E-4 0.96875 -0.42150116 1.75q-0.43733597 0.765625 -1.2028837 1.125q-0.78117657 0.34375 -2.1405516 0.34375l-6.125 0l-5.478859E-4 -2.5625l4.4375005 0q2.046875 0 2.5155945 -0.140625q0.45309544 -0.140625 0.7186403 -0.515625q0.2655449 -0.375 0.2654209 -0.953125q-1.4019012E-4 -0.65625 -0.35962486 -1.171875q-0.35948563 -0.515625 -0.8907757 -0.703125q-0.53129387 -0.203125 -2.6094189 -0.203125l-4.0781245 0l-5.4454803E-4 -2.546875l9.671875 0l5.0735474E-4 2.375zm-0.0016002655 -7.489731l5.4740906E-4 2.5625l-9.671875 0l-5.0735474E-4 -2.375l1.3749995 0q-0.9845052 -0.609375 -1.2814837 -1.09375q-0.31260347 -0.484375 -0.312737 -1.109375q-1.8692017E-4 -0.87498474 0.4840145 -1.6874847l2.2345452 0.796875q-0.42173767 0.640625 -0.4216175 1.2031097q1.13487244E-4 0.53125 0.2970686 0.90625q0.2969551 0.375 1.0782518 0.59375q0.7656679 0.203125 3.234418 0.203125l2.984375 0zm-6.7201843 -6.713379l-0.42137718 2.328125q-1.4063368 -0.40625 -2.0784159 -1.359375q-0.6720786 -0.953125 -0.67248297 -2.84375q-3.6382675E-4 -1.703125 0.40570593 -2.546875q0.40606976 -0.84375 1.0309992 -1.171875q0.62492657 -0.34375 2.2811766 -0.34375l3.0000038 0.015625q1.265625 0 1.8749762 -0.109375q0.6093483 -0.125 1.2967758 -0.46875l5.3977966E-4 2.53125q-0.2499752 0.109375 -0.74994564 0.25q-0.23436165 0.0625 -0.31247997 0.09375q0.64076424 0.65625 0.96904945 1.40625q0.3126583 0.734375 0.31284142 1.59375q3.1661987E-4 1.484375 -0.81199837 2.34375q-0.8123169 0.859375 -2.046692 0.859375q-0.828125 0 -1.4688339 -0.390625q-0.64070797 -0.390625 -0.96898365 -1.09375q-0.34390068 -0.703125 -0.6098089 -2.03125q-0.32850933 -1.796875 -0.6255312 -2.484375l-0.25 0q-0.75 0 -1.0624228 0.359375q-0.3124237 0.359375 -0.31220627 1.375q1.4686584E-4 0.6875 0.28147984 1.078125q0.2657051 0.375 0.93763065 0.609375zm2.0773935 -3.421875q0.15635395 0.484375 0.3909588 1.5625q0.21897697 1.0625 0.43779755 1.390625q0.3594818 0.5 0.9063568 0.5q0.53125 0 0.9374132 -0.40625q0.39053822 -0.40625 0.39040756 -1.015625q-1.4972687E-4 -0.703125 -0.46903324 -1.328125q-0.34385014 -0.46875 -0.84388065 -0.609375q-0.32814503 -0.09375 -1.25002 -0.09375l-0.5 0zm-2.174757 -13.485092l0.45366573 2.53125q-0.7499733 0.125 -1.124876 0.578125q-0.39052868 0.453125 -0.39037514 1.171875q2.040863E-4 0.953125 0.65657806 1.53125q0.65637016 0.5625 2.2032452 0.5625q1.734375 0 2.437376 -0.578125q0.703002 -0.578125 0.702795 -1.546875q-1.5735626E-4 -0.734375 -0.4065075 -1.203125q-0.42197514 -0.46875 -1.4220152 -0.65625l0.42133713 -2.515625q1.7344589 0.390625 2.6253233 1.515625q0.8752384 1.109375 0.87563515 2.96875q4.5394897E-4 2.125 -1.3274002 3.390625q-1.343483 1.25 -3.718483 1.25q-2.390625 0 -3.7190208 -1.265625q-1.3440204 -1.265625 -1.344481 -3.421875q-3.7765503E-4 -1.765625 0.76502705 -2.796875q0.74977636 -1.046875 2.3121762 -1.515625zm-2.859529 -0.71946716l-5.8078766E-4 -2.71875l6.8588777 -2.328125l-6.859856 -2.25l-5.6791306E-4 -2.65625l9.313231 3.421875l1.6876297 0.609375q0.8438206 0.328125 1.2813873 0.640625q0.45319176 0.3125 0.7189007 0.703125q0.28133392 0.390625 0.4377079 0.96875q0.15637207 0.578125 0.15653038 1.3125q1.5640259E-4 0.734375 -0.15594101 1.453125l-1.9999523 0.21875q0.12487221 -0.59375 0.12476921 -1.078125q-1.9073486E-4 -0.890625 -0.5315304 -1.3125q-0.51571846 -0.4375 -1.328268 -0.671875l-9.702337 3.6875z" fill-rule="nonzero"/><path fill="#000000" fill-opacity="0.0" d="m77.866646 13.374908l147.37009 0l0 42.015747l-147.37009 0z" fill-rule="evenodd"/><path fill="#000000" d="m133.86708 40.294907l0 -13.359375l1.765625 0l0 5.484375l6.9375 0l0 -5.484375l1.765625 0l0 13.359375l-1.765625 0l0 -6.296875l-6.9375 0l0 6.296875l-1.765625 0zm13.207321 -11.46875l0 -1.890625l1.640625 0l0 1.890625l-1.640625 0zm0 11.46875l0 -9.671875l1.640625 0l0 9.671875l-1.640625 0zm3.8323212 0.796875l1.59375 0.234375q0.109375 0.75 0.5625 1.078125q0.609375 0.453125 1.671875 0.453125q1.140625 0 1.75 -0.453125q0.625 -0.453125 0.84375 -1.265625q0.125 -0.5 0.109375 -2.109375q-1.0625 1.265625 -2.671875 1.265625q-2.0 0 -3.09375 -1.4375q-1.09375 -1.4375 -1.09375 -3.453125q0 -1.390625 0.5 -2.5625q0.515625 -1.171875 1.453125 -1.796875q0.953125 -0.640625 2.25 -0.640625q1.703125 0 2.8125 1.375l0 -1.15625l1.515625 0l0 8.359375q0 2.265625 -0.46875 3.203125q-0.453125 0.9375 -1.453125 1.484375q-0.984375 0.546875 -2.453125 0.546875q-1.71875 0 -2.796875 -0.78125q-1.0625 -0.765625 -1.03125 -2.34375zm1.359375 -5.8125q0 1.90625 0.75 2.78125q0.765625 0.875 1.90625 0.875q1.125 0 1.890625 -0.859375q0.765625 -0.875 0.765625 -2.734375q0 -1.78125 -0.796875 -2.671875q-0.78125 -0.90625 -1.890625 -0.90625q-1.09375 0 -1.859375 0.890625q-0.765625 0.875 -0.765625 2.625zm9.328842 5.015625l0 -13.359375l1.640625 0l0 4.796875q1.140625 -1.328125 2.890625 -1.328125q1.078125 0 1.859375 0.421875q0.796875 0.421875 1.140625 1.171875q0.34375 0.75 0.34375 2.171875l0 6.125l-1.640625 0l0 -6.125q0 -1.234375 -0.53125 -1.796875q-0.53125 -0.5625 -1.515625 -0.5625q-0.71875 0 -1.359375 0.390625q-0.640625 0.375 -0.921875 1.015625q-0.265625 0.640625 -0.265625 1.78125l0 5.296875l-1.640625 0z" fill-rule="nonzero"/><path fill="#000000" fill-opacity="0.0" d="m272.82727 13.374908l147.37009 0l0 42.015747l-147.37009 0z" fill-rule="evenodd"/><path fill="#000000" d="m330.7595 40.294907l0 -13.359375l1.78125 0l0 11.78125l6.5625 0l0 1.578125l-8.34375 0zm9.641357 -4.84375q0 -2.6875 1.484375 -3.96875q1.25 -1.078125 3.046875 -1.078125q2.0 0 3.265625 1.3125q1.265625 1.296875 1.265625 3.609375q0 1.859375 -0.5625 2.9375q-0.5625 1.0625 -1.640625 1.65625q-1.0625 0.59375 -2.328125 0.59375q-2.03125 0 -3.28125 -1.296875q-1.25 -1.3125 -1.25 -3.765625zm1.6875 0q0 1.859375 0.796875 2.796875q0.8125 0.921875 2.046875 0.921875q1.21875 0 2.03125 -0.921875q0.8125 -0.9375 0.8125 -2.84375q0 -1.796875 -0.8125 -2.71875q-0.8125 -0.921875 -2.03125 -0.921875q-1.234375 0 -2.046875 0.921875q-0.796875 0.90625 -0.796875 2.765625zm11.078827 4.84375l-2.96875 -9.671875l1.703125 0l1.53125 5.578125l0.578125 2.078125q0.046875 -0.15625 0.5 -2.0l1.546875 -5.65625l1.6875 0l1.4375 5.609375l0.484375 1.84375l0.5625 -1.859375l1.65625 -5.59375l1.59375 0l-3.03125 9.671875l-1.703125 0l-1.53125 -5.796875l-0.375 -1.640625l-1.953125 7.4375l-1.71875 0z" fill-rule="nonzero"/><path fill="#000000" fill-opacity="0.0" d="m11.529941 407.45364l-0.031496048 -117.480316l42.015747 0l0.031497955 117.480316z" fill-rule="evenodd"/><path fill="#000000" d="m38.438416 364.4663l-13.359377 0l-4.7683716E-4 -1.78125l11.781252 0l-0.0017623901 -6.5625l1.578125 0l0.0022392273 8.34375zm-4.8463364 -9.641357q-2.6875 0 -3.9691467 -1.484375q-1.0784607 -1.25 -1.0789433 -3.046875q-5.3596497E-4 -2.0 1.3116245 -3.265625q1.2965355 -1.265625 3.6090355 -1.265625q1.859375 0 2.9376526 0.5625q1.0626488 0.5625 1.6566887 1.640625q0.5940361 1.0625 0.5943756 2.328125q5.455017E-4 2.03125 -1.2959976 3.28125q-1.3121643 1.25 -3.7652893 1.25zm-4.5013428E-4 -1.6875q1.859375 0 2.7966614 -0.796875q0.92165756 -0.8125 0.9213257 -2.046875q-3.2806396E-4 -1.21875 -0.9224205 -2.03125q-0.93771744 -0.8125 -2.8439674 -0.8125q-1.796875 0 -2.7185326 0.8125q-0.92165756 0.8125 -0.9213314 2.03125q3.3187866E-4 1.234375 0.9224243 2.046875q0.9064636 0.796875 2.7658405 0.796875zm4.8407784 -11.078827l-9.67108 2.96875l-4.5585632E-4 -1.703125l5.577713 -1.53125l2.0779724 -0.578125q-0.15626526 -0.046875 -2.0001335 -0.5l-5.656666 -1.546875l-4.5394897E-4 -1.6875l5.6089897 -1.4375l1.8436203 -0.484375l-1.8595238 -0.5625l-5.5941963 -1.65625l-4.272461E-4 -1.59375l9.672688 3.03125l4.5776367E-4 1.703125l-5.796463 1.53125l-1.6405258 0.375l7.4380226 1.953125l4.6157837E-4 1.71875z" fill-rule="nonzero"/><path fill="#000000" fill-opacity="0.0" d="m11.529941 212.49301l-0.031496048 -117.48031l42.015747 0l0.031497955 117.48031z" fill-rule="evenodd"/><path fill="#000000" d="m38.438934 171.43747l-13.359377 0l-4.7302246E-4 -1.765625l5.484375 0l-0.0018596649 -6.9375l-5.484375 0l-4.749298E-4 -1.765625l13.359377 0l4.7302246E-4 1.765625l-6.296875 0l0.0018577576 6.9375l6.296875 0l4.7683716E-4 1.765625zm-11.472292 -13.207321l-1.8906269 0l-4.386902E-4 -1.640625l1.890625 0l4.4059753E-4 1.640625zm11.468748 0l-9.671873 0l-4.4059753E-4 -1.640625l9.671875 0l4.386902E-4 1.640625zm0.79584885 -3.8323212l0.23394775 -1.59375q0.7499695 -0.109375 1.0779762 -0.5625q0.45296097 -0.609375 0.45267487 -1.671875q-3.0517578E-4 -1.140625 -0.4535942 -1.75q-0.45329285 -0.625 -1.2658501 -0.84375q-0.50003433 -0.125 -2.1094055 -0.109375q1.2659111 1.0625 1.2663422 2.671875q5.340576E-4 2.0 -1.4366722 3.09375q-1.4372063 1.09375 -3.4528313 1.09375q-1.390625 0 -2.5626335 -0.5q-1.1720142 -0.515625 -1.797266 -1.453125q-0.6408806 -0.953125 -0.6412277 -2.25q-4.5585632E-4 -1.703125 1.3742466 -2.8125l-1.15625 0l-4.0626526E-4 -1.515625l8.359377 0q2.265625 0 3.203247 0.46875q0.9376221 0.453125 1.4847679 1.453125q0.5471382 0.984375 0.5475311 2.453125q4.6157837E-4 1.71875 -0.7804985 2.796875q-0.7653427 1.0625 -2.3434753 1.03125zm-5.812866 -1.359375q1.90625 0 2.7810516 -0.75q0.874794 -0.765625 0.87448883 -1.90625q-3.0136108E-4 -1.125 -0.85988235 -1.890625q-0.875206 -0.765625 -2.734581 -0.765625q-1.78125 0 -2.6716614 0.796875q-0.9060402 0.78125 -0.90574265 1.890625q2.937317E-4 1.09375 0.8911228 1.859375q0.875206 0.765625 2.625204 0.765625zm5.0131264 -9.328842l-13.359377 0l-4.386902E-4 -1.640625l4.796875 0q-1.3284302 -1.140625 -1.3288994 -2.890625q-2.89917E-4 -1.078125 0.42137527 -1.859375q0.42166138 -0.796875 1.1715698 -1.140625q0.74990845 -0.34375 2.1717815 -0.34375l6.125 0l4.4250488E-4 1.640625l-6.125 0q-1.2343769 0 -1.7967339 0.53125q-0.56235695 0.53125 -0.56209373 1.515625q1.9264221E-4 0.71875 0.3909893 1.359375q0.37517166 0.640625 1.015873 0.921875q0.6406956 0.265625 1.7813225 0.265625l5.296875 0l4.386902E-4 1.640625z" fill-rule="nonzero"/><path fill="#000000" fill-opacity="0.0" d="m54.07137 56.272545l194.96063 0l0 194.96063l-194.96063 0z" fill-rule="evenodd"/><path stroke="#000000" stroke-width="3.0" stroke-linejoin="round" stroke-linecap="butt" d="m54.07137 56.272545l194.96063 0l0 194.96063l-194.96063 0z" fill-rule="evenodd"/><path fill="#000000" fill-opacity="0.0" d="m151.55168 243.68404l0 -77.25984" fill-rule="evenodd"/><path stroke="#000000" stroke-width="2.0" stroke-linejoin="round" stroke-linecap="butt" d="m151.55168 243.68404l0 -77.25984" fill-rule="evenodd"/><path fill="#000000" fill-opacity="0.0" d="m92.34015 243.17223c7.7257614 -1.4496918 36.44571 4.009613 46.354584 -8.698166c9.90889 -12.707794 8.676193 -67.633865 13.098709 -67.54855c4.422516 0.08529663 3.4712372 55.35257 13.436386 68.06036c9.965164 12.707779 38.62883 6.8219604 46.3546 8.186356" fill-rule="evenodd"/><path stroke="#999999" stroke-width="2.0" stroke-linejoin="round" stroke-linecap="butt" d="m92.34015 243.17223c7.7257614 -1.4496918 36.44571 4.009613 46.354584 -8.698166c9.90889 -12.707794 8.676193 -67.633865 13.098709 -67.54855c4.422516 0.08529663 3.4712372 55.35257 13.436386 68.06036c9.965164 12.707779 38.62883 6.8219604 46.3546 8.186356" fill-rule="evenodd"/><path fill="#000000" fill-opacity="0.0" d="m103.55168 112.51139l0 0c0 -26.509666 21.490334 -48.0 48.0 -48.0l0 0c12.730392 0 24.939377 5.057129 33.94113 14.058876c9.0017395 9.001747 14.058868 21.210732 14.058868 33.941124l0 0c0 26.509666 -21.490326 48.000008 -48.0 48.000008l0 0c-26.509666 0 -48.0 -21.490341 -48.0 -48.000008z" fill-rule="evenodd"/><path stroke="#000000" stroke-width="2.0" stroke-linejoin="round" stroke-linecap="butt" d="m103.55168 112.51139l0 0c0 -26.509666 21.490334 -48.0 48.0 -48.0l0 0c12.730392 0 24.939377 5.057129 33.94113 14.058876c9.0017395 9.001747 14.058868 21.210732 14.058868 33.941124l0 0c0 26.509666 -21.490326 48.000008 -48.0 48.000008l0 0c-26.509666 0 -48.0 -21.490341 -48.0 -48.000008z" fill-rule="evenodd"/><path fill="#000000" fill-opacity="0.0" d="m119.866646 112.51139l0 0c0 -17.49916 14.185875 -31.685036 31.685036 -31.685036l0 0c8.403397 0 16.462616 3.338234 22.404709 9.280327c5.942093 5.9421005 9.280334 14.001312 9.280334 22.404709l0 0c0 17.499168 -14.185883 31.685036 -31.685043 31.685036l0 0c-17.49916 0 -31.685036 -14.185867 -31.685036 -31.685036z" fill-rule="evenodd"/><path stroke="#000000" stroke-width="2.0" stroke-linejoin="round" stroke-linecap="butt" d="m119.866646 112.51139l0 0c0 -17.49916 14.185875 -31.685036 31.685036 -31.685036l0 0c8.403397 0 16.462616 3.338234 22.404709 9.280327c5.942093 5.9421005 9.280334 14.001312 9.280334 22.404709l0 0c0 17.499168 -14.185883 31.685036 -31.685043 31.685036l0 0c-17.49916 0 -31.685036 -14.185867 -31.685036 -31.685036z" fill-rule="evenodd"/><path fill="#000000" fill-opacity="0.0" d="m135.70917 112.51139l0 0c0 -8.74958 7.0929413 -15.842522 15.842514 -15.842522l0 0c4.201706 0 8.231308 1.6691208 11.202362 4.640167c2.9710388 2.971054 4.640167 7.000656 4.640167 11.202354l0 0c0 8.74958 -7.0929413 15.842522 -15.842529 15.842522l0 0c-8.749573 0 -15.842514 -7.0929413 -15.842514 -15.842522z" fill-rule="evenodd"/><path stroke="#000000" stroke-width="2.0" stroke-linejoin="round" stroke-linecap="butt" d="m135.70917 112.51139l0 0c0 -8.74958 7.0929413 -15.842522 15.842514 -15.842522l0 0c4.201706 0 8.231308 1.6691208 11.202362 4.640167c2.9710388 2.971054 4.640167 7.000656 4.640167 11.202354l0 0c0 8.74958 -7.0929413 15.842522 -15.842529 15.842522l0 0c-8.749573 0 -15.842514 -7.0929413 -15.842514 -15.842522z" fill-rule="evenodd"/><path fill="#999999" d="m145.71565 108.99723l2.4671783 -2.4671783l2.620819 2.6208267l2.6208344 -2.6208267l2.467163 2.4671783l-2.620819 2.6208267l2.620819 2.620819l-2.467163 2.4671783l-2.6208344 -2.6208267l-2.620819 2.6208267l-2.4671783 -2.4671783l2.6208344 -2.620819z" fill-rule="evenodd"/><path stroke="#666666" stroke-width="1.0" stroke-linejoin="round" stroke-linecap="butt" d="m145.71565 108.99723l2.4671783 -2.4671783l2.620819 2.6208267l2.6208344 -2.6208267l2.467163 2.4671783l-2.620819 2.6208267l2.620819 2.620819l-2.467163 2.4671783l-2.6208344 -2.6208267l-2.620819 2.6208267l-2.4671783 -2.4671783l2.6208344 -2.620819z" fill-rule="evenodd"/><path fill="#999999" d="m161.71565 108.99723l2.4671783 -2.4671783l2.620819 2.6208267l2.6208344 -2.6208267l2.467163 2.4671783l-2.620819 2.6208267l2.620819 2.620819l-2.467163 2.4671783l-2.6208344 -2.6208267l-2.620819 2.6208267l-2.4671783 -2.4671783l2.6208344 -2.620819z" fill-rule="evenodd"/><path stroke="#666666" stroke-width="1.0" stroke-linejoin="round" stroke-linecap="butt" d="m161.71565 108.99723l2.4671783 -2.4671783l2.620819 2.6208267l2.6208344 -2.6208267l2.467163 2.4671783l-2.620819 2.6208267l2.620819 2.620819l-2.467163 2.4671783l-2.6208344 -2.6208267l-2.620819 2.6208267l-2.4671783 -2.4671783l2.6208344 -2.620819z" fill-rule="evenodd"/><path fill="#999999" d="m153.36104 121.09652l2.4671783 -2.4671707l2.6208344 2.620819l2.620819 -2.620819l2.4671783 2.4671707l-2.6208344 2.6208267l2.6208344 2.6208267l-2.4671783 2.4671707l-2.620819 -2.6208267l-2.6208344 2.6208267l-2.4671783 -2.4671707l2.6208344 -2.6208267z" fill-rule="evenodd"/><path stroke="#666666" stroke-width="1.0" stroke-linejoin="round" stroke-linecap="butt" d="m153.36104 121.09652l2.4671783 -2.4671707l2.6208344 2.620819l2.620819 -2.620819l2.4671783 2.4671707l-2.6208344 2.6208267l2.6208344 2.6208267l-2.4671783 2.4671707l-2.620819 -2.6208267l-2.6208344 2.6208267l-2.4671783 -2.4671707l2.6208344 -2.6208267z" fill-rule="evenodd"/><path fill="#999999" d="m151.23338 99.73482l2.4671783 -2.4671707l2.620819 2.6208267l2.6208344 -2.6208267l2.467163 2.4671707l-2.620819 2.6208267l2.620819 2.6208267l-2.467163 2.4671707l-2.6208344 -2.6208267l-2.620819 2.6208267l-2.4671783 -2.4671707l2.6208344 -2.6208267z" fill-rule="evenodd"/><path stroke="#666666" stroke-width="1.0" stroke-linejoin="round" stroke-linecap="butt" d="m151.23338 99.73482l2.4671783 -2.4671707l2.620819 2.6208267l2.6208344 -2.6208267l2.467163 2.4671707l-2.620819 2.6208267l2.620819 2.6208267l-2.467163 2.4671707l-2.6208344 -2.6208267l-2.620819 2.6208267l-2.4671783 -2.4671707l2.6208344 -2.6208267z" fill-rule="evenodd"/><path fill="#999999" d="m139.48871 118.77028l2.467163 -2.4671707l2.6208344 2.620819l2.620819 -2.620819l2.4671783 2.4671707l-2.6208344 2.6208267l2.6208344 2.6208267l-2.4671783 2.4671707l-2.620819 -2.6208267l-2.6208344 2.6208267l-2.467163 -2.4671707l2.620819 -2.6208267z" fill-rule="evenodd"/><path stroke="#666666" stroke-width="1.0" stroke-linejoin="round" stroke-linecap="butt" d="m139.48871 118.77028l2.467163 -2.4671707l2.6208344 2.620819l2.620819 -2.620819l2.4671783 2.4671707l-2.6208344 2.6208267l2.6208344 2.6208267l-2.4671783 2.4671707l-2.620819 -2.6208267l-2.6208344 2.6208267l-2.467163 -2.4671707l2.620819 -2.6208267z" fill-rule="evenodd"/><path fill="#999999" d="m137.00644 103.67808l2.467163 -2.4671707l2.6208344 2.6208267l2.620819 -2.6208267l2.4671783 2.4671707l-2.6208344 2.6208267l2.6208344 2.6208267l-2.4671783 2.4671707l-2.620819 -2.6208267l-2.6208344 2.6208267l-2.467163 -2.4671707l2.620819 -2.6208267z" fill-rule="evenodd"/><path stroke="#666666" stroke-width="1.0" stroke-linejoin="round" stroke-linecap="butt" d="m137.00644 103.67808l2.467163 -2.4671707l2.6208344 2.6208267l2.620819 -2.6208267l2.4671783 2.4671707l-2.6208344 2.6208267l2.6208344 2.6208267l-2.4671783 2.4671707l-2.620819 -2.6208267l-2.6208344 2.6208267l-2.467163 -2.4671707l2.620819 -2.6208267z" fill-rule="evenodd"/><path fill="#000000" fill-opacity="0.0" d="m346.51233 243.68404l0 -77.25984" fill-rule="evenodd"/><path stroke="#000000" stroke-width="2.0" stroke-linejoin="round" stroke-linecap="butt" d="m346.51233 243.68404l0 -77.25984" fill-rule="evenodd"/><path fill="#000000" fill-opacity="0.0" d="m298.51233 112.51139l0 0c0 -26.509666 21.490326 -48.0 48.0 -48.0l0 0c12.730377 0 24.939362 5.057129 33.9411 14.058876c9.00177 9.001747 14.058899 21.210732 14.058899 33.941124l0 0c0 26.509666 -21.490356 48.000008 -48.0 48.000008l0 0c-26.509674 0 -48.0 -21.490341 -48.0 -48.000008z" fill-rule="evenodd"/><path stroke="#000000" stroke-width="2.0" stroke-linejoin="round" stroke-linecap="butt" d="m298.51233 112.51139l0 0c0 -26.509666 21.490326 -48.0 48.0 -48.0l0 0c12.730377 0 24.939362 5.057129 33.9411 14.058876c9.00177 9.001747 14.058899 21.210732 14.058899 33.941124l0 0c0 26.509666 -21.490356 48.000008 -48.0 48.000008l0 0c-26.509674 0 -48.0 -21.490341 -48.0 -48.000008z" fill-rule="evenodd"/><path fill="#000000" fill-opacity="0.0" d="m314.82727 112.51139l0 0c0 -17.49916 14.185883 -31.685036 31.685059 -31.685036l0 0c8.403381 0 16.462585 3.338234 22.404694 9.280327c5.942108 5.9421005 9.280334 14.001312 9.280334 22.404709l0 0c0 17.499168 -14.185883 31.685036 -31.685028 31.685036l0 0c-17.499176 0 -31.685059 -14.185867 -31.685059 -31.685036z" fill-rule="evenodd"/><path stroke="#000000" stroke-width="2.0" stroke-linejoin="round" stroke-linecap="butt" d="m314.82727 112.51139l0 0c0 -17.49916 14.185883 -31.685036 31.685059 -31.685036l0 0c8.403381 0 16.462585 3.338234 22.404694 9.280327c5.942108 5.9421005 9.280334 14.001312 9.280334 22.404709l0 0c0 17.499168 -14.185883 31.685036 -31.685028 31.685036l0 0c-17.499176 0 -31.685059 -14.185867 -31.685059 -31.685036z" fill-rule="evenodd"/><path fill="#000000" fill-opacity="0.0" d="m330.6698 112.51139l0 0c0 -8.74958 7.092926 -15.842522 15.842529 -15.842522l0 0c4.2016907 0 8.231293 1.6691208 11.202332 4.640167c2.9710693 2.971054 4.640167 7.000656 4.640167 11.202354l0 0c0 8.74958 -7.092926 15.842522 -15.842499 15.842522l0 0c-8.749603 0 -15.842529 -7.0929413 -15.842529 -15.842522z" fill-rule="evenodd"/><path stroke="#000000" stroke-width="2.0" stroke-linejoin="round" stroke-linecap="butt" d="m330.6698 112.51139l0 0c0 -8.74958 7.092926 -15.842522 15.842529 -15.842522l0 0c4.2016907 0 8.231293 1.6691208 11.202332 4.640167c2.9710693 2.971054 4.640167 7.000656 4.640167 11.202354l0 0c0 8.74958 -7.092926 15.842522 -15.842499 15.842522l0 0c-8.749603 0 -15.842529 -7.0929413 -15.842529 -15.842522z" fill-rule="evenodd"/><path fill="#999999" d="m340.6763 116.99723l2.467163 -2.4671783l2.620819 2.6208267l2.620819 -2.6208267l2.4671936 2.4671783l-2.6208496 2.6208267l2.6208496 2.620819l-2.4671936 2.4671783l-2.620819 -2.6208267l-2.620819 2.6208267l-2.467163 -2.4671783l2.620819 -2.620819z" fill-rule="evenodd"/><path stroke="#666666" stroke-width="1.0" stroke-linejoin="round" stroke-linecap="butt" d="m340.6763 116.99723l2.467163 -2.4671783l2.620819 2.6208267l2.620819 -2.6208267l2.4671936 2.4671783l-2.6208496 2.6208267l2.6208496 2.620819l-2.4671936 2.4671783l-2.620819 -2.6208267l-2.620819 2.6208267l-2.467163 -2.4671783l2.620819 -2.620819z" fill-rule="evenodd"/><path fill="#999999" d="m372.6763 108.99723l2.467163 -2.4671783l2.620819 2.6208267l2.620819 -2.6208267l2.4671936 2.4671783l-2.6208496 2.6208267l2.6208496 2.620819l-2.4671936 2.4671783l-2.620819 -2.6208267l-2.620819 2.6208267l-2.467163 -2.4671783l2.620819 -2.620819z" fill-rule="evenodd"/><path stroke="#666666" stroke-width="1.0" stroke-linejoin="round" stroke-linecap="butt" d="m372.6763 108.99723l2.467163 -2.4671783l2.620819 2.6208267l2.620819 -2.6208267l2.4671936 2.4671783l-2.6208496 2.6208267l2.6208496 2.620819l-2.4671936 2.4671783l-2.620819 -2.6208267l-2.620819 2.6208267l-2.467163 -2.4671783l2.620819 -2.620819z" fill-rule="evenodd"/><path fill="#999999" d="m348.3217 138.51495l2.467163 -2.467163l2.620819 2.620819l2.620819 -2.620819l2.4671936 2.467163l-2.6208496 2.6208344l2.6208496 2.620819l-2.4671936 2.4671783l-2.620819 -2.6208344l-2.620819 2.6208344l-2.467163 -2.4671783l2.620819 -2.620819z" fill-rule="evenodd"/><path stroke="#666666" stroke-width="1.0" stroke-linejoin="round" stroke-linecap="butt" d="m348.3217 138.51495l2.467163 -2.467163l2.620819 2.620819l2.620819 -2.620819l2.4671936 2.467163l-2.6208496 2.6208344l2.6208496 2.620819l-2.4671936 2.4671783l-2.620819 -2.6208344l-2.620819 2.6208344l-2.467163 -2.4671783l2.620819 -2.620819z" fill-rule="evenodd"/><path fill="#999999" d="m354.19403 91.73482l2.467163 -2.4671707l2.620819 2.6208267l2.620819 -2.6208267l2.4671936 2.4671707l-2.6208496 2.6208267l2.6208496 2.6208267l-2.4671936 2.4671707l-2.620819 -2.6208267l-2.620819 2.6208267l-2.467163 -2.4671707l2.620819 -2.6208267z" fill-rule="evenodd"/><path stroke="#666666" stroke-width="1.0" stroke-linejoin="round" stroke-linecap="butt" d="m354.19403 91.73482l2.467163 -2.4671707l2.620819 2.6208267l2.620819 -2.6208267l2.4671936 2.4671707l-2.6208496 2.6208267l2.6208496 2.6208267l-2.4671936 2.4671707l-2.620819 -2.6208267l-2.620819 2.6208267l-2.467163 -2.4671707l2.620819 -2.6208267z" fill-rule="evenodd"/><path fill="#999999" d="m310.44934 134.77028l2.467163 -2.4671783l2.620819 2.6208344l2.6208496 -2.6208344l2.467163 2.4671783l-2.620819 2.620819l2.620819 2.6208344l-2.467163 2.467163l-2.6208496 -2.620819l-2.620819 2.620819l-2.467163 -2.467163l2.620819 -2.6208344z" fill-rule="evenodd"/><path stroke="#666666" stroke-width="1.0" stroke-linejoin="round" stroke-linecap="butt" d="m310.44934 134.77028l2.467163 -2.4671783l2.620819 2.6208344l2.6208496 -2.6208344l2.467163 2.4671783l-2.620819 2.620819l2.620819 2.6208344l-2.467163 2.467163l-2.6208496 -2.620819l-2.620819 2.620819l-2.467163 -2.467163l2.620819 -2.6208344z" fill-rule="evenodd"/><path fill="#999999" d="m315.96707 95.67808l2.467163 -2.4671707l2.620819 2.6208267l2.6208496 -2.6208267l2.467163 2.4671707l-2.620819 2.6208267l2.620819 2.6208267l-2.467163 2.4671707l-2.6208496 -2.6208267l-2.620819 2.6208267l-2.467163 -2.4671707l2.620819 -2.6208267z" fill-rule="evenodd"/><path stroke="#666666" stroke-width="1.0" stroke-linejoin="round" stroke-linecap="butt" d="m315.96707 95.67808l2.467163 -2.4671707l2.620819 2.6208267l2.6208496 -2.6208267l2.467163 2.4671707l-2.620819 2.6208267l2.620819 2.6208267l-2.467163 2.4671707l-2.6208496 -2.6208267l-2.620819 2.6208267l-2.467163 -2.4671707l2.620819 -2.6208267z" fill-rule="evenodd"/><path fill="#000000" fill-opacity="0.0" d="m54.07137 251.23317l194.96063 0l0 194.96065l-194.96063 0z" fill-rule="evenodd"/><path stroke="#000000" stroke-width="3.0" stroke-linejoin="round" stroke-linecap="butt" d="m54.07137 251.23317l194.96063 0l0 194.96065l-194.96063 0z" fill-rule="evenodd"/><path fill="#000000" fill-opacity="0.0" d="m151.55168 438.64465l0 -77.25983" fill-rule="evenodd"/><path stroke="#000000" stroke-width="2.0" stroke-linejoin="round" stroke-linecap="butt" d="m151.55168 438.64465l0 -77.25983" fill-rule="evenodd"/><path fill="#000000" fill-opacity="0.0" d="m67.985535 438.13284c7.725769 -1.4496765 36.44571 4.0096436 46.35459 -8.698151c9.908882 -12.707794 8.676193 -67.63385 13.098709 -67.54855c4.4225235 0.08529663 3.4712296 55.35257 13.436394 68.06036c9.965164 12.707794 38.628815 6.8219604 46.354584 8.18634" fill-rule="evenodd"/><path stroke="#999999" stroke-width="2.0" stroke-linejoin="round" stroke-linecap="butt" d="m67.985535 438.13284c7.725769 -1.4496765 36.44571 4.0096436 46.35459 -8.698151c9.908882 -12.707794 8.676193 -67.63385 13.098709 -67.54855c4.4225235 0.08529663 3.4712296 55.35257 13.436394 68.06036c9.965164 12.707794 38.628815 6.8219604 46.354584 8.18634" fill-rule="evenodd"/><path fill="#000000" fill-opacity="0.0" d="m103.55168 307.47202l0 0c0 -26.509674 21.490334 -48.0 48.0 -48.0l0 0c12.730392 0 24.939377 5.057129 33.94113 14.058868c9.0017395 9.00177 14.058868 21.210754 14.058868 33.94113l0 0c0 26.509674 -21.490326 48.0 -48.0 48.0l0 0c-26.509666 0 -48.0 -21.490326 -48.0 -48.0z" fill-rule="evenodd"/><path stroke="#000000" stroke-width="2.0" stroke-linejoin="round" stroke-linecap="butt" d="m103.55168 307.47202l0 0c0 -26.509674 21.490334 -48.0 48.0 -48.0l0 0c12.730392 0 24.939377 5.057129 33.94113 14.058868c9.0017395 9.00177 14.058868 21.210754 14.058868 33.94113l0 0c0 26.509674 -21.490326 48.0 -48.0 48.0l0 0c-26.509666 0 -48.0 -21.490326 -48.0 -48.0z" fill-rule="evenodd"/><path fill="#000000" fill-opacity="0.0" d="m119.866646 307.47202l0 0c0 -17.499146 14.185875 -31.685028 31.685036 -31.685028l0 0c8.403397 0 16.462616 3.3382263 22.404709 9.280334c5.942093 5.9420776 9.280334 14.001312 9.280334 22.404694l0 0c0 17.499176 -14.185883 31.685059 -31.685043 31.685059l0 0c-17.49916 0 -31.685036 -14.185883 -31.685036 -31.685059z" fill-rule="evenodd"/><path stroke="#000000" stroke-width="2.0" stroke-linejoin="round" stroke-linecap="butt" d="m119.866646 307.47202l0 0c0 -17.499146 14.185875 -31.685028 31.685036 -31.685028l0 0c8.403397 0 16.462616 3.3382263 22.404709 9.280334c5.942093 5.9420776 9.280334 14.001312 9.280334 22.404694l0 0c0 17.499176 -14.185883 31.685059 -31.685043 31.685059l0 0c-17.49916 0 -31.685036 -14.185883 -31.685036 -31.685059z" fill-rule="evenodd"/><path fill="#000000" fill-opacity="0.0" d="m135.70917 307.47202l0 0c0 -8.749573 7.0929413 -15.842529 15.842514 -15.842529l0 0c4.201706 0 8.231308 1.6691284 11.202362 4.640167c2.9710388 2.9710693 4.640167 7.0006714 4.640167 11.202362l0 0c0 8.749573 -7.0929413 15.842529 -15.842529 15.842529l0 0c-8.749573 0 -15.842514 -7.0929565 -15.842514 -15.842529z" fill-rule="evenodd"/><path stroke="#000000" stroke-width="2.0" stroke-linejoin="round" stroke-linecap="butt" d="m135.70917 307.47202l0 0c0 -8.749573 7.0929413 -15.842529 15.842514 -15.842529l0 0c4.201706 0 8.231308 1.6691284 11.202362 4.640167c2.9710388 2.9710693 4.640167 7.0006714 4.640167 11.202362l0 0c0 8.749573 -7.0929413 15.842529 -15.842529 15.842529l0 0c-8.749573 0 -15.842514 -7.0929565 -15.842514 -15.842529z" fill-rule="evenodd"/><path fill="#999999" d="m121.71565 319.95786l2.4671783 -2.467163l2.620819 2.620819l2.6208344 -2.620819l2.467163 2.467163l-2.620819 2.620819l2.620819 2.6208496l-2.467163 2.467163l-2.6208344 -2.620819l-2.620819 2.620819l-2.4671783 -2.467163l2.6208267 -2.6208496z" fill-rule="evenodd"/><path stroke="#666666" stroke-width="1.0" stroke-linejoin="round" stroke-linecap="butt" d="m121.71565 319.95786l2.4671783 -2.467163l2.620819 2.620819l2.6208344 -2.620819l2.467163 2.467163l-2.620819 2.620819l2.620819 2.6208496l-2.467163 2.467163l-2.6208344 -2.620819l-2.620819 2.620819l-2.4671783 -2.467163l2.6208267 -2.6208496z" fill-rule="evenodd"/><path fill="#999999" d="m137.71565 319.95786l2.4671783 -2.467163l2.620819 2.620819l2.6208344 -2.620819l2.467163 2.467163l-2.620819 2.620819l2.620819 2.6208496l-2.467163 2.467163l-2.6208344 -2.620819l-2.620819 2.620819l-2.4671783 -2.467163l2.6208344 -2.6208496z" fill-rule="evenodd"/><path stroke="#666666" stroke-width="1.0" stroke-linejoin="round" stroke-linecap="butt" d="m137.71565 319.95786l2.4671783 -2.467163l2.620819 2.620819l2.6208344 -2.620819l2.467163 2.467163l-2.620819 2.620819l2.620819 2.6208496l-2.467163 2.467163l-2.6208344 -2.620819l-2.620819 2.620819l-2.4671783 -2.467163l2.6208344 -2.6208496z" fill-rule="evenodd"/><path fill="#999999" d="m129.36104 332.05716l2.4671783 -2.4671936l2.6208344 2.6208496l2.620819 -2.6208496l2.4671783 2.4671936l-2.6208344 2.620819l2.6208344 2.620819l-2.4671783 2.467163l-2.620819 -2.620819l-2.6208344 2.620819l-2.4671783 -2.467163l2.6208344 -2.620819z" fill-rule="evenodd"/><path stroke="#666666" stroke-width="1.0" stroke-linejoin="round" stroke-linecap="butt" d="m129.36104 332.05716l2.4671783 -2.4671936l2.6208344 2.6208496l2.620819 -2.6208496l2.4671783 2.4671936l-2.6208344 2.620819l2.6208344 2.620819l-2.4671783 2.467163l-2.620819 -2.620819l-2.6208344 2.620819l-2.4671783 -2.467163l2.6208344 -2.620819z" fill-rule="evenodd"/><path fill="#999999" d="m127.23338 310.69543l2.4671783 -2.467163l2.620819 2.620819l2.6208344 -2.620819l2.467163 2.467163l-2.620819 2.6208496l2.620819 2.620819l-2.467163 2.467163l-2.6208344 -2.620819l-2.620819 2.620819l-2.4671783 -2.467163l2.6208344 -2.620819z" fill-rule="evenodd"/><path stroke="#666666" stroke-width="1.0" stroke-linejoin="round" stroke-linecap="butt" d="m127.23338 310.69543l2.4671783 -2.467163l2.620819 2.620819l2.6208344 -2.620819l2.467163 2.467163l-2.620819 2.6208496l2.620819 2.620819l-2.467163 2.467163l-2.6208344 -2.620819l-2.620819 2.620819l-2.4671783 -2.467163l2.6208344 -2.620819z" fill-rule="evenodd"/><path fill="#999999" d="m115.48871 329.7309l2.4671707 -2.467163l2.6208267 2.620819l2.6208267 -2.620819l2.4671707 2.467163l-2.6208267 2.6208496l2.6208267 2.620819l-2.4671707 2.467163l-2.6208267 -2.620819l-2.6208267 2.620819l-2.4671707 -2.467163l2.620819 -2.620819z" fill-rule="evenodd"/><path stroke="#666666" stroke-width="1.0" stroke-linejoin="round" stroke-linecap="butt" d="m115.48871 329.7309l2.4671707 -2.467163l2.6208267 2.620819l2.6208267 -2.620819l2.4671707 2.467163l-2.6208267 2.6208496l2.6208267 2.620819l-2.4671707 2.467163l-2.6208267 -2.620819l-2.6208267 2.620819l-2.4671707 -2.467163l2.620819 -2.620819z" fill-rule="evenodd"/><path fill="#999999" d="m113.00644 314.6387l2.4671707 -2.467163l2.6208267 2.620819l2.620819 -2.620819l2.4671783 2.467163l-2.6208267 2.620819l2.6208267 2.6208496l-2.4671783 2.467163l-2.620819 -2.620819l-2.6208267 2.620819l-2.4671707 -2.467163l2.620819 -2.6208496z" fill-rule="evenodd"/><path stroke="#666666" stroke-width="1.0" stroke-linejoin="round" stroke-linecap="butt" d="m113.00644 314.6387l2.4671707 -2.467163l2.6208267 2.620819l2.620819 -2.620819l2.4671783 2.467163l-2.6208267 2.620819l2.6208267 2.6208496l-2.4671783 2.467163l-2.620819 -2.620819l-2.6208267 2.620819l-2.4671707 -2.467163l2.620819 -2.6208496z" fill-rule="evenodd"/><path fill="#000000" fill-opacity="0.0" d="m346.51233 438.64465l0 -77.25983" fill-rule="evenodd"/><path stroke="#000000" stroke-width="2.0" stroke-linejoin="round" stroke-linecap="butt" d="m346.51233 438.64465l0 -77.25983" fill-rule="evenodd"/><path fill="#000000" fill-opacity="0.0" d="m290.5748 438.4781c7.1994324 -0.68847656 32.24716 1.3083801 43.196472 -4.130768c10.949341 -5.439148 16.200134 -22.861145 22.499481 -28.50412c6.299347 -5.6429443 10.197327 -5.4387817 15.29657 -5.3536377c5.0992737 0.085113525 9.374207 -0.053710938 15.29892 5.864441c5.9246826 5.9181213 9.599976 24.290344 20.249268 29.644348c10.6493225 5.354004 36.3721 2.0664368 43.646515 2.4797363" fill-rule="evenodd"/><path stroke="#999999" stroke-width="2.0" stroke-linejoin="round" stroke-linecap="butt" d="m290.5748 438.4781c7.1994324 -0.68847656 32.24716 1.3083801 43.196472 -4.130768c10.949341 -5.439148 16.200134 -22.861145 22.499481 -28.50412c6.299347 -5.6429443 10.197327 -5.4387817 15.29657 -5.3536377c5.0992737 0.085113525 9.374207 -0.053710938 15.29892 5.864441c5.9246826 5.9181213 9.599976 24.290344 20.249268 29.644348c10.6493225 5.354004 36.3721 2.0664368 43.646515 2.4797363" fill-rule="evenodd"/><path fill="#000000" fill-opacity="0.0" d="m298.51233 307.47202l0 0c0 -26.509674 21.490326 -48.0 48.0 -48.0l0 0c12.730377 0 24.939362 5.057129 33.9411 14.058868c9.00177 9.00177 14.058899 21.210754 14.058899 33.94113l0 0c0 26.509674 -21.490356 48.0 -48.0 48.0l0 0c-26.509674 0 -48.0 -21.490326 -48.0 -48.0z" fill-rule="evenodd"/><path stroke="#000000" stroke-width="2.0" stroke-linejoin="round" stroke-linecap="butt" d="m298.51233 307.47202l0 0c0 -26.509674 21.490326 -48.0 48.0 -48.0l0 0c12.730377 0 24.939362 5.057129 33.9411 14.058868c9.00177 9.00177 14.058899 21.210754 14.058899 33.94113l0 0c0 26.509674 -21.490356 48.0 -48.0 48.0l0 0c-26.509674 0 -48.0 -21.490326 -48.0 -48.0z" fill-rule="evenodd"/><path fill="#000000" fill-opacity="0.0" d="m314.82727 307.47202l0 0c0 -17.499146 14.185883 -31.685028 31.685059 -31.685028l0 0c8.403381 0 16.462585 3.3382263 22.404694 9.280334c5.942108 5.9420776 9.280334 14.001312 9.280334 22.404694l0 0c0 17.499176 -14.185883 31.685059 -31.685028 31.685059l0 0c-17.499176 0 -31.685059 -14.185883 -31.685059 -31.685059z" fill-rule="evenodd"/><path stroke="#000000" stroke-width="2.0" stroke-linejoin="round" stroke-linecap="butt" d="m314.82727 307.47202l0 0c0 -17.499146 14.185883 -31.685028 31.685059 -31.685028l0 0c8.403381 0 16.462585 3.3382263 22.404694 9.280334c5.942108 5.9420776 9.280334 14.001312 9.280334 22.404694l0 0c0 17.499176 -14.185883 31.685059 -31.685028 31.685059l0 0c-17.499176 0 -31.685059 -14.185883 -31.685059 -31.685059z" fill-rule="evenodd"/><path fill="#000000" fill-opacity="0.0" d="m330.6698 307.47202l0 0c0 -8.749573 7.092926 -15.842529 15.842529 -15.842529l0 0c4.2016907 0 8.231293 1.6691284 11.202332 4.640167c2.9710693 2.9710693 4.640167 7.0006714 4.640167 11.202362l0 0c0 8.749573 -7.092926 15.842529 -15.842499 15.842529l0 0c-8.749603 0 -15.842529 -7.0929565 -15.842529 -15.842529z" fill-rule="evenodd"/><path stroke="#000000" stroke-width="2.0" stroke-linejoin="round" stroke-linecap="butt" d="m330.6698 307.47202l0 0c0 -8.749573 7.092926 -15.842529 15.842529 -15.842529l0 0c4.2016907 0 8.231293 1.6691284 11.202332 4.640167c2.9710693 2.9710693 4.640167 7.0006714 4.640167 11.202362l0 0c0 8.749573 -7.092926 15.842529 -15.842499 15.842529l0 0c-8.749603 0 -15.842529 -7.0929565 -15.842529 -15.842529z" fill-rule="evenodd"/><path fill="#999999" d="m361.02798 328.97098l2.4671936 -2.467163l2.620819 2.620819l2.620819 -2.620819l2.467163 2.467163l-2.620819 2.620819l2.620819 2.6208496l-2.467163 2.467163l-2.620819 -2.620819l-2.620819 2.620819l-2.4671936 -2.467163l2.620819 -2.6208496z" fill-rule="evenodd"/><path stroke="#666666" stroke-width="1.0" stroke-linejoin="round" stroke-linecap="butt" d="m361.02798 328.97098l2.4671936 -2.467163l2.620819 2.620819l2.620819 -2.620819l2.467163 2.467163l-2.620819 2.620819l2.620819 2.6208496l-2.467163 2.467163l-2.620819 -2.620819l-2.620819 2.620819l-2.4671936 -2.467163l2.620819 -2.6208496z" fill-rule="evenodd"/><path fill="#999999" d="m393.02798 320.97098l2.4671936 -2.467163l2.620819 2.620819l2.620819 -2.620819l2.467163 2.467163l-2.620819 2.620819l2.620819 2.6208496l-2.467163 2.467163l-2.620819 -2.620819l-2.620819 2.620819l-2.4671936 -2.467163l2.620819 -2.6208496z" fill-rule="evenodd"/><path stroke="#666666" stroke-width="1.0" stroke-linejoin="round" stroke-linecap="butt" d="m393.02798 320.97098l2.4671936 -2.467163l2.620819 2.620819l2.620819 -2.620819l2.467163 2.467163l-2.620819 2.620819l2.620819 2.6208496l-2.467163 2.467163l-2.620819 -2.620819l-2.620819 2.620819l-2.4671936 -2.467163l2.620819 -2.6208496z" fill-rule="evenodd"/><path fill="#999999" d="m368.67337 350.4887l2.4671936 -2.467163l2.620819 2.620819l2.620819 -2.620819l2.467163 2.467163l-2.620819 2.620819l2.620819 2.6208496l-2.467163 2.467163l-2.620819 -2.620819l-2.620819 2.620819l-2.4671936 -2.467163l2.6208496 -2.6208496z" fill-rule="evenodd"/><path stroke="#666666" stroke-width="1.0" stroke-linejoin="round" stroke-linecap="butt" d="m368.67337 350.4887l2.4671936 -2.467163l2.620819 2.620819l2.620819 -2.620819l2.467163 2.467163l-2.620819 2.620819l2.620819 2.6208496l-2.467163 2.467163l-2.620819 -2.620819l-2.620819 2.620819l-2.4671936 -2.467163l2.6208496 -2.6208496z" fill-rule="evenodd"/><path fill="#999999" d="m374.54572 303.70856l2.4671936 -2.467163l2.620819 2.620819l2.620819 -2.620819l2.467163 2.467163l-2.620819 2.6208496l2.620819 2.620819l-2.467163 2.467163l-2.620819 -2.620819l-2.620819 2.620819l-2.4671936 -2.467163l2.620819 -2.620819z" fill-rule="evenodd"/><path stroke="#666666" stroke-width="1.0" stroke-linejoin="round" stroke-linecap="butt" d="m374.54572 303.70856l2.4671936 -2.467163l2.620819 2.620819l2.620819 -2.620819l2.467163 2.467163l-2.620819 2.6208496l2.620819 2.620819l-2.467163 2.467163l-2.620819 -2.620819l-2.620819 2.620819l-2.4671936 -2.467163l2.620819 -2.620819z" fill-rule="evenodd"/><path fill="#999999" d="m330.80106 346.74402l2.467163 -2.467163l2.620819 2.620819l2.620819 -2.620819l2.4671936 2.467163l-2.6208496 2.6208496l2.6208496 2.620819l-2.4671936 2.467163l-2.620819 -2.620819l-2.620819 2.620819l-2.467163 -2.467163l2.620819 -2.620819z" fill-rule="evenodd"/><path stroke="#666666" stroke-width="1.0" stroke-linejoin="round" stroke-linecap="butt" d="m330.80106 346.74402l2.467163 -2.467163l2.620819 2.620819l2.620819 -2.620819l2.4671936 2.467163l-2.6208496 2.6208496l2.6208496 2.620819l-2.4671936 2.467163l-2.620819 -2.620819l-2.620819 2.620819l-2.467163 -2.467163l2.620819 -2.620819z" fill-rule="evenodd"/><path fill="#999999" d="m336.3188 307.65182l2.467163 -2.467163l2.620819 2.620819l2.620819 -2.620819l2.4671936 2.467163l-2.6208496 2.620819l2.6208496 2.6208496l-2.4671936 2.467163l-2.620819 -2.620819l-2.620819 2.620819l-2.467163 -2.467163l2.620819 -2.6208496z" fill-rule="evenodd"/><path stroke="#666666" stroke-width="1.0" stroke-linejoin="round" stroke-linecap="butt" d="m336.3188 307.65182l2.467163 -2.467163l2.620819 2.620819l2.620819 -2.620819l2.4671936 2.467163l-2.6208496 2.620819l2.6208496 2.6208496l-2.4671936 2.467163l-2.620819 -2.620819l-2.620819 2.620819l-2.467163 -2.467163l2.620819 -2.6208496z" fill-rule="evenodd"/><path fill="#ffffff" d="m438.77216 416.4589l17.007874 0l0 31.212616l-17.007874 0z" fill-rule="evenodd"/><path fill="#000000" fill-opacity="0.0" d="m266.5748 243.16284c7.1994324 -0.6884613 32.24716 1.3083954 43.196472 -4.1307526c10.949341 -5.439148 16.200134 -22.86116 22.499481 -28.50412c6.299347 -5.6429596 10.197327 -5.4387817 15.29657 -5.353653c5.0992737 0.085128784 9.374207 -0.05369568 15.29892 5.864441c5.9246826 5.9181366 9.599976 24.290344 20.249268 29.644363c10.6493225 5.354004 36.3721 2.0664368 43.646515 2.479721" fill-rule="evenodd"/><path stroke="#999999" stroke-width="2.0" stroke-linejoin="round" stroke-linecap="butt" d="m266.5748 243.16284c7.1994324 -0.6884613 32.24716 1.3083954 43.196472 -4.1307526c10.949341 -5.439148 16.200134 -22.86116 22.499481 -28.50412c6.299347 -5.6429596 10.197327 -5.4387817 15.29657 -5.353653c5.0992737 0.085128784 9.374207 -0.05369568 15.29892 5.864441c5.9246826 5.9181366 9.599976 24.290344 20.249268 29.644363c10.6493225 5.354004 36.3721 2.0664368 43.646515 2.479721" fill-rule="evenodd"/><path fill="#000000" fill-opacity="0.0" d="m256.09457 243.68404l182.67715 0" fill-rule="evenodd"/><path stroke="#000000" stroke-width="3.0" stroke-linejoin="round" stroke-linecap="butt" d="m256.09457 243.68404l182.67715 0" fill-rule="evenodd"/><path fill="#000000" fill-opacity="0.0" d="m61.13394 243.68404l182.67717 0" fill-rule="evenodd"/><path stroke="#000000" stroke-width="3.0" stroke-linejoin="round" stroke-linecap="butt" d="m61.13394 243.68404l182.67717 0" fill-rule="evenodd"/><path fill="#000000" fill-opacity="0.0" d="m61.13394 438.64465l182.67717 0" fill-rule="evenodd"/><path stroke="#000000" stroke-width="3.0" stroke-linejoin="round" stroke-linecap="butt" d="m61.13394 438.64465l182.67717 0" fill-rule="evenodd"/><path fill="#000000" fill-opacity="0.0" d="m256.09457 438.64465l182.67715 0" fill-rule="evenodd"/><path stroke="#000000" stroke-width="3.0" stroke-linejoin="round" stroke-linecap="butt" d="m256.09457 438.64465l182.67715 0" fill-rule="evenodd"/><path fill="#000000" fill-opacity="0.0" d="m249.032 251.23317l194.96062 0l0 194.96065l-194.96062 0z" fill-rule="evenodd"/><path stroke="#000000" stroke-width="3.0" stroke-linejoin="round" stroke-linecap="butt" d="m249.032 251.23317l194.96062 0l0 194.96065l-194.96062 0z" fill-rule="evenodd"/><path fill="#000000" fill-opacity="0.0" d="m249.032 56.272545l194.96062 0l0 194.96063l-194.96062 0z" fill-rule="evenodd"/><path stroke="#000000" stroke-width="3.0" stroke-linejoin="round" stroke-linecap="butt" d="m249.032 56.272545l194.96062 0l0 194.96063l-194.96062 0z" fill-rule="evenodd"/></g></svg>