<svg version="1.1" viewBox="0.0 0.0 819.7060367454068 316.3359580052493" fill="none" stroke="none" stroke-linecap="square" stroke-miterlimit="10" xmlns:xlink="http://www.w3.org/1999/xlink" xmlns="http://www.w3.org/2000/svg"><clipPath id="p.0"><path d="m0 0l819.70605 0l0 316.33597l-819.70605 0l0 -316.33597z" clip-rule="nonzero"/></clipPath><g clip-path="url(#p.0)"><path fill="#000000" fill-opacity="0.0" d="m0 0l819.70605 0l0 316.33597l-819.70605 0z" fill-rule="evenodd"/><path fill="#e06666" d="m185.29921 242.44226l0 0c0 -31.110596 25.220123 -56.33072 56.33072 -56.33072l0 0c14.939835 0 29.267776 5.9348297 39.831833 16.498886c10.564056 10.564056 16.49887 24.891998 16.49887 39.831833l0 0c0 31.110596 -25.220123 56.33072 -56.330704 56.33072l0 0c-31.110596 0 -56.33072 -25.220123 -56.33072 -56.33072z" fill-rule="evenodd"/><path stroke="#595959" stroke-width="3.0" stroke-linejoin="round" stroke-linecap="butt" d="m185.29921 242.44226l0 0c0 -31.110596 25.220123 -56.33072 56.33072 -56.33072l0 0c14.939835 0 29.267776 5.9348297 39.831833 16.498886c10.564056 10.564056 16.49887 24.891998 16.49887 39.831833l0 0c0 31.110596 -25.220123 56.33072 -56.330704 56.33072l0 0c-31.110596 0 -56.33072 -25.220123 -56.33072 -56.33072z" fill-rule="evenodd"/><path fill="#e06666" d="m314.03937 61.85958l0 0c0 -31.110592 25.220123 -56.33071 56.33072 -56.33071l0 0c14.939819 0 29.267761 5.934825 39.831818 16.498882c10.564056 10.564058 16.49887 24.891993 16.49887 39.831825l0 0c0 31.110588 -25.220093 56.33071 -56.33069 56.33071l0 0c-31.110596 0 -56.33072 -25.220123 -56.33072 -56.33071z" fill-rule="evenodd"/><path stroke="#595959" stroke-width="3.0" stroke-linejoin="round" stroke-linecap="butt" d="m314.03937 61.85958l0 0c0 -31.110592 25.220123 -56.33071 56.33072 -56.33071l0 0c14.939819 0 29.267761 5.934825 39.831818 16.498882c10.564056 10.564058 16.49887 24.891993 16.49887 39.831825l0 0c0 31.110588 -25.220093 56.33071 -56.33069 56.33071l0 0c-31.110596 0 -56.33072 -25.220123 -56.33072 -56.33071z" fill-rule="evenodd"/><path fill="#b6d7a8" d="m172.70604 97.301834l0 0c0 -31.110588 25.220108 -56.330704 56.330704 -56.330704l0 0c14.939835 0 29.267761 5.934822 39.831818 16.498882c10.564056 10.564053 16.498901 24.891994 16.498901 39.83182l0 0c0 31.110596 -25.220123 56.33072 -56.33072 56.33072l0 0c-31.110596 0 -56.330704 -25.220123 -56.330704 -56.33072z" fill-rule="evenodd"/><path stroke="#595959" stroke-width="3.0" stroke-linejoin="round" stroke-linecap="butt" d="m172.70604 97.301834l0 0c0 -31.110588 25.220108 -56.330704 56.330704 -56.330704l0 0c14.939835 0 29.267761 5.934822 39.831818 16.498882c10.564056 10.564053 16.498901 24.891994 16.498901 39.83182l0 0c0 31.110596 -25.220123 56.33072 -56.33072 56.33072l0 0c-31.110596 0 -56.330704 -25.220123 -56.330704 -56.33072z" fill-rule="evenodd"/><path fill="#b6d7a8" d="m12.853019 69.74541l0 0c0 -31.110592 25.220116 -56.330708 56.330704 -56.330708l0 0c14.939835 0 29.267769 5.934825 39.831833 16.498882c10.564056 10.564058 16.498878 24.891993 16.498878 39.831825l0 0c0 31.110588 -25.220116 56.33071 -56.33071 56.33071l0 0c-31.110588 0 -56.330704 -25.220123 -56.330704 -56.33071z" fill-rule="evenodd"/><path stroke="#595959" stroke-width="3.0" stroke-linejoin="round" stroke-linecap="butt" d="m12.853019 69.74541l0 0c0 -31.110592 25.220116 -56.330708 56.330704 -56.330708l0 0c14.939835 0 29.267769 5.934825 39.831833 16.498882c10.564056 10.564058 16.498878 24.891993 16.498878 39.831825l0 0c0 31.110588 -25.220116 56.33071 -56.33071 56.33071l0 0c-31.110588 0 -56.330704 -25.220123 -56.330704 -56.33071z" fill-rule="evenodd"/><path fill="#e06666" d="m571.6667 76.961945l0 0c0 -31.110592 25.220093 -56.33071 56.33069 -56.33071l0 0c14.939819 0 29.267761 5.934826 39.83185 16.498882c10.564026 10.564056 16.49884 24.891994 16.49884 39.83183l0 0c0 31.110588 -25.220093 56.330704 -56.33069 56.330704l0 0c-31.110596 0 -56.33069 -25.220116 -56.33069 -56.330704z" fill-rule="evenodd"/><path stroke="#595959" stroke-width="3.0" stroke-linejoin="round" stroke-linecap="butt" d="m571.6667 76.961945l0 0c0 -31.110592 25.220093 -56.33071 56.33069 -56.33071l0 0c14.939819 0 29.267761 5.934826 39.83185 16.498882c10.564026 10.564056 16.49884 24.891994 16.49884 39.83183l0 0c0 31.110588 -25.220093 56.330704 -56.33069 56.330704l0 0c-31.110596 0 -56.33069 -25.220116 -56.33069 -56.330704z" fill-rule="evenodd"/><path fill="#e06666" d="m610.62994 245.55249l0 0c0 -31.110596 25.220093 -56.330704 56.33069 -56.330704l0 0c14.939819 0 29.267761 5.9348297 39.83185 16.498886c10.564026 10.564056 16.49884 24.891983 16.49884 39.831818l0 0c0 31.110596 -25.220093 56.33072 -56.33069 56.33072l0 0c-31.110596 0 -56.33069 -25.220123 -56.33069 -56.33072z" fill-rule="evenodd"/><path stroke="#595959" stroke-width="3.0" stroke-linejoin="round" stroke-linecap="butt" d="m610.62994 245.55249l0 0c0 -31.110596 25.220093 -56.330704 56.33069 -56.330704l0 0c14.939819 0 29.267761 5.9348297 39.83185 16.498886c10.564026 10.564056 16.49884 24.891983 16.49884 39.831818l0 0c0 31.110596 -25.220093 56.33072 -56.33069 56.33072l0 0c-31.110596 0 -56.33069 -25.220123 -56.33069 -56.33072z" fill-rule="evenodd"/><path fill="#e06666" d="m699.8163 65.108925l0 0c0 -31.110592 25.220093 -56.33071 56.33069 -56.33071l0 0c14.939819 0 29.267761 5.934825 39.83185 16.498882c10.564026 10.564058 16.49884 24.891993 16.49884 39.831825l0 0c0 31.110588 -25.220093 56.33071 -56.33069 56.33071l0 0c-31.110596 0 -56.33069 -25.220123 -56.33069 -56.33071z" fill-rule="evenodd"/><path stroke="#595959" stroke-width="3.0" stroke-linejoin="round" stroke-linecap="butt" d="m699.8163 65.108925l0 0c0 -31.110592 25.220093 -56.33071 56.33069 -56.33071l0 0c14.939819 0 29.267761 5.934825 39.83185 16.498882c10.564026 10.564058 16.49884 24.891993 16.49884 39.831825l0 0c0 31.110588 -25.220093 56.33071 -56.33069 56.33071l0 0c-31.110596 0 -56.33069 -25.220123 -56.33069 -56.33071z" fill-rule="evenodd"/><path fill="#e06666" d="m330.03937 247.40027l0 0c0 -31.110596 25.220123 -56.33072 56.33072 -56.33072l0 0c14.939819 0 29.267761 5.9348297 39.831818 16.498886c10.564056 10.564056 16.49887 24.891998 16.49887 39.831833l0 0c0 31.110596 -25.220093 56.33069 -56.33069 56.33069l0 0c-31.110596 0 -56.33072 -25.220093 -56.33072 -56.33069z" fill-rule="evenodd"/><path stroke="#595959" stroke-width="3.0" stroke-linejoin="round" stroke-linecap="butt" d="m330.03937 247.40027l0 0c0 -31.110596 25.220123 -56.33072 56.33072 -56.33072l0 0c14.939819 0 29.267761 5.9348297 39.831818 16.498886c10.564056 10.564056 16.49887 24.891998 16.49887 39.831833l0 0c0 31.110596 -25.220093 56.33069 -56.33069 56.33069l0 0c-31.110596 0 -56.33072 -25.220093 -56.33072 -56.33069z" fill-rule="evenodd"/><path fill="#b6d7a8" d="m17.509186 303.66928l0 0c0 -31.110596 25.22012 -56.330704 56.33071 -56.330704l0 0c14.939827 0 29.267769 5.9348297 39.831825 16.498886c10.564056 10.564056 16.498886 24.891998 16.498886 39.831818l0 0c0 31.110596 -25.220123 56.33072 -56.33071 56.33072l0 0c-31.110592 0 -56.33071 -25.220123 -56.33071 -56.33072z" fill-rule="evenodd"/><path stroke="#595959" stroke-width="3.0" stroke-linejoin="round" stroke-linecap="butt" d="m17.509186 303.66928l0 0c0 -31.110596 25.22012 -56.330704 56.33071 -56.330704l0 0c14.939827 0 29.267769 5.9348297 39.831825 16.498886c10.564056 10.564056 16.498886 24.891998 16.498886 39.831818l0 0c0 31.110596 -25.220123 56.33072 -56.33071 56.33072l0 0c-31.110592 0 -56.33071 -25.220123 -56.33071 -56.33072z" fill-rule="evenodd"/><path fill="#b6d7a8" d="m53.742783 185.77165l0 0c0 -31.110596 25.220116 -56.330704 56.33071 -56.330704l0 0c14.939827 0 29.267769 5.9348145 39.831825 16.498886c10.564056 10.564056 16.498886 24.891983 16.498886 39.831818l0 0c0 31.110596 -25.220123 56.330704 -56.33071 56.330704l0 0c-31.110596 0 -56.33071 -25.220108 -56.33071 -56.330704z" fill-rule="evenodd"/><path stroke="#595959" stroke-width="3.0" stroke-linejoin="round" stroke-linecap="butt" d="m53.742783 185.77165l0 0c0 -31.110596 25.220116 -56.330704 56.33071 -56.330704l0 0c14.939827 0 29.267769 5.9348145 39.831825 16.498886c10.564056 10.564056 16.498886 24.891983 16.498886 39.831818l0 0c0 31.110596 -25.220123 56.330704 -56.33071 56.330704l0 0c-31.110596 0 -56.33071 -25.220108 -56.33071 -56.330704z" fill-rule="evenodd"/><path fill="#e06666" d="m427.81628 102.738846l0 0c0 -31.110596 25.220093 -56.330708 56.33069 -56.330708l0 0c14.93985 0 29.267761 5.934822 39.83185 16.498882c10.564026 10.564056 16.49884 24.89199 16.49884 39.831825l0 0c0 31.110596 -25.220093 56.330704 -56.33069 56.330704l0 0c-31.110596 0 -56.33069 -25.220108 -56.33069 -56.330704z" fill-rule="evenodd"/><path stroke="#595959" stroke-width="3.0" stroke-linejoin="round" stroke-linecap="butt" d="m427.81628 102.738846l0 0c0 -31.110596 25.220093 -56.330708 56.33069 -56.330708l0 0c14.93985 0 29.267761 5.934822 39.83185 16.498882c10.564026 10.564056 16.49884 24.89199 16.49884 39.831825l0 0c0 31.110596 -25.220093 56.330704 -56.33069 56.330704l0 0c-31.110596 0 -56.33069 -25.220108 -56.33069 -56.330704z" fill-rule="evenodd"/><path fill="#e06666" d="m284.14694 108.96438l0 0c-3.4176025 16.149536 -13.746857 29.987297 -28.257843 37.856133c-14.510986 7.8688354 -31.743225 8.976761 -47.14241 3.0309448z" fill-rule="evenodd"/><path stroke="#595959" stroke-width="3.0" stroke-linejoin="round" stroke-linecap="butt" d="m284.14694 108.96438l0 0c-3.4176025 16.149536 -13.746857 29.987297 -28.257843 37.856133c-14.510986 7.8688354 -31.743225 8.976761 -47.14241 3.0309448z" fill-rule="evenodd"/><path fill="#b6d7a8" d="m239.10498 298.71765l0 0c-16.324112 -0.7324219 -31.525726 -8.517273 -41.66098 -21.334808c-10.135254 -12.817535 -14.205246 -29.404526 -11.154053 -45.457657z" fill-rule="evenodd"/><path stroke="#595959" stroke-width="3.0" stroke-linejoin="round" stroke-linecap="butt" d="m239.10498 298.71765l0 0c-16.324112 -0.7324219 -31.525726 -8.517273 -41.66098 -21.334808c-10.135254 -12.817535 -14.205246 -29.404526 -11.154053 -45.457657z" fill-rule="evenodd"/><path fill="#b6d7a8" d="m322.92 92.218124l0 0c-9.16626 -14.3267975 -11.368622 -32.028126 -5.992462 -48.16426c5.376129 -16.136139 17.755157 -28.979315 33.682587 -34.945522z" fill-rule="evenodd"/><path stroke="#595959" stroke-width="3.0" stroke-linejoin="round" stroke-linecap="butt" d="m322.92 92.218124l0 0c-9.16626 -14.3267975 -11.368622 -32.028126 -5.992462 -48.16426c5.376129 -16.136139 17.755157 -28.979315 33.682587 -34.945522z" fill-rule="evenodd"/><path fill="#000000" fill-opacity="0.0" d="m354.20996 -4.984252c-5.86438 16.87489 -15.07959 78.51006 -35.18634 101.249344c-20.10672 22.73928 -62.59491 14.96019 -85.45407 35.186356c-22.85913 20.22615 -56.48819 54.33551 -51.70079 86.17059c4.7874146 31.835083 67.02101 87.36658 80.42522 104.839905" fill-rule="evenodd"/><path stroke="#000000" stroke-width="12.0" stroke-linejoin="round" stroke-linecap="butt" d="m354.20996 -4.984252c-5.86438 16.87489 -15.07959 78.51006 -35.18634 101.249344c-20.10672 22.73928 -62.59491 14.96019 -85.45407 35.186356c-22.85913 20.22615 -56.48819 54.33551 -51.70079 86.17059c4.7874146 31.835083 67.02101 87.36658 80.42522 104.839905" fill-rule="evenodd"/><path fill="#000000" d="m225.60367 97.301834l0 0c0 -1.8960266 1.5370483 -3.4330673 3.433075 -3.4330673l0 0c0.9105072 0 1.7837219 0.36169434 2.4275513 1.0055237c0.64382935 0.6438217 1.0055237 1.5170364 1.0055237 2.4275436l0 0c0 1.8960342 -1.5370331 3.433075 -3.433075 3.433075l0 0c-1.8960266 0 -3.433075 -1.5370407 -3.433075 -3.433075z" fill-rule="evenodd"/><path stroke="#000000" stroke-width="3.0" stroke-linejoin="round" stroke-linecap="butt" d="m225.60367 97.301834l0 0c0 -1.8960266 1.5370483 -3.4330673 3.433075 -3.4330673l0 0c0.9105072 0 1.7837219 0.36169434 2.4275513 1.0055237c0.64382935 0.6438217 1.0055237 1.5170364 1.0055237 2.4275436l0 0c0 1.8960342 -1.5370331 3.433075 -3.433075 3.433075l0 0c-1.8960266 0 -3.433075 -1.5370407 -3.433075 -3.433075z" fill-rule="evenodd"/><path fill="#000000" d="m65.750656 69.74541l0 0c0 -1.8960342 1.5370407 -3.433075 3.4330673 -3.433075l0 0c0.9105072 0 1.7837219 0.36170197 2.4275513 1.0055237c0.64382935 0.64382935 1.0055237 1.5170441 1.0055237 2.4275513l0 0c0 1.8960342 -1.5370407 3.4330673 -3.433075 3.4330673l0 0c-1.8960266 0 -3.4330673 -1.5370331 -3.4330673 -3.4330673z" fill-rule="evenodd"/><path stroke="#000000" stroke-width="3.0" stroke-linejoin="round" stroke-linecap="butt" d="m65.750656 69.74541l0 0c0 -1.8960342 1.5370407 -3.433075 3.4330673 -3.433075l0 0c0.9105072 0 1.7837219 0.36170197 2.4275513 1.0055237c0.64382935 0.64382935 1.0055237 1.5170441 1.0055237 2.4275513l0 0c0 1.8960342 -1.5370407 3.4330673 -3.433075 3.4330673l0 0c-1.8960266 0 -3.4330673 -1.5370331 -3.4330673 -3.4330673z" fill-rule="evenodd"/><path fill="#000000" d="m106.64042 185.77165l0 0c0 -1.8960266 1.5370407 -3.433075 3.433075 -3.433075l0 0c0.9105072 0 1.7837219 0.3617096 2.4275436 1.0055237c0.64382935 0.64382935 1.0055237 1.5170441 1.0055237 2.4275513l0 0c0 1.8960266 -1.5370407 3.433075 -3.4330673 3.433075l0 0c-1.8960342 0 -3.433075 -1.5370483 -3.433075 -3.433075z" fill-rule="evenodd"/><path stroke="#000000" stroke-width="3.0" stroke-linejoin="round" stroke-linecap="butt" d="m106.64042 185.77165l0 0c0 -1.8960266 1.5370407 -3.433075 3.433075 -3.433075l0 0c0.9105072 0 1.7837219 0.3617096 2.4275436 1.0055237c0.64382935 0.64382935 1.0055237 1.5170441 1.0055237 2.4275513l0 0c0 1.8960266 -1.5370407 3.433075 -3.4330673 3.433075l0 0c-1.8960342 0 -3.433075 -1.5370483 -3.433075 -3.433075z" fill-rule="evenodd"/><path fill="#000000" d="m70.40682 303.66928l0 0c0 -1.8960266 1.5370407 -3.433075 3.433075 -3.433075l0 0c0.9105072 0 1.7837219 0.36172485 2.4275436 1.0055237c0.64382935 0.64382935 1.0055237 1.5170593 1.0055237 2.4275513l0 0c0 1.8960571 -1.5370331 3.433075 -3.4330673 3.433075l0 0c-1.8960342 0 -3.433075 -1.5370178 -3.433075 -3.433075z" fill-rule="evenodd"/><path stroke="#000000" stroke-width="3.0" stroke-linejoin="round" stroke-linecap="butt" d="m70.40682 303.66928l0 0c0 -1.8960266 1.5370407 -3.433075 3.433075 -3.433075l0 0c0.9105072 0 1.7837219 0.36172485 2.4275436 1.0055237c0.64382935 0.64382935 1.0055237 1.5170593 1.0055237 2.4275513l0 0c0 1.8960571 -1.5370331 3.433075 -3.4330673 3.433075l0 0c-1.8960342 0 -3.433075 -1.5370178 -3.433075 -3.433075z" fill-rule="evenodd"/><path fill="#000000" d="m238.19685 242.44226l0 0c0 -1.8960419 1.5370331 -3.433075 3.433075 -3.433075l0 0c0.9105072 0 1.7837219 0.36169434 2.427536 1.0055237c0.64382935 0.64382935 1.0055237 1.5170441 1.0055237 2.4275513l0 0c0 1.8960266 -1.5370331 3.433075 -3.4330597 3.433075l0 0c-1.8960419 0 -3.433075 -1.5370483 -3.433075 -3.433075z" fill-rule="evenodd"/><path stroke="#000000" stroke-width="3.0" stroke-linejoin="round" stroke-linecap="butt" d="m238.19685 242.44226l0 0c0 -1.8960419 1.5370331 -3.433075 3.433075 -3.433075l0 0c0.9105072 0 1.7837219 0.36169434 2.427536 1.0055237c0.64382935 0.64382935 1.0055237 1.5170441 1.0055237 2.4275513l0 0c0 1.8960266 -1.5370331 3.433075 -3.4330597 3.433075l0 0c-1.8960419 0 -3.433075 -1.5370483 -3.433075 -3.433075z" fill-rule="evenodd"/><path fill="#000000" d="m366.937 61.85958l0 0c0 -1.8960342 1.5370483 -3.4330711 3.433075 -3.4330711l0 0c0.91049194 0 1.7837219 0.36169815 2.4275513 1.0055237c0.64382935 0.64382553 1.0055237 1.5170403 1.0055237 2.4275475l0 0c0 1.8960304 -1.5370483 3.4330673 -3.433075 3.4330673l0 0c-1.8960266 0 -3.433075 -1.5370369 -3.433075 -3.4330673z" fill-rule="evenodd"/><path stroke="#000000" stroke-width="3.0" stroke-linejoin="round" stroke-linecap="butt" d="m366.937 61.85958l0 0c0 -1.8960342 1.5370483 -3.4330711 3.433075 -3.4330711l0 0c0.91049194 0 1.7837219 0.36169815 2.4275513 1.0055237c0.64382935 0.64382553 1.0055237 1.5170403 1.0055237 2.4275475l0 0c0 1.8960304 -1.5370483 3.4330673 -3.433075 3.4330673l0 0c-1.8960266 0 -3.433075 -1.5370369 -3.433075 -3.4330673z" fill-rule="evenodd"/><path fill="#000000" d="m480.7139 102.738846l0 0c0 -1.8960342 1.5370483 -3.433075 3.433075 -3.433075l0 0c0.91052246 0 1.7837219 0.36170197 2.4275513 1.0055237c0.64382935 0.64382935 1.0055237 1.5170441 1.0055237 2.4275513l0 0c0 1.8960342 -1.5370483 3.4330673 -3.433075 3.4330673l0 0c-1.8960266 0 -3.433075 -1.5370331 -3.433075 -3.4330673z" fill-rule="evenodd"/><path stroke="#000000" stroke-width="3.0" stroke-linejoin="round" stroke-linecap="butt" d="m480.7139 102.738846l0 0c0 -1.8960342 1.5370483 -3.433075 3.433075 -3.433075l0 0c0.91052246 0 1.7837219 0.36170197 2.4275513 1.0055237c0.64382935 0.64382935 1.0055237 1.5170441 1.0055237 2.4275513l0 0c0 1.8960342 -1.5370483 3.4330673 -3.433075 3.4330673l0 0c-1.8960266 0 -3.433075 -1.5370331 -3.433075 -3.4330673z" fill-rule="evenodd"/><path fill="#000000" d="m382.937 247.40027l0 0c0 -1.8960419 1.5370483 -3.433075 3.433075 -3.433075l0 0c0.91049194 0 1.7837219 0.36169434 2.4275513 1.0055237c0.64382935 0.64382935 1.0055237 1.5170441 1.0055237 2.4275513l0 0c0 1.8960266 -1.5370483 3.4330597 -3.433075 3.4330597l0 0c-1.8960266 0 -3.433075 -1.5370331 -3.433075 -3.4330597z" fill-rule="evenodd"/><path stroke="#000000" stroke-width="3.0" stroke-linejoin="round" stroke-linecap="butt" d="m382.937 247.40027l0 0c0 -1.8960419 1.5370483 -3.433075 3.433075 -3.433075l0 0c0.91049194 0 1.7837219 0.36169434 2.4275513 1.0055237c0.64382935 0.64382935 1.0055237 1.5170441 1.0055237 2.4275513l0 0c0 1.8960266 -1.5370483 3.4330597 -3.433075 3.4330597l0 0c-1.8960266 0 -3.433075 -1.5370331 -3.433075 -3.4330597z" fill-rule="evenodd"/><path fill="#000000" d="m663.5276 245.55249l0 0c0 -1.8960266 1.5369873 -3.433075 3.4330444 -3.433075l0 0c0.91052246 0 1.7836914 0.3617096 2.4275513 1.0055237c0.6437988 0.64382935 1.0054932 1.5170441 1.0054932 2.4275513l0 0c0 1.8960419 -1.5369873 3.433075 -3.4330444 3.433075l0 0c-1.8960571 0 -3.4330444 -1.5370331 -3.4330444 -3.433075z" fill-rule="evenodd"/><path stroke="#000000" stroke-width="3.0" stroke-linejoin="round" stroke-linecap="butt" d="m663.5276 245.55249l0 0c0 -1.8960266 1.5369873 -3.433075 3.4330444 -3.433075l0 0c0.91052246 0 1.7836914 0.3617096 2.4275513 1.0055237c0.6437988 0.64382935 1.0054932 1.5170441 1.0054932 2.4275513l0 0c0 1.8960419 -1.5369873 3.433075 -3.4330444 3.433075l0 0c-1.8960571 0 -3.4330444 -1.5370331 -3.4330444 -3.433075z" fill-rule="evenodd"/><path fill="#000000" d="m624.56433 76.961945l0 0c0 -1.8960342 1.5369873 -3.433075 3.4330444 -3.433075l0 0c0.91052246 0 1.7836914 0.36170197 2.4275513 1.0055237c0.6437988 0.64382935 1.0054932 1.5170441 1.0054932 2.4275513l0 0c0 1.8960266 -1.5369873 3.4330673 -3.4330444 3.4330673l0 0c-1.8960571 0 -3.4330444 -1.5370407 -3.4330444 -3.4330673z" fill-rule="evenodd"/><path stroke="#000000" stroke-width="3.0" stroke-linejoin="round" stroke-linecap="butt" d="m624.56433 76.961945l0 0c0 -1.8960342 1.5369873 -3.433075 3.4330444 -3.433075l0 0c0.91052246 0 1.7836914 0.36170197 2.4275513 1.0055237c0.6437988 0.64382935 1.0054932 1.5170441 1.0054932 2.4275513l0 0c0 1.8960266 -1.5369873 3.4330673 -3.4330444 3.4330673l0 0c-1.8960571 0 -3.4330444 -1.5370407 -3.4330444 -3.4330673z" fill-rule="evenodd"/><path fill="#000000" d="m752.7139 65.108925l0 0c0 -1.8960342 1.5370483 -3.4330711 3.4330444 -3.4330711l0 0c0.91052246 0 1.7837524 0.36169815 2.4275513 1.0055237c0.64385986 0.64382553 1.0055542 1.5170403 1.0055542 2.4275475l0 0c0 1.8960342 -1.5370483 3.4330673 -3.4331055 3.4330673l0 0c-1.8959961 0 -3.4330444 -1.5370331 -3.4330444 -3.4330673z" fill-rule="evenodd"/><path stroke="#000000" stroke-width="3.0" stroke-linejoin="round" stroke-linecap="butt" d="m752.7139 65.108925l0 0c0 -1.8960342 1.5370483 -3.4330711 3.4330444 -3.4330711l0 0c0.91052246 0 1.7837524 0.36169815 2.4275513 1.0055237c0.64385986 0.64382553 1.0055542 1.5170403 1.0055542 2.4275475l0 0c0 1.8960342 -1.5370483 3.4330673 -3.4331055 3.4330673l0 0c-1.8959961 0 -3.4330444 -1.5370331 -3.4330444 -3.4330673z" fill-rule="evenodd"/></g></svg>